<?xml version="1.0" encoding="UTF-8" standalone="no"?>
<!-- Created with Inkscape (http://www.inkscape.org/) -->

<svg
   width="103.36896mm"
   height="22.969141mm"
   viewBox="0 0 103.36896 22.969141"
   version="1.1"
   id="svg1"
   xml:space="preserve"
   xmlns="http://www.w3.org/2000/svg"
   xmlns:svg="http://www.w3.org/2000/svg"><defs
     id="defs1"><clipPath
       id="bc4d65136c"><rect
         x="0"
         width="298"
         y="0"
         height="89"
         id="rect1" /></clipPath></defs><g
     id="layer1"
     transform="translate(-51.657232,-165.42326)"><g
       clip-path="url(#bc4d65136c)"
       id="g26"
       transform="matrix(0.35277778,0,0,0.35277778,50.955775,160.8185)"><g
         fill="#000000"
         fill-opacity="1"
         id="g4"><g
           transform="translate(3.84777,77.646589)"
           id="g3"><g
             id="g2"><path
               d="m 39.140625,-22.328125 c 0.25,-1.132813 0.796875,-1.953125 1.640625,-2.453125 0.84375,-0.5 1.738281,-0.75 2.6875,-0.75 1.132812,0 2.1875,0.359375 3.15625,1.078125 0.96875,0.71875 1.453125,1.726563 1.453125,3.015625 0,0.449219 -0.07422,0.96875 -0.21875,1.5625 -1.148437,3.625 -2.75,6.71875 -4.8125,9.28125 -2.054687,2.554688 -4.371094,4.601562 -6.953125,6.140625 -2.585938,1.53125 -5.265625,2.65625 -8.046875,3.375 C 25.273438,-0.359375 22.597656,0 20.015625,0 15.703125,0 11.894531,-0.78125 8.59375,-2.34375 5.289062,-3.90625 2.722656,-6.023438 0.890625,-8.703125 c -1.832031,-2.675781 -2.75,-5.628906 -2.75,-8.859375 0,-2.332031 0.421875,-4.691406 1.265625,-7.078125 l 9.296875,-26.5625 c 1,-2.78125 2.21875,-5.050781 3.65625,-6.8125 1.4375,-1.757813 3,-3.109375 4.6875,-4.046875 1.6875,-0.945312 3.347656,-1.601562 4.984375,-1.96875 1.632812,-0.375 3.125,-0.5625 4.46875,-0.5625 2.820312,0 5.363281,0.511719 7.625,1.53125 2.257812,1.011719 4.046875,2.484375 5.359375,4.421875 1.3125,1.9375 1.96875,4.265625 1.96875,6.984375 0,0.804688 -0.0625,1.636719 -0.1875,2.5 -0.125,0.867188 -0.3125,1.796875 -0.5625,2.796875 -0.648437,2.429687 -1.625,4.152344 -2.9375,5.171875 -1.3125,1.011719 -2.617187,1.515625 -3.90625,1.515625 -1.4375,0 -2.703125,-0.46875 -3.796875,-1.40625 -1.09375,-0.945313 -1.640625,-2.066406 -1.640625,-3.359375 0,-0.59375 0.101563,-1.113281 0.3125,-1.5625 0.59375,-1.476562 0.890625,-2.765625 0.890625,-3.859375 0,-1.144531 -0.277344,-1.976563 -0.828125,-2.5 -0.542969,-0.519531 -1.234375,-0.78125 -2.078125,-0.78125 -0.59375,0 -1.292969,0.140625 -2.09375,0.421875 -0.792969,0.273438 -1.601562,0.804688 -2.421875,1.59375 -0.8125,0.792969 -1.515625,2.007812 -2.109375,3.640625 l -9.375,26.125 c -0.199219,0.648437 -0.351562,1.28125 -0.453125,1.90625 -0.09375,0.617187 -0.140625,1.195313 -0.140625,1.734375 0,1.648438 0.566406,3.101562 1.703125,4.359375 1.144531,1.261719 2.609375,2.257813 4.390625,2.984375 1.789062,0.71875 3.65625,1.078125 5.59375,1.078125 1.976562,0 4.082031,-0.429687 6.3125,-1.296875 2.238281,-0.875 4.347656,-2.265625 6.328125,-4.171875 1.988281,-1.914063 3.550781,-4.4375 4.6875,-7.5625 z m 0,0"
               id="path1" /></g></g></g><g
         fill="#000000"
         fill-opacity="1"
         id="g7"><g
           transform="translate(40.242017,77.646589)"
           id="g6"><g
             id="g5"><path
               d="m 31.484375,-15.546875 c 0.144531,0.04297 0.316406,0.0625 0.515625,0.0625 0.195312,0 0.367188,0 0.515625,0 2.1875,0 4.109375,-0.726563 5.765625,-2.1875 1.664062,-1.46875 2.894531,-3.34375 3.6875,-5.625 0.394531,-1.382813 1.0625,-2.382813 2,-3 0.945312,-0.625 1.921875,-0.9375 2.921875,-0.9375 1.082031,0 2.046875,0.375 2.890625,1.125 0.84375,0.742187 1.265625,1.804687 1.265625,3.1875 0,0.59375 -0.121094,1.339844 -0.359375,2.234375 -0.84375,2.585938 -2.136719,4.945312 -3.875,7.078125 -1.742188,2.125 -3.839844,3.824219 -6.296875,5.09375 -2.449219,1.261719 -5.136719,1.890625 -8.0625,1.890625 -1.542969,0 -3.03125,-0.195312 -4.46875,-0.59375 -1.542969,2.679688 -3.570313,4.554688 -6.078125,5.625 C 19.40625,-0.53125 16.691406,0 13.765625,0 c -2.53125,0 -4.875,-0.492188 -7.03125,-1.484375 -2.15625,-1 -3.90625,-2.441406 -5.25,-4.328125 -1.335937,-1.882812 -2,-4.113281 -2,-6.6875 0,-0.84375 0.074219,-1.710938 0.21875,-2.609375 0.148437,-0.894531 0.3945312,-1.8125 0.75,-2.75 L 5.875,-33.1875 c 0.789062,-2.238281 2.003906,-4.140625 3.640625,-5.703125 1.644531,-1.5625 3.53125,-2.75 5.65625,-3.5625 2.132813,-0.820313 4.367187,-1.234375 6.703125,-1.234375 2.6875,0 5.109375,0.523438 7.265625,1.5625 2.15625,1.042969 3.863281,2.523438 5.125,4.4375 1.269531,1.90625 1.90625,4.125 1.90625,6.65625 0,0.992188 -0.199219,2.257812 -0.59375,3.796875 -0.398437,1.53125 -0.871094,3.007813 -1.421875,4.421875 -0.542969,1.417969 -1.039062,2.449219 -1.484375,3.09375 -0.5,0.742188 -0.996094,1.289062 -1.484375,1.640625 0.144531,0.6875 0.226562,1.292969 0.25,1.8125 0.03125,0.523437 0.04687,0.761719 0.04687,0.71875 z M 24.5625,-27.015625 c 0.25,-0.789063 0.472656,-1.59375 0.671875,-2.40625 0.195313,-0.820313 0.296875,-1.554687 0.296875,-2.203125 0,-0.84375 -0.351562,-1.597656 -1.046875,-2.265625 -0.699219,-0.675781 -1.617187,-1.015625 -2.75,-1.015625 -1.148437,0 -2.292969,0.339844 -3.4375,1.015625 -1.136719,0.667969 -1.929687,1.621094 -2.375,2.859375 l -5.28125,15.109375 c -0.148437,0.34375 -0.296875,0.839844 -0.453125,1.484375 -0.148438,0.648438 -0.21875,1.320312 -0.21875,2.015625 0,0.886719 0.25,1.703125 0.75,2.453125 0.5,0.742188 1.46875,1.109375 2.90625,1.109375 1.132812,0 2.195312,-0.320313 3.1875,-0.96875 1,-0.644531 1.742188,-1.609375 2.234375,-2.890625 -0.6875,-0.601562 -1.308594,-1.285156 -1.859375,-2.046875 -0.542969,-0.769531 -0.839844,-1.773437 -0.890625,-3.015625 0,-1.488281 0.359375,-2.816406 1.078125,-3.984375 0.71875,-1.164063 1.671875,-2.054687 2.859375,-2.671875 1.195313,-0.625 2.460937,-0.863281 3.796875,-0.71875 0.05078,-0.289062 0.125,-0.585938 0.21875,-0.890625 0.101562,-0.300781 0.207031,-0.625 0.3125,-0.96875 z m 0,0"
               id="path4" /></g></g></g><g
         fill="#000000"
         fill-opacity="1"
         id="g10"><g
           transform="translate(79.092316,77.646589)"
           id="g9"><g
             id="g8"><path
               d="m 41.53125,-21.4375 c 0.394531,-1.238281 1.078125,-2.140625 2.046875,-2.703125 C 44.546875,-24.710938 45.523438,-25 46.515625,-25 c 1.132813,0 2.148437,0.3125 3.046875,0.9375 0.894531,0.617188 1.34375,1.515625 1.34375,2.703125 0,0.5 -0.125,1.074219 -0.375,1.71875 -1.6875,4.8125 -3.671875,8.65625 -5.953125,11.53125 -2.28125,2.875 -4.703125,4.949219 -7.265625,6.21875 C 34.757812,-0.628906 32.21875,0 29.6875,0 27.601562,0 25.644531,-0.394531 23.8125,-1.1875 21.976562,-1.976562 20.503906,-3.15625 19.390625,-4.71875 18.273438,-6.28125 17.71875,-8.207031 17.71875,-10.5 c 0,-0.789062 0.08203,-1.59375 0.25,-2.40625 0.175781,-0.820312 0.414062,-1.65625 0.71875,-2.5 l 5.421875,-15.328125 c 0.25,-0.75 0.375,-1.367187 0.375,-1.859375 0,-0.695312 -0.214844,-1.253906 -0.640625,-1.671875 -0.417969,-0.425781 -0.976562,-0.640625 -1.671875,-0.640625 -1.042969,0 -2.171875,0.449219 -3.390625,1.34375 -1.210938,0.898438 -2.308594,2.289062 -3.296875,4.171875 -0.84375,2.375 -1.777344,5.015625 -2.796875,7.921875 -1.023438,2.90625 -2.042969,5.796875 -3.0625,8.671875 -1.011719,2.875 -1.964844,5.527344 -2.859375,7.953125 -0.542969,1.6875 -1.46875,2.945312 -2.78125,3.765625 -1.3125,0.824219 -2.617187,1.234375 -3.90625,1.234375 -1.195313,0 -2.253906,-0.347656 -3.171875,-1.046875 -0.914062,-0.695313 -1.375,-1.738281 -1.375,-3.125 0,-0.644531 0.101562,-1.265625 0.296875,-1.859375 l 12.4375,-34.765625 c 0.394531,-1.039063 1.035156,-1.804687 1.921875,-2.296875 0.894531,-0.5 1.863281,-0.75 2.90625,-0.75 1,0 1.914062,0.179688 2.75,0.53125 0.84375,0.34375 1.367188,0.859375 1.578125,1.546875 1.882813,-1.382813 4.265625,-2.078125 7.140625,-2.078125 1.976562,0 3.796875,0.460938 5.453125,1.375 1.664063,0.917969 3.007813,2.15625 4.03125,3.71875 1.019531,1.5625 1.53125,3.339844 1.53125,5.328125 0,1.1875 -0.277344,2.554687 -0.828125,4.09375 l -5.796875,16.515625 c -0.25,0.84375 -0.375,1.464844 -0.375,1.859375 0,1.292969 0.691406,1.9375 2.078125,1.9375 1.738281,0 3.578125,-0.976563 5.515625,-2.9375 1.9375,-1.957031 3.722656,-5.171875 5.359375,-9.640625 z m 0,0"
               id="path7" /></g></g></g><g
         fill="#000000"
         fill-opacity="1"
         id="g13"><g
           transform="translate(118.16588,77.646589)"
           id="g12"><g
             id="g11"><path
               d="m 36.015625,-22.109375 c 0.394531,-1.082031 1.003906,-1.859375 1.828125,-2.328125 0.820312,-0.476562 1.703125,-0.71875 2.640625,-0.71875 1.144531,0 2.195313,0.351562 3.15625,1.046875 0.96875,0.6875 1.453125,1.632813 1.453125,2.828125 0,0.542969 -0.101562,1.039062 -0.296875,1.484375 C 43.210938,-15.285156 41.03125,-11.5625 38.25,-8.625 35.46875,-5.695312 32.34375,-3.523438 28.875,-2.109375 25.40625,-0.703125 21.832031,0 18.15625,0 c -3.625,0 -6.828125,-0.628906 -9.609375,-1.890625 -2.773437,-1.269531 -4.929687,-3.019531 -6.46875,-5.25 -1.53125,-2.238281 -2.296875,-4.769531 -2.296875,-7.59375 0,-1.6875 0.296875,-3.421875 0.890625,-5.203125 L 4.90625,-32.453125 c 0.894531,-2.625 2.132812,-4.753906 3.71875,-6.390625 1.59375,-1.632812 3.367188,-2.847656 5.328125,-3.640625 1.957031,-0.800781 3.90625,-1.203125 5.84375,-1.203125 2.132813,0 4.128906,0.4375 5.984375,1.3125 1.863281,0.867188 3.363281,2.117188 4.5,3.75 1.144531,1.636719 1.71875,3.621094 1.71875,5.953125 0,0.84375 -0.07422,1.726563 -0.21875,2.640625 -0.148438,0.917969 -0.421875,1.875 -0.828125,2.875 -0.648437,1.679688 -1.5,2.890625 -2.5625,3.640625 -1.0625,0.742187 -2.140625,1.109375 -3.234375,1.109375 -1.292969,0 -2.460938,-0.441406 -3.5,-1.328125 -1.042969,-0.894531 -1.5625,-1.988281 -1.5625,-3.28125 0,-0.695313 0.195312,-1.441406 0.59375,-2.234375 0.550781,-1.09375 0.828125,-2.007812 0.828125,-2.75 0,-0.644531 -0.1875,-1.164062 -0.5625,-1.5625 -0.375,-0.394531 -0.933594,-0.59375 -1.671875,-0.59375 -0.605469,0 -1.230469,0.261719 -1.875,0.78125 -0.636719,0.523438 -1.132812,1.230469 -1.484375,2.125 l -4.53125,12.875 c -0.304687,0.9375 -0.453125,1.828125 -0.453125,2.671875 0,1.886719 0.753906,3.484375 2.265625,4.796875 1.519531,1.3125 3.566406,1.96875 6.140625,1.96875 1.882812,0 3.867188,-0.429688 5.953125,-1.296875 C 27.378906,-11.097656 29.375,-12.5 31.28125,-14.4375 c 1.914062,-1.9375 3.492188,-4.492188 4.734375,-7.671875 z m 0,0"
               id="path10" /></g></g></g><g
         fill="#000000"
         fill-opacity="1"
         id="g16"><g
           transform="translate(151.43425,77.646589)"
           id="g15"><g
             id="g14"><path
               d="m 37.65625,-20.984375 c 0.34375,-1.144531 1,-2 1.96875,-2.5625 0.96875,-0.570313 1.972656,-0.859375 3.015625,-0.859375 1.144531,0 2.148437,0.3125 3.015625,0.9375 0.863281,0.617188 1.296875,1.492188 1.296875,2.625 0,0.5 -0.101563,1.023438 -0.296875,1.5625 -1.636719,4.71875 -3.917969,8.496094 -6.84375,11.328125 -2.929688,2.824219 -6.152344,4.855469 -9.671875,6.09375 C 26.617188,-0.617188 23.117188,0 19.640625,0 16.023438,0 12.765625,-0.582031 9.859375,-1.75 6.953125,-2.914062 4.65625,-4.578125 2.96875,-6.734375 c -1.679688,-2.15625 -2.515625,-4.695313 -2.515625,-7.625 0,-0.84375 0.082031,-1.710937 0.25,-2.609375 0.175781,-0.894531 0.410156,-1.785156 0.703125,-2.671875 L 5.8125,-32.375 c 1.28125,-3.71875 3.382812,-6.53125 6.3125,-8.4375 2.925781,-1.914062 6.054688,-2.875 9.390625,-2.875 2.820313,0 5.273437,0.546875 7.359375,1.640625 2.082031,1.09375 3.707031,2.585937 4.875,4.46875 1.164062,1.886719 1.75,4.015625 1.75,6.390625 0,1.242188 -0.199219,2.605469 -0.59375,4.09375 -0.992188,3.324219 -2.851562,5.980469 -5.578125,7.96875 -2.730469,1.980469 -5.78125,2.96875 -9.15625,2.96875 -1.492187,0 -2.898437,-0.207031 -4.21875,-0.625 -1.3125,-0.425781 -2.511719,-0.957031 -3.59375,-1.59375 l -0.59375,1.40625 c -0.15625,0.34375 -0.261719,0.695312 -0.3125,1.046875 -0.04297,0.34375 -0.0625,0.6875 -0.0625,1.03125 0,1.6875 0.789063,3.117187 2.375,4.28125 1.59375,1.167969 3.753906,1.75 6.484375,1.75 2.125,0 4.316406,-0.40625 6.578125,-1.21875 2.257813,-0.820313 4.351563,-2.125 6.28125,-3.90625 1.9375,-1.789063 3.453125,-4.125 4.546875,-7 z m -16.375,-13.921875 c -0.84375,0 -1.6875,0.324219 -2.53125,0.96875 -0.84375,0.648438 -1.464844,1.542969 -1.859375,2.6875 l -1.5625,4.453125 c 1.039063,0.59375 2.332031,0.890625 3.875,0.890625 1.132813,0 2.195313,-0.242188 3.1875,-0.734375 1,-0.5 1.671875,-1.367187 2.015625,-2.609375 0.195312,-0.539062 0.296875,-1.132812 0.296875,-1.78125 0,-1.09375 -0.3125,-2.007812 -0.9375,-2.75 -0.617187,-0.75 -1.445313,-1.125 -2.484375,-1.125 z m 0,0"
               id="path13" /></g></g></g><g
         fill="#000000"
         fill-opacity="1"
         id="g19"><g
           transform="translate(186.71212,77.646589)"
           id="g18"><g
             id="g17"><path
               d="m 37.734375,-21.578125 c 0.34375,-1.144531 0.9375,-1.953125 1.78125,-2.421875 0.84375,-0.46875 1.738281,-0.703125 2.6875,-0.703125 1.1875,0 2.285156,0.335937 3.296875,1 1.019531,0.667969 1.53125,1.574219 1.53125,2.71875 0,0.34375 -0.07422,0.742187 -0.21875,1.1875 -2.1875,6.304687 -5.03125,11.179687 -8.53125,14.625 C 34.789062,-1.722656 31.007812,0 26.9375,0 c -2.03125,0 -3.917969,-0.441406 -5.65625,-1.328125 -1.730469,-0.894531 -3.105469,-2.148437 -4.125,-3.765625 -1.023438,-1.613281 -1.53125,-3.488281 -1.53125,-5.625 0,-1.488281 0.296875,-3.078125 0.890625,-4.765625 l 3.28125,-9.078125 c 0.144531,-0.539062 0.21875,-0.988281 0.21875,-1.34375 0,-0.832031 -0.261719,-1.472656 -0.78125,-1.921875 -0.523437,-0.445313 -1.15625,-0.804687 -1.90625,-1.078125 C 16.585938,-29.1875 15.875,-29.425781 15.1875,-29.625 l -4.171875,11.171875 c -0.449219,1.1875 -1.15625,2.078125 -2.125,2.671875 -0.96875,0.59375 -1.976563,0.890625 -3.015625,0.890625 -1.042969,0 -1.976562,-0.304687 -2.796875,-0.921875 -0.8125,-0.625 -1.21875,-1.554688 -1.21875,-2.796875 0,-0.488281 0.070313,-1.035156 0.21875,-1.640625 l 5.4375,-14.65625 C 6.273438,-36.445312 5.65625,-38.207031 5.65625,-40.1875 c 0,-2.132812 0.617188,-4.019531 1.859375,-5.65625 1.238281,-1.632812 2.953125,-2.453125 5.140625,-2.453125 1.6875,0 3.171875,0.621094 4.453125,1.859375 1.289063,1.242188 1.9375,2.730469 1.9375,4.46875 0,0.6875 -0.101563,1.308594 -0.296875,1.859375 1.039062,0.292969 2.289062,0.726563 3.75,1.296875 1.46875,0.574219 2.921875,1.308594 4.359375,2.203125 1.445313,0.886719 2.640625,1.964844 3.578125,3.234375 0.945312,1.261719 1.421875,2.789062 1.421875,4.578125 0,0.648437 -0.0625,1.304687 -0.1875,1.96875 -0.125,0.667969 -0.3125,1.375 -0.5625,2.125 L 26.71875,-12.5 c -0.199219,0.542969 -0.296875,1.089844 -0.296875,1.640625 0,0.492187 0.132813,0.949219 0.40625,1.375 0.269531,0.417969 0.65625,0.625 1.15625,0.625 1.582031,0 3.253906,-1.210937 5.015625,-3.640625 1.757812,-2.4375 3.335938,-5.460938 4.734375,-9.078125 z m 0,0"
               id="path16" /></g></g></g><g
         fill="#000000"
         fill-opacity="1"
         id="g22"><g
           transform="translate(221.91554,77.646589)"
           id="g21"><g
             id="g20"><path
               d="m 26.5625,-20.984375 c 0.445312,-1.1875 1.128906,-2.050781 2.046875,-2.59375 0.914063,-0.550781 1.847656,-0.828125 2.796875,-0.828125 1.144531,0 2.175781,0.324219 3.09375,0.96875 0.914062,0.648438 1.375,1.539062 1.375,2.671875 0,0.199219 -0.02734,0.4375 -0.07813,0.71875 -0.05469,0.273437 -0.125,0.527344 -0.21875,0.765625 C 33.441401,-13.175781 30.472651,-8.4375 26.67187,-5.0625 22.878906,-1.6875 18.601562,0 13.84375,0 11.3125,0 8.941406,-0.46875 6.734375,-1.40625 4.523438,-2.351562 2.75,-3.734375 1.40625,-5.546875 c -1.3359375,-1.8125 -2,-3.984375 -2,-6.515625 0,-1.53125 0.296875,-3.191406 0.890625,-4.984375 v 0.07813 l 6.25,-17.9375 H 4.09375 c -0.992188,0 -1.789062,-0.382812 -2.390625,-1.15625 -0.59375,-0.769531 -0.890625,-1.675781 -0.890625,-2.71875 0,-1.1875 0.457031,-2.300781 1.375,-3.34375 0.925781,-1.039062 2.378906,-1.5625 4.359375,-1.5625 h 3.125 L 15.625,-60.28125 c 0.445312,-1.289062 1.15625,-2.332031 2.125,-3.125 0.96875,-0.789062 2.070312,-1.1875 3.3125,-1.1875 1.632812,0 2.910156,0.484375 3.828125,1.453125 0.914063,0.960937 1.375,2.136719 1.375,3.53125 0,0.398437 -0.07422,0.867187 -0.21875,1.40625 L 21.0625,-43.6875 h 3.34375 c 1.4375,0 2.476562,0.359375 3.125,1.078125 0.644531,0.71875 0.96875,1.578125 0.96875,2.578125 0,1.242188 -0.496094,2.40625 -1.484375,3.5 -0.992187,1.085938 -2.429687,1.625 -4.3125,1.625 h -4.84375 L 10.5625,-14.140625 c -0.04297,0.25 -0.105469,0.527344 -0.1875,0.828125 -0.07422,0.292969 -0.109375,0.5625 -0.109375,0.8125 0,0.992188 0.382813,1.84375 1.15625,2.5625 0.769531,0.71875 1.828125,1.078125 3.171875,1.078125 2.175781,0 4.34375,-1.003906 6.5,-3.015625 2.164062,-2.007812 3.988281,-5.046875 5.46875,-9.109375 z m 0,0"
               id="path19" /></g></g></g><g
         fill="#000000"
         fill-opacity="1"
         id="g25"><g
           transform="translate(246.25278,77.646589)"
           id="g24"><g
             id="g23"><path
               d="m 39.515625,-21.0625 c 0.394531,-1.09375 1,-1.875 1.8125,-2.34375 0.820313,-0.46875 1.679687,-0.703125 2.578125,-0.703125 1.1875,0 2.289062,0.351563 3.3125,1.046875 1.019531,0.6875 1.53125,1.578125 1.53125,2.671875 0,0.148437 0,0.308594 0,0.484375 0,0.179688 -0.05469,0.339844 -0.15625,0.484375 -1.730469,5.011719 -4.109375,8.96875 -7.140625,11.875 -3.03125,2.898437 -6.484375,4.964844 -10.359375,6.203125 -3.867188,1.242188 -7.953125,1.859375 -12.265625,1.859375 -4.367187,0 -8.074219,-0.5664062 -11.125,-1.703125 -3.054687,-1.144531 -5.375,-2.695312 -6.96875,-4.65625 -1.582031,-1.957031 -2.375,-4.148438 -2.375,-6.578125 0,-1.59375 0.277344,-3.207031 0.828125,-4.84375 0.542969,-1.632813 1.367188,-3.082031 2.484375,-4.34375 1.113281,-1.269531 2.492187,-2.101563 4.140625,-2.5 1.476562,-2.78125 2.988281,-5.597656 4.53125,-8.453125 1.539062,-2.851562 3.03125,-5.691406 4.46875,-8.515625 0.695312,-1.4375 1.703125,-2.515625 3.015625,-3.234375 1.3125,-0.71875 2.660156,-1.078125 4.046875,-1.078125 1.882812,0 3.382812,0.632813 4.5,1.890625 1.125,1.261719 1.6875,2.6875 1.6875,4.28125 0,1.09375 -0.359375,2.171875 -1.078125,3.234375 -0.71875,1.0625 -1.601563,1.820313 -2.640625,2.265625 0.144531,1.148438 0.539062,2.339844 1.1875,3.578125 0.644531,1.242187 1.335938,2.507813 2.078125,3.796875 1.039063,1.742188 2.03125,3.617188 2.96875,5.625 0.945313,2 1.421875,4.09375 1.421875,6.28125 0,0.5 -0.02734,0.976562 -0.07813,1.421875 -0.04297,0.4375 -0.117187,0.90625 -0.21875,1.40625 1.738281,-0.988281 3.25,-2.265625 4.53125,-3.828125 1.289063,-1.5625 2.382813,-3.4375 3.28125,-5.625 z m -23.59375,-2.015625 c 0.644531,0.648437 1.113281,1.382813 1.40625,2.203125 0.300781,0.824219 0.453125,1.65625 0.453125,2.5 0,1.835938 -0.59375,3.507812 -1.78125,5.015625 -1.1875,1.511719 -2.875,2.265625 -5.0625,2.265625 -0.25,0 -0.527344,-0.0078 -0.828125,-0.03125 -0.292969,-0.01953 -0.585937,-0.05469 -0.875,-0.109375 0.394531,0.9375 1.113281,1.683594 2.15625,2.234375 1.039063,0.542969 2.179687,0.8125 3.421875,0.8125 1.976562,-0.09375 3.4375,-0.769531 4.375,-2.03125 0.945312,-1.269531 1.421875,-2.773438 1.421875,-4.515625 0,-1.738281 -0.386719,-3.460937 -1.15625,-5.171875 -0.761719,-1.707031 -1.714844,-3.234375 -2.859375,-4.578125 z m 0,0"
               id="path22" /></g></g></g></g></g></svg>
