<?xml version="1.0" encoding="UTF-8" standalone="no"?>
<!-- Created with Inkscape (http://www.inkscape.org/) -->

<svg
   width="81.265663mm"
   height="80.135681mm"
   viewBox="0 0 81.265663 80.135681"
   version="1.1"
   id="svg1"
   xml:space="preserve"
   xmlns="http://www.w3.org/2000/svg"
   xmlns:svg="http://www.w3.org/2000/svg"><defs
     id="defs1"><clipPath
       id="92544ed46a"><path
         d="m 578.55078,308.44141 h 230.25 V 470 h -230.25 z m 0,0"
         clip-rule="nonzero"
         id="path1" /></clipPath><clipPath
       id="f9d40a81c7"><path
         d="m 578.55078,316 h 230.25 v 162 h -230.25 z m 0,0"
         clip-rule="nonzero"
         id="path2" /></clipPath><clipPath
       id="1f25ca1394"><path
         d="m 578.55078,325 h 230.25 v 162 h -230.25 z m 0,0"
         clip-rule="nonzero"
         id="path3" /></clipPath><clipPath
       id="b590af5f72"><path
         d="m 578.55078,333 h 230.25 v 162 h -230.25 z m 0,0"
         clip-rule="nonzero"
         id="path4" /></clipPath><clipPath
       id="5ccf069aff"><path
         d="m 578.55078,341 h 230.25 v 162 h -230.25 z m 0,0"
         clip-rule="nonzero"
         id="path5" /></clipPath><clipPath
       id="60437f29bb"><path
         d="m 578.55078,350 h 230.25 v 162 h -230.25 z m 0,0"
         clip-rule="nonzero"
         id="path6" /></clipPath><clipPath
       id="60fb0bda1d"><path
         d="m 578.55078,358 h 230.25 v 162 h -230.25 z m 0,0"
         clip-rule="nonzero"
         id="path7" /></clipPath><clipPath
       id="4aec992598"><path
         d="m 578.55078,366 h 230.25 v 162 h -230.25 z m 0,0"
         clip-rule="nonzero"
         id="path8" /></clipPath><clipPath
       id="36a2e99a7a"><path
         d="m 578.55078,375 h 230.25 v 160.69141 h -230.25 z m 0,0"
         clip-rule="nonzero"
         id="path9" /></clipPath><clipPath
       id="c6a79e12cf"><path
         d="m 811.07031,276.52344 h 46.875 v 27.45312 h -46.875 z m 0,0"
         clip-rule="nonzero"
         id="path10" /></clipPath><clipPath
       id="938aa423c7"><path
         d="m 839.69922,286.94922 c -16.72266,0.15234 -17.02344,2.47656 -17.625,4.05078 -0.52344,1.5 -1.64844,3.89844 -1.125,4.42578 0.60156,0.52344 2.85156,-1.27734 4.875,-1.65234 3.44922,-0.59766 9.82422,0.45312 13.80078,-0.59766 3.30078,-0.90234 8.77344,-4.27734 8.69922,-4.5 -0.0742,-0.15234 -3.14844,1.42578 -4.64844,1.42578 -1.42578,0 -2.85156,-1.125 -4.27734,-1.35156 -1.42188,-0.14844 -3.07422,0.60156 -4.19922,0.375 -0.89844,-0.14844 -1.57422,-0.52344 -2.25,-1.05078 -0.59766,-0.52344 -1.125,-1.19922 -1.42578,-2.02344 -0.375,-0.97656 -0.44922,-2.55078 -0.0742,-3.60156 0.375,-1.125 1.42578,-2.25 2.32422,-2.84766 0.75,-0.45312 1.72656,-0.60156 2.40234,-0.67578 0.44922,0 0.75,-0.15234 1.19922,0.14844 1.125,0.75 4.05078,5.02734 3.75,6.82422 -0.22656,1.35156 -2.17578,2.85156 -3.60156,3.22656 -1.34766,0.30078 -3.59766,-0.375 -4.64844,-1.19922 -0.89844,-0.67578 -1.42578,-1.80078 -1.64844,-2.85156 -0.22656,-0.97266 0,-2.32422 0.44922,-3.22266 0.44922,-0.97656 1.34766,-1.875 2.32422,-2.32812 0.89844,-0.44922 2.17578,-0.75 3.22656,-0.44922 1.27344,0.30078 3.22266,1.65234 3.75,3 0.59766,1.27734 0.29688,3.60156 -0.375,4.80078 -0.45312,0.97656 -1.57812,1.72656 -2.55078,2.10156 -0.97656,0.29688 -2.25,0.375 -3.30078,0.0742 -0.97656,-0.30078 -2.02344,-1.05078 -2.625,-1.94922 -0.60156,-0.82812 -1.19922,-3 -0.97656,-3.15234 0.30078,-0.14844 4.27734,4.94922 4.05078,5.17578 -0.14844,0.14844 -2.39844,-1.05078 -3.07422,-1.94922 -0.67578,-0.97656 -1.05078,-2.40234 -0.97656,-3.52734 0.15234,-1.125 0.90234,-2.54688 1.65234,-3.29688 0.52344,-0.60156 1.19922,-0.90234 2.09766,-1.20312 1.27734,-0.44922 3,-0.97266 5.02734,-0.82422 3.52344,0.30078 11.09766,2.55078 14.09766,4.57422 1.875,1.27734 3.07812,2.85156 3.60156,4.5 0.44922,1.57812 0.14844,3.67578 -0.52344,5.25 -0.75,1.80078 -2.55078,3.60156 -4.05078,4.875 -1.5,1.20312 -3.07422,1.95312 -4.875,2.85156 -2.02734,0.89844 -4.5,1.875 -6.97656,2.47656 -2.69922,0.59766 -5.47266,0.75 -8.625,0.97266 -3.59766,0.15234 -8.77344,0.15234 -12,-0.0742 -2.25,-0.14844 -4.05078,0 -5.55078,-0.75 -1.42188,-0.75 -2.77344,-2.17578 -3.375,-3.67578 -0.75,-1.64844 -0.52344,-4.19922 -0.29688,-6.14844 0.22266,-2.02734 0.82422,-3.67578 1.64844,-5.77734 1.125,-2.77344 2.77344,-7.5 5.02344,-9.22266 1.80078,-1.35156 3.90234,-1.27734 6.67578,-1.5 4.35156,-0.30078 13.80078,0.0742 16.875,1.34766 1.35156,0.52734 2.02734,1.20312 2.55078,2.02734 0.44922,0.89844 0.67578,2.25 0.44922,3.30078 -0.22266,0.97266 -0.89844,2.09766 -1.72266,2.69922 -0.82812,0.59766 -3.15234,0.89844 -3.15234,0.89844"
         clip-rule="nonzero"
         id="path11" /></clipPath><clipPath
       id="fa9e561bfc"><path
         d="M 0.0703125,0.523438 H 46.945312 V 27.976562 H 0.0703125 Z m 0,0"
         clip-rule="nonzero"
         id="path12" /></clipPath><clipPath
       id="666c0f91a1"><path
         d="M 28.699219,10.949219 C 11.976562,11.101562 11.675781,13.425781 11.074219,15 c -0.523438,1.5 -1.648438,3.898438 -1.125,4.425781 0.601562,0.523438 2.851562,-1.277343 4.875,-1.652343 3.449219,-0.597657 9.824219,0.453124 13.800781,-0.597657 3.300781,-0.902343 8.773438,-4.277343 8.699219,-4.5 -0.07422,-0.152343 -3.148438,1.425781 -4.648438,1.425781 -1.425781,0 -2.851562,-1.125 -4.277343,-1.351562 -1.421876,-0.148438 -3.074219,0.601562 -4.199219,0.375 -0.898438,-0.148438 -1.574219,-0.523438 -2.25,-1.050781 -0.597657,-0.523438 -1.125,-1.199219 -1.425781,-2.023438 -0.375,-0.976562 -0.449219,-2.550781 -0.07422,-3.601562 0.375,-1.125 1.425781,-2.25 2.324219,-2.847657 C 23.523438,3.148438 24.5,3 25.175781,2.925781 c 0.449219,0 0.75,-0.152343 1.199219,0.148438 1.125,0.75 4.050781,5.027343 3.75,6.824219 C 29.898438,11.25 27.949219,12.75 26.523438,13.125 25.175781,13.425781 22.925781,12.75 21.875,11.925781 20.976562,11.25 20.449219,10.125 20.226562,9.074219 20,8.101562 20.226562,6.75 20.675781,5.851562 21.125,4.875 22.023438,3.976562 23,3.523438 c 0.898438,-0.449219 2.175781,-0.75 3.226562,-0.449219 1.273438,0.300781 3.222657,1.652343 3.75,3 0.597657,1.277343 0.296876,3.601562 -0.375,4.800781 -0.453124,0.976562 -1.578124,1.726562 -2.550781,2.101562 -0.976562,0.296876 -2.25,0.375 -3.300781,0.07422 C 22.773438,12.75 21.726562,12 21.125,11.101562 c -0.601562,-0.828124 -1.199219,-3 -0.976562,-3.152343 0.300781,-0.148438 4.277343,4.949219 4.050781,5.175781 C 24.050781,13.273438 21.800781,12.074219 21.125,11.175781 20.449219,10.199219 20.074219,8.773438 20.148438,7.648438 20.300781,6.523438 21.050781,5.101562 21.800781,4.351562 22.324219,3.75 23,3.449219 23.898438,3.148438 c 1.277343,-0.449219 3,-0.972657 5.027343,-0.824219 C 32.449219,2.625 40.023438,4.875 43.023438,6.898438 c 1.875,1.277343 3.078124,2.851562 3.601562,4.5 0.449219,1.578124 0.148438,3.675781 -0.523438,5.25 -0.75,1.800781 -2.550781,3.601562 -4.050781,4.875 -1.5,1.203124 -3.074219,1.953124 -4.875,2.851562 -2.027343,0.898438 -4.5,1.875 -6.976562,2.476562 -2.699219,0.597657 -5.472657,0.75 -8.625,0.972657 -3.597657,0.152343 -8.773438,0.152343 -12,-0.07422 -2.25,-0.148438 -4.050781,0 -5.550781,-0.75 C 2.601562,26.25 1.25,24.824219 0.648438,23.324219 -0.101562,21.675781 0.125,19.125 0.351562,17.175781 0.574219,15.148438 1.175781,13.5 2,11.398438 3.125,8.625 4.773438,3.898438 7.023438,2.175781 8.824219,0.824219 10.925781,0.898438 13.699219,0.675781 18.050781,0.375 27.5,0.75 30.574219,2.023438 c 1.351562,0.527343 2.027343,1.203124 2.550781,2.027343 0.449219,0.898438 0.675781,2.25 0.449219,3.300781 -0.222657,0.972657 -0.898438,2.097657 -1.722657,2.699219 -0.828124,0.597657 -3.152343,0.898438 -3.152343,0.898438"
         clip-rule="nonzero"
         id="path13" /></clipPath><clipPath
       id="3579663817"><rect
         x="0"
         width="47"
         y="0"
         height="28"
         id="rect13" /></clipPath></defs><g
     id="layer1"
     transform="translate(-61.202687,-98.918406)"><g
       id="g1"
       transform="matrix(0.35277778,0,0,0.35277778,-142.89717,-9.9259429)"><g
         clip-path="url(#92544ed46a)"
         id="g14"><path
           fill="#ffffff"
           d="m 578.55078,310.88281 v -2.34765 h 38.43359 l 0.97657,0.008 2.36328,0.0625 c 6.30859,0.2539 12.64453,1.37109 18.73437,3.25781 6.07422,1.92969 11.91797,4.60156 17.26953,8.02344 10.73829,6.78125 19.58204,16.38281 25.52735,27.63281 l 1.08203,2.125 c 0.35156,0.71484 0.67578,1.44141 1.00391,2.16406 0.66796,1.44532 1.23437,2.9375 1.8125,4.42188 1.08203,2.99609 2.03125,6.04687 2.71484,9.16015 0.375,1.54688 0.63672,3.11719 0.91016,4.6836 0.13671,0.78515 0.22265,1.57031 0.32812,2.35937 0.0937,0.78907 0.20703,1.57813 0.26563,2.36328 0.1289,1.57813 0.2539,3.15625 0.27734,4.73047 l 0.043,2.23047 v 0.57031 c 0.004,0.0274 0.008,0.0508 0.008,0.0742 0.004,0.0547 0,0.10547 -0.004,0.15625 0.0117,0.0508 0.0195,0.0977 0.0195,0.14844 -0.0156,0.10156 0.0391,0.18359 0.0234,0.28125 0.0508,0.17578 0.0547,0.35156 0.11719,0.51172 0.0781,0.33594 0.24219,0.64844 0.41406,0.96875 0.39063,0.61719 0.96875,1.23437 1.61719,1.56641 0.0352,0.0351 0.082,0.043 0.12109,0.0625 0.043,0.0195 0.0781,0.0508 0.11719,0.0664 0.0937,0.0156 0.15625,0.0899 0.2461,0.0977 0.15234,0.0859 0.32812,0.10156 0.49218,0.16797 0.0899,-0.004 0.16407,0.0547 0.25391,0.0508 0.0469,0.004 0.0898,0.0195 0.13281,0.0312 0.0469,0 0.0937,0 0.14063,0.008 0.0234,0.008 0.0469,0.0117 0.0664,0.0195 0.0274,0 0.0508,-0.004 0.0742,0 0.0508,0 0.0977,0.004 0.14844,0.0156 0.0508,0 0.10156,-0.008 0.15625,-0.004 0.0234,0 0.0508,0.004 0.0742,0.008 h 0.0195 c 0,0 0.25781,0.008 0.25781,0.008 l 0.59375,0.0117 c 12.60156,0.11719 25.41016,3.64454 36.32031,10.14454 10.9336,6.47265 20.10547,15.75781 26.3711,26.82421 3.16406,5.51172 5.55078,11.48829 7.17969,17.64844 0.78125,3.08985 1.41796,6.21485 1.78906,9.36719 0.21484,1.57812 0.32812,3.15234 0.4375,4.73437 0.0625,0.78907 0.0703,1.57422 0.0977,2.36329 l 0.0273,1.17968 0.0117,1.00782 v 2.99218 c 0,0.0547 0,0.0274 0.004,0.043 0.004,0.0274 0.008,0.0508 0.0117,0.0781 0.004,0.0508 0,0.10156 -0.008,0.15625 0.043,0.1914 0.0195,0.38672 0.0742,0.55468 0.0469,0.35547 0.18359,0.66407 0.3125,0.99219 0.3164,0.6211 0.82422,1.28906 1.46094,1.69922 0.0312,0.0391 0.0742,0.0547 0.11718,0.0781 0.0391,0.0195 0.0742,0.0586 0.11328,0.0781 0.0898,0.0273 0.15625,0.10547 0.24219,0.125 0.15235,0.10156 0.32813,0.14063 0.48047,0.21875 0.33203,0.0937 0.65234,0.20703 1.04297,0.21484 0.0469,0 0.0937,0.008 0.14453,0.0234 0.0508,-0.004 0.10156,-0.0117 0.15625,-0.004 0.0234,0 0.0508,0.004 0.0742,0.008 h 0.0117 c 0,0 0.008,0.004 0.043,0.004 H 788.75 c 0,0 20.16016,0 20.16016,0 v 2.34766 h -30.24219 c 0,0 -5.04297,0 -5.04297,0 h -1.73047 c -0.0312,0 -0.043,0 -0.043,0 h -0.0156 c 0,0 -0.11328,-0.008 -0.11328,-0.008 -0.0781,-0.008 -0.15625,0 -0.23438,0 -0.0742,-0.0117 -0.14844,-0.0195 -0.22266,-0.0234 -0.58984,-0.0273 -1.11328,-0.18359 -1.64062,-0.34766 -0.25391,-0.11328 -0.51953,-0.1914 -0.76172,-0.33984 -0.13672,-0.0469 -0.24219,-0.14844 -0.375,-0.19922 -0.0625,-0.0351 -0.11719,-0.0859 -0.17969,-0.12109 -0.0625,-0.0352 -0.1289,-0.0664 -0.17968,-0.11719 -0.97266,-0.64453 -1.7461,-1.625 -2.23829,-2.62109 -0.22265,-0.51172 -0.42578,-1.02344 -0.5039,-1.57813 -0.0781,-0.27344 -0.0625,-0.5664 -0.10938,-0.86328 0.004,-0.0742 0.008,-0.15234 0.004,-0.23047 l -0.0117,-0.11719 c 0,-0.0195 -0.004,0.004 -0.004,-0.0508 v -2.99218 l -0.0117,-0.98047 -0.0274,-1.14453 c -0.0273,-0.76172 -0.0273,-1.52344 -0.0898,-2.28907 -0.10938,-1.52734 -0.21485,-3.05078 -0.42578,-4.57812 -0.35547,-3.05078 -0.97657,-6.08203 -1.72657,-9.06641 -1.58203,-5.96484 -3.88671,-11.74609 -6.95312,-17.07812 -6.0625,-10.71485 -14.94141,-19.70313 -25.52734,-25.96485 -10.5586,-6.29297 -22.94922,-9.70703 -35.15235,-9.82031 l -0.57422,-0.008 -0.25,-0.008 h -0.0312 c 0,0 -0.11328,-0.0117 -0.11328,-0.0117 -0.0781,-0.008 -0.15625,0 -0.23047,0 -0.0742,-0.0156 -0.14843,-0.0234 -0.22265,-0.0274 h -0.11328 c 0,0 -0.10547,-0.0195 -0.10547,-0.0195 -0.0742,-0.0117 -0.14453,-0.0195 -0.21485,-0.0195 -0.0703,-0.0156 -0.13672,-0.0352 -0.20703,-0.043 -0.14453,0 -0.26562,-0.0742 -0.40625,-0.082 -0.26172,-0.0937 -0.53515,-0.14062 -0.78515,-0.26562 -0.13672,-0.0274 -0.25,-0.1211 -0.38672,-0.15625 -0.0625,-0.0274 -0.1211,-0.0742 -0.1875,-0.10157 -0.0625,-0.0312 -0.12891,-0.0547 -0.1836,-0.10156 -1.00781,-0.53125 -1.88281,-1.4375 -2.48047,-2.40234 -0.27734,-0.5 -0.52734,-0.9961 -0.66015,-1.53125 -0.0937,-0.26172 -0.1211,-0.53907 -0.1836,-0.81641 0.008,-0.14453 -0.0547,-0.27734 -0.0391,-0.43359 -0.004,-0.0742 -0.0156,-0.14844 -0.0273,-0.21875 0.008,-0.0781 0.008,-0.15625 0.004,-0.23438 l -0.0117,-0.11719 v -0.57031 c 0,0 -0.043,-2.16797 -0.043,-2.16797 -0.0234,-1.52343 -0.14844,-3.05078 -0.26953,-4.57812 -0.0547,-0.76172 -0.16797,-1.52735 -0.25782,-2.28906 -0.10156,-0.76172 -0.18359,-1.52344 -0.3164,-2.28516 -0.26172,-1.51563 -0.51953,-3.03125 -0.88282,-4.53125 -0.66015,-3.01563 -1.57812,-5.96484 -2.625,-8.86719 -0.55859,-1.43359 -1.10546,-2.8789 -1.7539,-4.27344 -0.32031,-0.70312 -0.63281,-1.40625 -0.97266,-2.09765 l -1.05078,-2.05469 c -5.75391,-10.89062 -14.30859,-20.18359 -24.70703,-26.74609 -5.17578,-3.31641 -10.83203,-5.89844 -16.71094,-7.76563 -5.89062,-1.82031 -12.02344,-2.90234 -18.13281,-3.15234 l -2.28906,-0.0586 -0.95313,-0.0117 h -38.42578 z m 0,0"
           fill-opacity="1"
           fill-rule="nonzero"
           id="path14" /></g><g
         clip-path="url(#f9d40a81c7)"
         id="g15"><path
           fill="#ffffff"
           d="m 578.55078,319.19531 v -2.35156 h 20.16016 c 0,0 10.08203,0 10.08203,0 h 8.1914 l 0.89454,0.0117 2.09765,0.0547 c 5.59375,0.22656 11.20703,1.21875 16.60156,2.88671 5.375,1.71485 10.5586,4.07422 15.29688,7.10938 9.52344,6.00781 17.36328,14.52734 22.62891,24.49219 l 0.96093,1.88281 c 0.3125,0.63281 0.59375,1.27734 0.88672,1.91797 0.59766,1.27734 1.09375,2.60156 1.60938,3.91797 0.95312,2.65234 1.80078,5.35547 2.40234,8.11328 0.33594,1.37109 0.56641,2.76172 0.80859,4.14844 0.1211,0.69531 0.19922,1.39453 0.28907,2.08984 0.082,0.69922 0.1875,1.39844 0.23828,2.09766 0.10937,1.39453 0.23047,2.79687 0.25,4.19531 l 0.0352,1.99609 v 0.58594 c 0,0 0.0156,0.21094 0.0156,0.21094 0.004,0.14062 0.004,0.28125 0.004,0.42187 0.0117,0.13672 0.0273,0.27735 0.0351,0.41406 0,0.28125 0.0742,0.54297 0.0859,0.81641 0.10156,0.53125 0.17969,1.06641 0.34766,1.57813 0.27734,1.03906 0.73437,2.01953 1.28125,2.96484 1.13671,1.85547 2.76953,3.49609 4.68359,4.53906 0.10937,0.0781 0.23828,0.13281 0.35547,0.19141 0.125,0.0586 0.24219,0.13281 0.35937,0.1875 0.25391,0.0937 0.48828,0.23828 0.7461,0.3125 0.49218,0.22265 1.01172,0.35156 1.52343,0.50781 0.26563,0.0352 0.51954,0.13672 0.79297,0.16406 l 0.39844,0.0742 c 0.13672,0.0117 0.26953,0.0274 0.41016,0.0469 l 0.19922,0.0351 0.21093,0.008 c 0.13672,0.008 0.27735,0.0195 0.41407,0.0391 l 0.42187,0.004 0.21094,0.0117 h 0.0508 c 0,0 0.23437,0.008 0.23437,0.008 l 0.52344,0.008 c 11.1836,0.10547 22.51563,3.22265 32.1875,8.98828 9.69141,5.73437 17.82813,13.96875 23.37891,23.77734 2.80469,4.88672 4.91406,10.17969 6.35937,15.63282 0.6875,2.73828 1.25782,5.50781 1.58203,8.30468 0.19532,1.39453 0.29297,2.79297 0.39063,4.19532 0.0586,0.69921 0.0586,1.39453 0.0859,2.09375 l 0.0234,1.04687 0.0117,0.91797 v 2.99219 c 0,0.0547 0,0.0469 0.004,0.0703 l 0.0117,0.21094 c 0.004,0.14062 0.004,0.28515 0.004,0.42187 0.0586,0.55078 0.0781,1.10547 0.19922,1.63281 0.17188,1.07032 0.53907,2.08204 0.98438,3.0625 0.9375,1.9375 2.40234,3.72657 4.22265,4.95704 0.10547,0.0898 0.22657,0.15625 0.34375,0.22656 0.11719,0.0703 0.22266,0.15625 0.34375,0.22265 0.24219,0.1211 0.46485,0.28516 0.71485,0.39063 0.47265,0.26953 0.98047,0.44922 1.47656,0.65234 1.01563,0.33985 2.05469,0.60938 3.16406,0.67969 0.13672,0.008 0.27735,0.0234 0.41407,0.0391 0.13671,0 0.28125,0 0.42187,0.004 l 0.21094,0.008 c 0.0273,0 0.0117,0.004 0.0742,0.004 h 37.01562 c 0,0 0,2.34765 0,2.34765 h -20.16015 c 0,0 -10.08204,0 -10.08204,0 h -6.61328 c -0.10547,0 -0.22656,0 -0.24218,0 l -0.25,-0.0117 c -0.16407,-0.008 -0.32813,-0.008 -0.4961,-0.008 -0.16406,-0.0156 -0.32812,-0.0312 -0.49219,-0.043 -1.30859,-0.082 -2.55078,-0.39843 -3.76171,-0.80859 -0.59375,-0.23437 -1.19532,-0.46094 -1.75782,-0.77344 -0.29687,-0.1289 -0.5625,-0.32031 -0.85156,-0.46875 -0.13672,-0.0781 -0.26562,-0.17968 -0.40625,-0.26172 -0.13672,-0.0859 -0.28125,-0.16406 -0.40625,-0.26953 -2.15625,-1.46093 -3.89062,-3.57031 -5.00391,-5.875 -0.53515,-1.16797 -0.96484,-2.3789 -1.17187,-3.64843 -0.14063,-0.62891 -0.17188,-1.28125 -0.23438,-1.9336 l -0.008,-0.5 -0.0117,-0.25 c 0,-0.0273 0,-0.0234 0,-0.0781 v -2.99219 l -0.0117,-0.89063 -0.0234,-1.00781 c -0.0234,-0.67578 -0.0234,-1.34765 -0.082,-2.02344 -0.0937,-1.35156 -0.1875,-2.69921 -0.375,-4.04296 -0.3125,-2.69532 -0.86329,-5.36719 -1.52344,-8.00391 -1.39453,-5.25781 -3.42578,-10.35938 -6.13281,-15.0625 -5.34766,-9.45703 -13.19141,-17.39453 -22.53125,-22.92188 -9.32032,-5.55468 -20.23438,-8.55859 -31.01954,-8.66015 l -1.53906,-0.0352 c -0.16406,-0.0195 -0.32812,-0.0351 -0.49219,-0.043 l -0.24609,-0.0117 -0.24219,-0.0391 c -0.16015,-0.0234 -0.32031,-0.0391 -0.48047,-0.0547 l -0.47656,-0.0898 c -0.32031,-0.0352 -0.625,-0.14453 -0.9375,-0.19922 -0.61328,-0.17969 -1.23437,-0.33984 -1.82031,-0.59765 -0.30859,-0.10157 -0.58594,-0.26563 -0.88672,-0.37891 -0.14453,-0.0703 -0.28125,-0.15234 -0.42578,-0.22266 -0.14453,-0.0703 -0.29297,-0.13672 -0.42969,-0.22656 -2.26953,-1.23828 -4.20312,-3.17187 -5.54297,-5.37891 -0.65234,-1.11718 -1.1914,-2.28906 -1.52734,-3.52343 -0.19141,-0.60938 -0.29297,-1.2461 -0.41016,-1.87891 -0.0234,-0.32422 -0.10156,-0.64062 -0.10547,-0.97266 l -0.043,-0.48828 c 0,-0.16797 0,-0.33203 -0.008,-0.5 l -0.0117,-0.25 v -0.58593 c 0,0 -0.0352,-1.92969 -0.0352,-1.92969 -0.0195,-1.34375 -0.13281,-2.69531 -0.23828,-4.04688 -0.0469,-0.67187 -0.14844,-1.34375 -0.23047,-2.01953 -0.0898,-0.67187 -0.16016,-1.34375 -0.27735,-2.01562 -0.23828,-1.33594 -0.45703,-2.67578 -0.78125,-3.9961 -0.57812,-2.65625 -1.39453,-5.26172 -2.3164,-7.82031 -0.4961,-1.26953 -0.97266,-2.54297 -1.54688,-3.77344 -0.28125,-0.62109 -0.55468,-1.24218 -0.85547,-1.85156 l -0.92578,-1.8125 c -5.07812,-9.60547 -12.63281,-17.81641 -21.8125,-23.60937 -4.5664,-2.92969 -9.55859,-5.19922 -14.74218,-6.85157 -5.19532,-1.60547 -10.60157,-2.5625 -15.9961,-2.78125 l -2.01953,-0.0508 -0.87109,-0.0117 h -38.44141 z m 0,0"
           fill-opacity="1"
           fill-rule="nonzero"
           id="path15" /></g><g
         clip-path="url(#1f25ca1394)"
         id="g16"><path
           fill="#ffffff"
           d="m 578.55078,327.50391 v -2.34766 h 20.16016 c 0,0 10.08203,0 10.08203,0 h 7.55859 c 0.67578,-0.0117 2.08594,0.0195 3.26953,0.0586 4.88282,0.19532 9.76953,1.06641 14.46875,2.51563 4.6836,1.49219 9.19922,3.54687 13.33203,6.19531 8.30079,5.23438 15.14063,12.67188 19.73047,21.35938 l 0.83985,1.64062 c 0.27343,0.55078 0.51953,1.11328 0.77343,1.67188 0.51954,1.11328 0.94922,2.26562 1.40235,3.41015 0.82812,2.3125 1.57031,4.66406 2.09375,7.07031 0.29297,1.19532 0.48828,2.40625 0.70312,3.61719 0.10547,0.60547 0.17188,1.21485 0.25391,1.82422 0.0703,0.60547 0.16406,1.21484 0.20312,1.82422 0.0977,1.21875 0.20313,2.44141 0.21875,3.66016 l 0.0352,1.76562 v 0.59766 c 0,0 0.0117,0.34375 0.0117,0.34375 l 0.0156,0.6875 0.0547,0.68359 c 0.0117,0.45703 0.10547,0.90234 0.14844,1.35156 0.15234,0.89453 0.3125,1.78516 0.57812,2.64453 0.47657,1.73829 1.22657,3.39454 2.14454,4.95704 1.875,3.09765 4.5664,5.76171 7.74218,7.51171 0.19141,0.1211 0.39453,0.21875 0.59766,0.32032 0.20312,0.0976 0.39844,0.21484 0.60156,0.30859 0.41797,0.17578 0.81641,0.39063 1.24219,0.53516 0.83203,0.35937 1.69922,0.59765 2.56641,0.84375 0.44531,0.0859 0.875,0.22265 1.32421,0.28125 l 0.66407,0.125 0.67578,0.082 0.33594,0.0469 0.34375,0.0195 0.68359,0.0547 1.78516,0.043 c 9.76171,0.0937 19.62109,2.80859 28.05078,7.83203 8.44531,5 15.55078,12.1836 20.38672,20.73438 2.44531,4.25781 4.28125,8.86718 5.54296,13.62109 0.59766,2.38672 1.09766,4.79688 1.37891,7.23438 0.17188,1.21484 0.25,2.4375 0.33984,3.65625 0.0547,0.60937 0.0508,1.21875 0.0742,1.83203 l 0.0195,0.91406 0.0117,0.82422 v 3.09375 c 0,0 0.0156,0.34375 0.0156,0.34375 l 0.0156,0.6875 c 0.0781,0.91015 0.13672,1.82031 0.32422,2.70312 0.30469,1.78125 0.89844,3.4961 1.65235,5.13672 1.5664,3.2461 3.98828,6.15625 6.99218,8.21485 0.17578,0.14062 0.375,0.25781 0.56641,0.3789 0.19141,0.11719 0.37891,0.25 0.57422,0.36719 0.39844,0.21094 0.77734,0.46484 1.1875,0.65234 0.79687,0.4336 1.63672,0.76172 2.48047,1.08594 1.69922,0.58594 3.46093,1.01172 5.28125,1.14063 l 0.68359,0.0586 0.6875,0.0117 0.34375,0.0156 c 0.0391,0.004 0.15234,0.004 0.26172,0.004 h 36.85547 c 0,0 0,2.34766 0,2.34766 H 788.7577 c 0,0 -10.08203,0 -10.08203,0 h -6.61328 c -0.10938,0 -0.22266,0 -0.26953,-0.004 l -0.38281,-0.0117 -0.76172,-0.0156 L 769.89062,486 c -2.02343,-0.14453 -3.98437,-0.61328 -5.88281,-1.26953 -0.9375,-0.35938 -1.87109,-0.73047 -2.75781,-1.21094 -0.45703,-0.21094 -0.87891,-0.48828 -1.32422,-0.72656 -0.21875,-0.12891 -0.42578,-0.27735 -0.63672,-0.40625 -0.21484,-0.13672 -0.42969,-0.26563 -0.63281,-0.42188 -3.33594,-2.28515 -6.02734,-5.51172 -7.76953,-9.13281 -0.84375,-1.82031 -1.5,-3.73047 -1.84375,-5.71875 -0.20313,-0.98047 -0.27344,-1.99219 -0.35938,-3.00391 l -0.0156,-0.76562 -0.0156,-0.38281 v -0.10547 c 0,0 -0.004,-0.15625 -0.004,-0.15625 v -2.83594 l -0.008,-0.79687 -0.0234,-0.875 c -0.0234,-0.58594 -0.0156,-1.17188 -0.0703,-1.75391 -0.082,-1.17188 -0.16015,-2.34375 -0.32421,-3.50781 -0.26954,-2.33594 -0.75,-4.64844 -1.32032,-6.9336 -1.21093,-4.55078 -2.96484,-8.96875 -5.3125,-13.05078 -4.63281,-8.19531 -11.44531,-15.08203 -19.53906,-19.87109 -8.08203,-4.81641 -17.52344,-7.41406 -26.88281,-7.50391 l -1.88281,-0.0469 -0.75782,-0.0625 -0.3789,-0.0234 -0.375,-0.0508 -0.75,-0.0937 -0.74219,-0.13281 c -0.5,-0.0664 -0.98047,-0.21485 -1.47656,-0.31641 -0.96485,-0.26953 -1.92969,-0.54297 -2.85938,-0.9375 -0.47265,-0.16406 -0.91797,-0.40234 -1.38281,-0.59766 -0.22656,-0.10547 -0.44531,-0.23047 -0.67188,-0.33984 -0.22265,-0.11328 -0.45312,-0.22266 -0.66406,-0.35547 -3.53515,-1.94922 -6.52734,-4.91016 -8.61328,-8.35547 -1.01953,-1.73828 -1.85547,-3.58203 -2.38672,-5.51562 -0.29687,-0.96094 -0.47265,-1.95313 -0.64453,-2.94532 -0.0469,-0.5 -0.14844,-0.99609 -0.16406,-1.50781 l -0.0586,-0.75781 -0.0156,-0.76172 -0.0117,-0.38281 v -0.60156 c 0,0 -0.0352,-1.69922 -0.0352,-1.69922 -0.0117,-1.16797 -0.11718,-2.33985 -0.20703,-3.50782 -0.0351,-0.58203 -0.1289,-1.16796 -0.19531,-1.75 -0.082,-0.58593 -0.14062,-1.16796 -0.24219,-1.74609 -0.20703,-1.16016 -0.39453,-2.32422 -0.67578,-3.46484 -0.5,-2.30469 -1.21094,-4.55469 -2.00781,-6.77344 -0.42969,-1.09766 -0.83984,-2.20313 -1.33984,-3.26953 -0.2461,-0.53125 -0.48047,-1.07422 -0.74219,-1.60156 l -0.80078,-1.57422 c -4.40235,-8.32032 -10.95703,-15.45313 -18.91407,-20.46875 -3.96093,-2.54297 -8.28906,-4.50391 -12.77343,-5.9375 -4.50391,-1.38672 -9.1875,-2.22266 -13.86719,-2.41016 -2.63672,-0.0898 -3.93359,-0.0469 -5.69531,-0.0547 H 578.5506 Z m 0,0"
           fill-opacity="1"
           fill-rule="nonzero"
           id="path16" /></g><g
         clip-path="url(#b590af5f72)"
         id="g17"><path
           fill="#ffffff"
           d="m 578.55078,335.81641 v -2.35157 h 20.16016 c 0,0 10.08203,0 10.08203,0 h 5.03906 c 1.73047,0.0117 3.17578,-0.0273 5.44141,0.0508 4.17187,0.16797 8.33593,0.91407 12.33984,2.14454 3.98828,1.27734 7.83984,3.01562 11.35938,5.28125 7.08593,4.46093 12.92187,10.8164 16.83593,18.21875 l 0.71875,1.39843 c 0.23047,0.46875 0.4375,0.95313 0.65625,1.42578 0.44532,0.94922 0.8086,1.9336 1.19532,2.90625 0.70312,1.97266 1.33984,3.97657 1.78125,6.02344 0.2539,1.01563 0.41796,2.05078 0.60156,3.08203 0.0937,0.51563 0.14062,1.03516 0.21094,1.55469 0.0625,0.51953 0.14843,1.03516 0.17578,1.55859 0.082,1.03907 0.17578,2.08204 0.18359,3.125 l 0.0352,1.52344 v 0.61719 c 0,0 0.0156,0.47656 0.0156,0.47656 l 0.0234,0.95703 0.0742,0.94922 c 0.0273,0.63672 0.14062,1.26172 0.21094,1.89063 0.20703,1.25 0.4414,2.49609 0.80859,3.70703 0.67578,2.4414 1.71875,4.76562 3.00781,6.94922 2.6211,4.33593 6.3711,8.03125 10.8086,10.48828 0.27343,0.16797 0.55468,0.30469 0.83593,0.44922 0.28125,0.14062 0.5586,0.29687 0.84766,0.42968 0.58203,0.25 1.14453,0.53907 1.73828,0.75391 1.16797,0.49219 2.38672,0.84375 3.60547,1.17969 0.62109,0.1289 1.23047,0.30469 1.85547,0.39453 l 0.9375,0.16797 0.9414,0.11719 0.47266,0.0664 0.47266,0.0312 0.95312,0.0742 2.12891,0.0547 c 8.33984,0.082 16.72265,2.39062 23.91406,6.67578 7.20313,4.26172 13.27344,10.39453 17.39063,17.6875 2.09375,3.625 3.64453,7.55859 4.72656,11.60547 0.5,2.03515 0.9375,4.08594 1.17187,6.16797 0.15235,1.03515 0.21485,2.08203 0.29297,3.12109 0.0469,0.52344 0.0391,1.04297 0.0586,1.5625 l 0.0195,0.78125 c 0.004,0.25391 0.0117,0.54688 0.0117,0.73438 v 3.12109 c 0,0 0.0156,0.47656 0.0156,0.47656 l 0.0234,0.95703 c 0.0937,1.26563 0.19531,2.53516 0.44922,3.77735 0.4375,2.49609 1.2539,4.91015 2.32422,7.20312 2.1875,4.5625 5.5664,8.59766 9.7539,11.47266 0.25391,0.1914 0.52344,0.35937 0.79297,0.52734 0.26953,0.16797 0.52734,0.35156 0.80469,0.51172 0.55078,0.30469 1.08984,0.64453 1.66406,0.91797 1.11328,0.59766 2.28906,1.07422 3.47266,1.51953 2.38672,0.83203 4.87109,1.41406 7.40625,1.60547 l 0.94922,0.0742 0.95703,0.0195 0.47656,0.0156 h 0.28516 c 0,0 0.3164,0 0.3164,0 h 36.54297 c 0,0 0,2.35157 0,2.35157 h -20.16406 c 0,0 -10.08203,0 -10.08203,0 h -6.29688 c -0.19922,0 -0.4414,0 -0.60937,-0.004 l -0.51563,-0.0117 -1.03125,-0.0273 -1.02344,-0.0781 c -2.73828,-0.20703 -5.42187,-0.83203 -8,-1.73437 -1.28125,-0.48047 -2.55078,-0.9961 -3.76171,-1.64453 -0.61329,-0.29297 -1.19532,-0.66016 -1.79297,-0.99219 -0.29688,-0.17578 -0.57813,-0.37109 -0.8711,-0.55078 -0.28515,-0.1836 -0.57812,-0.36719 -0.85547,-0.57031 -4.51953,-3.10938 -8.16796,-7.46094 -10.53515,-12.39063 -1.15625,-2.48047 -2.03906,-5.08984 -2.51172,-7.78906 -0.26953,-1.34375 -0.38281,-2.71094 -0.48828,-4.07813 l -0.0352,-1.54687 c -0.008,-0.16016 0,-0.40625 -0.004,-0.60547 v -2.51953 c 0,-0.19141 -0.008,-0.46485 -0.0117,-0.70703 l -0.0195,-0.7461 c -0.0195,-0.49609 -0.0117,-0.99218 -0.0586,-1.48828 -0.0742,-0.99219 -0.13281,-1.98437 -0.27734,-2.96875 -0.21875,-1.97656 -0.63281,-3.92969 -1.10938,-5.86328 -1.03125,-3.85156 -2.50781,-7.58984 -4.49609,-11.03906 -3.91797,-6.9375 -9.69531,-12.77344 -16.54688,-16.82813 -6.83984,-4.07812 -14.80859,-6.26953 -22.74609,-6.34765 l -2.22656,-0.0586 -1.02735,-0.0781 -0.51171,-0.0391 -0.50782,-0.0664 -1.01953,-0.12891 -1.01172,-0.17968 c -0.67968,-0.10157 -1.33984,-0.29297 -2.00781,-0.42969 -1.32031,-0.35938 -2.63281,-0.7461 -3.89453,-1.27735 -0.64453,-0.23046 -1.25781,-0.54296 -1.88281,-0.8125 -0.3125,-0.14453 -0.60938,-0.3125 -0.91797,-0.46484 -0.30469,-0.15234 -0.60938,-0.30469 -0.90235,-0.48437 -4.79687,-2.65625 -8.84375,-6.64063 -11.67578,-11.32422 -1.39062,-2.35938 -2.52343,-4.875 -3.2539,-7.51172 -0.39453,-1.3125 -0.64844,-2.65625 -0.875,-4.00781 -0.0742,-0.6836 -0.19532,-1.35547 -0.22657,-2.04297 l -0.0781,-1.02344 -0.0273,-1.03125 -0.0117,-0.51563 v -0.61718 c 0,0 -0.0352,-1.46094 -0.0352,-1.46094 -0.008,-0.99219 -0.0977,-1.98438 -0.17187,-2.97266 -0.0274,-0.49609 -0.11329,-0.99218 -0.16797,-1.48437 -0.0703,-0.49219 -0.11719,-0.98828 -0.20313,-1.47656 -0.17969,-0.98047 -0.32812,-1.96485 -0.57422,-2.92969 -0.41797,-1.94922 -1.02343,-3.85156 -1.69531,-5.73047 -0.36719,-0.92578 -0.70703,-1.86328 -1.13672,-2.76172 -0.20703,-0.45312 -0.40234,-0.91016 -0.625,-1.35937 l -0.67969,-1.32813 c -3.72265,-7.03906 -9.27734,-13.08984 -16.01562,-17.33594 -3.34766,-2.15234 -7.01172,-3.80468 -10.80469,-5.02343 -3.80859,-1.17188 -7.76562,-1.87891 -11.73437,-2.03907 -2.1211,-0.0742 -3.625,-0.043 -5.34375,-0.0508 h -35.28516 z m 0,0"
           fill-opacity="1"
           fill-rule="nonzero"
           id="path17" /></g><g
         clip-path="url(#5ccf069aff)"
         id="g18"><path
           fill="#ffffff"
           d="m 578.55078,344.125 v -2.34766 h 20.16016 c 0,0 10.08203,0 10.08203,0 h 5.03906 c 1.6875,0.008 3.33984,-0.0195 5.09375,0.043 3.45703,0.13672 6.89063,0.75781 10.20313,1.77344 3.29687,1.05859 6.48046,2.49219 9.39062,4.36719 5.86328,3.6914 10.70313,8.96484 13.9375,15.08203 l 0.58984,1.15625 c 0.19141,0.38672 0.36329,0.78906 0.54297,1.17969 0.375,0.78125 0.66797,1.59765 0.99219,2.40234 0.57813,1.62891 1.10938,3.28125 1.46875,4.97656 0.21484,0.83985 0.34375,1.69531 0.5,2.55078 0.0781,0.42188 0.11719,0.85547 0.17578,1.28516 0.0508,0.42969 0.125,0.85547 0.14453,1.28906 0.0625,0.86328 0.14844,1.72266 0.15235,2.58985 l 0.0469,2.53125 c 0.0899,6.51953 1.95703,12.99218 5.30469,18.57812 3.36719,5.57813 8.17187,10.30078 13.875,13.46484 0.34766,0.21094 0.71094,0.39063 1.07422,0.57813 0.36719,0.18359 0.72265,0.375 1.09375,0.55078 0.74609,0.32813 1.47265,0.6875 2.23828,0.97266 1.50391,0.625 3.07031,1.08984 4.64062,1.51562 3.17579,0.78125 6.39454,1.17578 9.71094,1.16016 6.91797,0.0742 13.82813,1.97656 19.77735,5.51953 5.95703,3.52734 10.99218,8.60937 14.39843,14.64453 1.73047,2.99609 3.00782,6.24609 3.90625,9.58984 0.86328,3.35157 1.29297,6.82032 1.28516,10.26954 v 2.51953 c 0,0.84375 0.0352,1.64062 0.0547,2.46093 0.11328,1.625 0.25781,3.25 0.57812,4.84766 0.5625,3.21094 1.60938,6.32422 2.98828,9.27344 2.8125,5.875 7.14844,11.03125 12.52344,14.72656 0.32422,0.24609 0.67188,0.46094 1.01563,0.67969 0.34765,0.21875 0.68359,0.44922 1.03515,0.65234 0.71094,0.40235 1.40235,0.82813 2.13281,1.1836 1.44141,0.76562 2.95313,1.38671 4.47657,1.95703 3.07031,1.08203 6.26953,1.82031 9.51953,2.0664 l 1.22265,0.0937 1.22266,0.0312 c 0.80078,0.0312 1.66406,0.0156 2.49609,0.0195 h 35.28516 c 0,0 0,2.34766 0,2.34766 h -20.16406 c 0,0 -10.08203,0 -10.08203,0 h -5.03907 c -0.84375,-0.004 -1.66796,0.0156 -2.54296,-0.0195 l -1.29297,-0.0312 -1.29688,-0.0977 c -3.45312,-0.26562 -6.85547,-1.04687 -10.12109,-2.19531 -1.6211,-0.60547 -3.22656,-1.26562 -4.75781,-2.08203 -0.77735,-0.37891 -1.51563,-0.83203 -2.26954,-1.25781 -0.37109,-0.21875 -0.73046,-0.46485 -1.09375,-0.69532 -0.36718,-0.23046 -0.73437,-0.46093 -1.08203,-0.71875 -5.70703,-3.92968 -10.3125,-9.40625 -13.30078,-15.64843 -1.46875,-3.13282 -2.57812,-6.44922 -3.17969,-9.85938 -0.33984,-1.69922 -0.49609,-3.42578 -0.61328,-5.15234 -0.0195,-0.85938 -0.0586,-1.74219 -0.0586,-2.57813 v -2.51953 c 0.004,-3.27344 -0.40234,-6.51953 -1.21094,-9.67969 -0.84765,-3.14453 -2.04297,-6.20312 -3.67578,-9.02343 -3.20312,-5.67969 -7.94922,-10.46485 -13.55469,-13.78516 -5.59765,-3.33594 -12.09375,-5.12109 -18.60937,-5.19141 -3.41016,0.0156 -6.91016,-0.39843 -10.25781,-1.23437 -1.67188,-0.44922 -3.33594,-0.94922 -4.9336,-1.60938 -0.8164,-0.30468 -1.58984,-0.68359 -2.38281,-1.03515 -0.39453,-0.1836 -0.77344,-0.39063 -1.16016,-0.58203 -0.38672,-0.19922 -0.77343,-0.39453 -1.14453,-0.61719 -6.05859,-3.36328 -11.16406,-8.375 -14.73828,-14.29688 -3.55859,-5.9375 -5.54297,-12.82421 -5.64062,-19.75 l -0.0469,-2.50781 c 0,-0.8164 -0.0859,-1.6289 -0.14062,-2.4375 -0.0195,-0.41015 -0.0937,-0.80859 -0.13672,-1.21484 -0.0586,-0.40235 -0.0937,-0.8086 -0.16797,-1.21094 -0.14453,-0.80078 -0.26563,-1.60937 -0.46875,-2.39844 -0.33985,-1.59375 -0.83985,-3.14453 -1.38281,-4.67968 -0.3086,-0.75391 -0.57813,-1.52344 -0.92969,-2.25782 -0.16797,-0.37109 -0.32813,-0.74609 -0.50781,-1.11328 l -0.5586,-1.08594 c -3.04297,-5.76171 -7.59765,-10.72265 -13.11719,-14.19531 -2.74218,-1.76953 -5.73828,-3.11328 -8.83593,-4.11328 -3.11328,-0.95312 -6.34375,-1.53906 -9.60157,-1.66797 -1.60546,-0.0586 -3.3164,-0.0351 -4.99218,-0.0391 z m 0,0"
           fill-opacity="1"
           fill-rule="nonzero"
           id="path18" /></g><g
         clip-path="url(#60437f29bb)"
         id="g19"><path
           fill="#ffffff"
           d="m 578.55078,352.4375 v -2.34766 h 30.24219 c 0,0 5.03906,0 5.03906,0 1.64453,0 3.50391,-0.0156 4.74219,0.0352 2.74609,0.10547 5.45703,0.60156 8.07031,1.39844 2.59766,0.84375 5.12109,1.96484 7.42578,3.45703 4.64063,2.91406 8.48047,7.10547 11.03516,11.94531 l 0.46875,0.91016 c 0.15625,0.30859 0.28515,0.625 0.42969,0.93359 0.29687,0.61719 0.51953,1.26172 0.78125,1.89844 0.45312,1.28906 0.8789,2.58984 1.16015,3.92969 0.17188,0.66406 0.26563,1.33984 0.39453,2.01562 0.0664,0.33594 0.0899,0.67969 0.13672,1.01563 0.0352,0.33984 0.10156,0.67578 0.11719,1.01953 0.0469,0.68359 0.12109,1.36718 0.11719,2.05468 l 0.0234,1.0586 v 0.64453 c 0,0 0.0195,0.74609 0.0195,0.74609 0.10937,7.94532 2.39453,15.88282 6.49218,22.70703 4.10938,6.81641 9.97266,12.56641 16.9375,16.4375 0.42578,0.25391 0.8711,0.47657 1.31641,0.70704 0.44531,0.22265 0.88281,0.46093 1.33594,0.67187 0.91015,0.40234 1.80468,0.83984 2.73828,1.1875 1.84375,0.75781 3.75781,1.33984 5.67969,1.85156 0.97265,0.22266 1.9375,0.47657 2.92187,0.63282 l 1.46875,0.25781 1.48047,0.1875 0.74219,0.0937 0.74218,0.0586 1.48438,0.11328 2.8125,0.0742 c 2.75,0.0469 5.48437,0.39844 8.11719,1.15625 1.32422,0.34375 2.60547,0.83594 3.87109,1.34766 1.25,0.55469 2.48438,1.15234 3.66016,1.85937 4.71093,2.78907 8.71484,6.82032 11.40234,11.59766 1.375,2.37109 2.375,4.94531 3.08984,7.58203 0.31641,1.32813 0.61719,2.66406 0.76172,4.03125 0.10547,0.67578 0.13282,1.36328 0.19141,2.04688 0.0391,0.33984 0.0234,0.6875 0.0391,1.03125 l 0.0117,0.51562 c 0.004,0.17578 0.0156,0.32422 0.0117,0.55078 v 3.17578 c 0,0 0.0195,0.74219 0.0195,0.74219 l 0.043,1.48828 c 0.13281,1.98438 0.31641,3.96875 0.69922,5.92578 0.69531,3.92188 1.96875,7.73828 3.66015,11.34375 3.4375,7.1836 8.72657,13.46485 15.28516,17.98438 0.39844,0.29297 0.82031,0.55859 1.24219,0.82812 0.41797,0.26563 0.83203,0.53907 1.26172,0.79688 0.86328,0.49219 1.71484,1.01172 2.60937,1.44531 1.75781,0.93359 3.60156,1.69922 5.46875,2.39063 3.75781,1.32812 7.67969,2.22265 11.64453,2.52343 l 1.48438,0.11328 1.49219,0.043 0.74218,0.0156 h 0.65235 c 0,0 1.26172,0.004 1.26172,0.004 h 35.28515 v 2.34766 h -37.20312 c 0,0 -0.78125,-0.0234 -0.78125,-0.0234 l -1.5625,-0.043 -1.5625,-0.11328 c -4.16797,-0.32422 -8.29297,-1.25781 -12.24219,-2.65625 -1.96094,-0.73047 -3.89844,-1.53515 -5.75391,-2.51562 -0.9414,-0.46094 -1.83593,-1.00391 -2.74218,-1.52344 -0.44922,-0.26562 -0.88672,-0.55469 -1.32813,-0.83594 -0.44141,-0.28125 -0.88281,-0.5625 -1.30469,-0.87109 -6.89062,-4.75 -12.45312,-11.34766 -16.0664,-18.90625 -1.77735,-3.78906 -3.11719,-7.80078 -3.84766,-11.92578 -0.40234,-2.05469 -0.60156,-4.14063 -0.73828,-6.22656 l -0.043,-1.5625 -0.0156,-0.78125 V 462.375 c 0,0 -0.004,-2.51953 -0.004,-2.51953 0,-0.23047 -0.004,-0.35938 -0.0117,-0.52344 l -0.0117,-0.48047 c -0.0156,-0.3164 0,-0.63672 -0.0351,-0.95312 -0.0547,-0.63282 -0.082,-1.26953 -0.17969,-1.89453 -0.13281,-1.26563 -0.41016,-2.5 -0.70313,-3.73047 -0.66406,-2.44141 -1.58593,-4.81641 -2.85937,-7.01172 -2.48828,-4.42188 -6.19922,-8.15235 -10.55469,-10.73828 -1.08594,-0.65625 -2.23047,-1.20313 -3.38672,-1.72266 -1.17187,-0.46875 -2.35547,-0.92969 -3.58203,-1.24609 -2.42969,-0.70313 -4.96094,-1.02344 -7.51172,-1.07032 l -2.91015,-0.0781 -1.5586,-0.11719 -0.78125,-0.0625 -0.78125,-0.0976 -1.55469,-0.19922 -1.54687,-0.26953 c -1.03516,-0.16407 -2.04688,-0.4336 -3.07031,-0.66407 -2.02344,-0.53906 -4.03125,-1.14843 -5.97266,-1.94922 -0.98047,-0.36718 -1.92578,-0.82031 -2.88281,-1.25 -0.47266,-0.22265 -0.9336,-0.46875 -1.40235,-0.70703 -0.46484,-0.23828 -0.93359,-0.47656 -1.38281,-0.74609 -7.32031,-4.07031 -13.48047,-10.10547 -17.80078,-17.27344 -4.30859,-7.17187 -6.71094,-15.53125 -6.82812,-23.8789 l -0.0156,-0.78125 v -0.64454 c 0,0 -0.0273,-0.99218 -0.0273,-0.99218 0.004,-0.64063 -0.0664,-1.26953 -0.10938,-1.90625 -0.0117,-0.31641 -0.0742,-0.62891 -0.10937,-0.94532 -0.0469,-0.3125 -0.0664,-0.6289 -0.125,-0.9414 -0.1211,-0.625 -0.20703,-1.25 -0.36719,-1.86719 -0.25781,-1.23828 -0.65625,-2.44141 -1.07031,-3.63672 -0.24219,-0.58203 -0.44532,-1.18359 -0.72266,-1.7539 -0.13672,-0.28516 -0.25391,-0.58204 -0.39453,-0.86329 l -0.43359,-0.84375 c -2.36719,-4.47656 -5.92188,-8.35937 -10.22266,-11.05859 -2.12891,-1.37891 -4.46094,-2.41406 -6.86719,-3.19531 -2.41797,-0.73438 -4.92578,-1.19531 -7.46875,-1.29297 -1.09375,-0.0469 -3.00781,-0.0312 -4.63672,-0.0352 h -15.12109 c 0,0 -20.16016,0 -20.16016,0 z m 0,0"
           fill-opacity="1"
           fill-rule="nonzero"
           id="path19" /></g><g
         clip-path="url(#60fb0bda1d)"
         id="g20"><path
           fill="#ffffff"
           d="m 578.55078,360.75 v -2.35156 h 30.24219 c 0,0 5.03906,0 5.03906,0 1.60156,0 3.66797,-0.008 4.39063,0.0273 2.03515,0.082 4.01953,0.44922 5.9414,1.03125 1.90235,0.625 3.75781,1.4375 5.44922,2.53906 3.42578,2.14453 6.26172,5.25391 8.14063,8.8086 l 0.34765,0.67187 c 0.11328,0.22266 0.20313,0.45703 0.3125,0.6836 0.22266,0.44921 0.37891,0.92968 0.57422,1.39453 0.32813,0.94531 0.64844,1.89843 0.85156,2.88281 0.12891,0.48828 0.19141,0.98828 0.29297,1.48047 0.0469,0.25 0.0625,0.5039 0.0977,0.75 0.0234,0.25 0.082,0.5 0.0859,0.7539 0.0312,0.50782 0.0937,1.00782 0.0898,1.51954 l 0.0234,0.82421 v 0.65625 c 0,0 0.0156,0.87891 0.0156,0.87891 0.12891,9.36719 2.83203,18.77734 7.67578,26.83594 4.85157,8.05469 11.76953,14.83203 20,19.41015 0.50782,0.29688 1.03125,0.56641 1.55469,0.83594 0.52344,0.26563 1.04297,0.54297 1.57422,0.78906 1.07422,0.48829 2.13672,0.99219 3.24219,1.41016 2.17968,0.89453 4.4414,1.58594 6.71484,2.19141 1.14844,0.26172 2.29297,0.55859 3.45313,0.74609 l 1.73828,0.30469 1.75,0.22265 0.875,0.10938 0.875,0.0703 1.7539,0.12891 c 0.58594,0.0273 1.17188,0.0391 1.75391,0.0547 l 1.40234,0.0312 c 2.03907,0.0391 4.05078,0.29296 5.98047,0.85156 0.97266,0.24609 1.90625,0.61719 2.83985,0.98828 0.91796,0.41406 1.82812,0.84375 2.6914,1.36719 3.46485,2.05468 6.4336,5.03515 8.41016,8.55468 1.01562,1.7461 1.73828,3.63282 2.26953,5.56641 0.22656,0.97656 0.45703,1.95703 0.55859,2.96094 0.082,0.5 0.0977,1.00781 0.14453,1.51172 0.0312,0.2539 0.0117,0.51172 0.0273,0.76172 l 0.0117,0.38281 c 0,0.13672 0.0117,0.21094 0.0117,0.46094 v 3.19921 c 0,0 0.0195,0.87891 0.0195,0.87891 l 0.0508,1.75391 c 0.15625,2.33984 0.3789,4.67968 0.82812,6.99609 0.82813,4.63672 2.32813,9.15234 4.32813,13.41016 4.0625,8.49609 10.3125,15.90234 18.05078,21.24218 0.47656,0.34375 0.97266,0.66407 1.46484,0.97657 0.4961,0.3164 0.98828,0.64062 1.49219,0.9414 1.01953,0.58594 2.02734,1.19141 3.08203,1.71485 2.08203,1.09765 4.26172,2.00781 6.46875,2.82422 4.44141,1.57421 9.08203,2.62109 13.76563,2.98828 l 1.7539,0.1289 1.75391,0.0508 0.875,0.0156 h 0.67969 c 0,0 1.25781,0.004 1.25781,0.004 h 15.12109 c 0,0 20.16016,0 20.16016,0 v 2.35156 h -30.24219 c 0,0 -5.03906,0 -5.03906,0 h -1.94531 c 0,0 -0.91407,-0.0234 -0.91407,-0.0234 l -1.83203,-0.0508 -1.83203,-0.13672 c -4.88281,-0.38281 -9.73047,-1.47266 -14.36328,-3.11719 -2.30469,-0.85156 -4.57812,-1.80468 -6.75,-2.94922 -1.10156,-0.54687 -2.15625,-1.17578 -3.21875,-1.78906 -0.52734,-0.3125 -1.03906,-0.65234 -1.55469,-0.98047 -0.51562,-0.33203 -1.03515,-0.66406 -1.53125,-1.02343 -8.07422,-5.57032 -14.59765,-13.29297 -18.83203,-22.16016 -2.08984,-4.44531 -3.65234,-9.16016 -4.51562,-14 -0.46875,-2.41406 -0.70703,-4.85938 -0.86328,-7.30078 l -0.0547,-1.82813 -0.0195,-0.91797 v -0.6875 c 0,0 -0.004,-2.51953 -0.004,-2.51953 0,-0.25 -0.004,-0.30468 -0.0117,-0.43359 l -0.0117,-0.34766 c -0.008,-0.22656 0.008,-0.46093 -0.0234,-0.6875 -0.043,-0.45703 -0.0508,-0.91406 -0.12891,-1.35937 -0.0898,-0.90625 -0.29688,-1.78516 -0.5,-2.66016 -0.47656,-1.73828 -1.12109,-3.43359 -2.03906,-5 -1.76953,-3.16015 -4.44922,-5.84375 -7.5625,-7.6914 -0.77344,-0.47657 -1.59375,-0.85547 -2.41407,-1.23047 -0.83984,-0.32813 -1.67578,-0.66407 -2.55078,-0.88282 -1.73047,-0.50781 -3.53906,-0.72656 -5.375,-0.76562 l -0.17578,-0.008 -0.33203,-0.008 -0.91797,-0.0195 c -0.60937,-0.0156 -1.21875,-0.0273 -1.82812,-0.0547 l -1.83203,-0.13672 -0.91407,-0.0742 -0.91406,-0.11328 -1.82422,-0.23438 c -0.60937,-0.0937 -1.21484,-0.20703 -1.8164,-0.3164 -1.21094,-0.19532 -2.40235,-0.50391 -3.60157,-0.78125 -2.375,-0.625 -4.73437,-1.34766 -7.00781,-2.28516 -1.15234,-0.43359 -2.26172,-0.96094 -3.38281,-1.46875 -0.55469,-0.26172 -1.09766,-0.54688 -1.64453,-0.82813 -0.54297,-0.27734 -1.09375,-0.5625 -1.6211,-0.87109 -8.58593,-4.77734 -15.80468,-11.84375 -20.86718,-20.25 -5.05469,-8.40625 -7.875,-18.23437 -8.00782,-28.00391 l -0.0195,-0.91796 V 381.75 c 0,0 -0.0234,-0.75781 -0.0234,-0.75781 0.0117,-0.46485 -0.0508,-0.91407 -0.0742,-1.3711 -0.004,-0.23047 -0.0586,-0.44922 -0.082,-0.67578 -0.0312,-0.22656 -0.043,-0.45312 -0.0859,-0.67578 -0.0899,-0.44141 -0.14453,-0.89453 -0.26172,-1.32812 -0.17969,-0.88672 -0.47266,-1.73829 -0.76172,-2.58985 -0.18359,-0.41406 -0.3125,-0.84375 -0.51953,-1.25 -0.0977,-0.20312 -0.17969,-0.41406 -0.28125,-0.61719 l -0.3125,-0.60546 c -1.69141,-3.19141 -4.24219,-5.99219 -7.32422,-7.92188 -1.51953,-0.99219 -3.1875,-1.71875 -4.89453,-2.28125 -1.72266,-0.51562 -3.50391,-0.85156 -5.33985,-0.92187 -0.49218,0 -0.76171,-0.0352 -1.76953,-0.0274 h -17.64062 c 0,0 -20.16016,0 -20.16016,0 z m 0,0"
           fill-opacity="1"
           fill-rule="nonzero"
           id="path20" /></g><g
         clip-path="url(#4aec992598)"
         id="g21"><path
           fill="#ffffff"
           d="m 578.55078,369.05859 v -2.34765 l 39.31641,0.0234 c 1.32422,0.0469 2.58203,0.29297 3.8125,0.65235 1.20703,0.41015 2.39843,0.91406 3.48437,1.6289 2.20313,1.3711 4.03906,3.39844 5.24219,5.66797 0.0703,0.14844 0.14453,0.28907 0.22266,0.42969 0.0742,0.14063 0.125,0.29688 0.19531,0.4375 0.15234,0.28516 0.23828,0.59375 0.37109,0.88672 0.19922,0.60547 0.41797,1.20703 0.53906,1.83984 0.0937,0.30469 0.11719,0.62891 0.1875,0.94532 0.0352,0.15625 0.0352,0.32031 0.0625,0.48046 0.0117,0.16407 0.0586,0.32032 0.0547,0.48438 0.0156,0.33203 0.0664,0.65234 0.0547,0.98828 l 0.008,0.25 0.008,0.12109 v 0.0664 c 0,0 0.004,0.15234 0.004,0.15234 v 0.67188 c 0,0 0.0195,1.01172 0.0195,1.01172 0.14844,10.78906 3.26563,21.67578 8.85547,30.96875 5.59766,9.29297 13.57422,17.09375 23.06641,22.38281 0.58984,0.34375 1.1914,0.65625 1.79297,0.96484 0.60546,0.3086 1.20703,0.625 1.82031,0.91407 1.23828,0.5625 2.46875,1.14453 3.73828,1.6289 2.51953,1.03125 5.12891,1.83594 7.75781,2.52735 1.32422,0.30859 2.64453,0.64453 3.98438,0.86328 0.66797,0.12109 1.33593,0.24219 2.00781,0.34765 l 2.01562,0.26563 1.00782,0.12109 1.01172,0.082 2.02343,0.14844 c 0.67578,0.0312 1.34766,0.0469 2.01953,0.0625 l 1.01172,0.0195 0.25391,0.008 h 0.0859 c 0,0 0.125,0.0117 0.125,0.0117 1.32812,0.0274 2.61328,0.17969 3.84375,0.54297 0.62109,0.14844 1.21093,0.40235 1.80859,0.62891 0.58203,0.26953 1.16797,0.53516 1.71875,0.87891 2.22266,1.3164 4.16016,3.25 5.41406,5.50781 0.66016,1.11328 1.10547,2.32031 1.45313,3.55078 0.13672,0.625 0.29687,1.24609 0.35547,1.89453 0.0586,0.32031 0.0586,0.65234 0.0937,0.97266 0.0273,0.16406 0.004,0.33203 0.0156,0.49609 l 0.008,0.25 c 0.004,0.10156 0.0117,0.10547 0.008,0.37109 v 3.23047 c 0,0 0.0234,1.01172 0.0234,1.01172 l 0.0625,2.01953 c 0.16797,2.69532 0.4375,5.39453 0.95313,8.07032 0.95703,5.34765 2.68359,10.5664 5,15.48046 4.68359,9.8086 11.89062,18.33985 20.81641,24.5 0.54687,0.39844 1.11718,0.76563 1.6875,1.12891 0.57421,0.36328 1.13671,0.73828 1.72265,1.08203 1.17188,0.67969 2.33985,1.375 3.5586,1.97656 2.40234,1.26563 4.91796,2.32422 7.46484,3.26172 5.125,1.82032 10.48828,3.02344 15.88672,3.44922 l 2.02344,0.14844 2.01953,0.0586 1.01172,0.0195 h 0.69921 c 0,0 1.26172,0.004 1.26172,0.004 h 35.28516 c 0,0 0,2.34766 0,2.34766 h -20.16406 c 0,0 -10.07813,0 -10.07813,0 h -7.01172 c 0,0 -1.04687,-0.0234 -1.04687,-0.0234 l -2.09766,-0.0625 -2.09765,-0.15234 c -5.59766,-0.44141 -11.16407,-1.69141 -16.48438,-3.58204 -2.64844,-0.97265 -5.25391,-2.07031 -7.74609,-3.38281 -1.26563,-0.6289 -2.47657,-1.34765 -3.69532,-2.05469 -0.60546,-0.35937 -1.1914,-0.74609 -1.78515,-1.125 -0.59375,-0.3789 -1.1836,-0.76171 -1.75391,-1.17187 -9.26172,-6.39453 -16.73828,-15.23828 -21.59765,-25.41797 -2.40625,-5.09766 -4.19532,-10.51562 -5.19141,-16.07031 -0.53125,-2.76953 -0.8125,-5.57031 -0.98828,-8.3711 l -0.0625,-2.09765 -0.0234,-1.04688 V 462.375 c 0,0 0,-2.51953 0,-2.51953 0,-0.27344 -0.008,-0.25391 -0.008,-0.34375 l -0.0117,-0.21094 c -0.008,-0.14062 0.0156,-0.28516 -0.0117,-0.41797 -0.0312,-0.27734 -0.0273,-0.55859 -0.0781,-0.82422 -0.0469,-0.54687 -0.1875,-1.07031 -0.29688,-1.59375 -0.29687,-1.03125 -0.66406,-2.04687 -1.22266,-2.98437 -1.05468,-1.90625 -2.69921,-3.53906 -4.57031,-4.64844 -0.46484,-0.28906 -0.96094,-0.50781 -1.44531,-0.73828 -0.50391,-0.1875 -0.99609,-0.40234 -1.51953,-0.52344 -1.03125,-0.30859 -2.11328,-0.42969 -3.24219,-0.45703 l -0.10547,-0.004 h -0.082 c 0,0 -0.26172,-0.0117 -0.26172,-0.0117 l -1.04687,-0.0195 c -0.69922,-0.0195 -1.39844,-0.0351 -2.09766,-0.0664 l -2.10156,-0.15235 -1.05078,-0.0898 -1.04688,-0.125 -2.08984,-0.26953 c -0.69531,-0.11328 -1.39063,-0.23828 -2.08203,-0.35938 -1.39063,-0.23046 -2.76172,-0.57812 -4.13672,-0.89843 -2.72656,-0.71875 -5.42969,-1.55469 -8.04688,-2.6211 -1.3164,-0.5039 -2.59375,-1.10547 -3.8789,-1.6914 -0.63672,-0.30078 -1.26172,-0.625 -1.88672,-0.94532 -0.62891,-0.32421 -1.25391,-0.64453 -1.86328,-1.0039 -9.84766,-5.48438 -18.125,-13.57813 -23.92969,-23.22266 -5.80469,-9.64062 -9.03906,-20.9414 -9.19141,-32.13281 l -0.0195,-1.04688 v -0.67578 c 0,0 0,-0.15625 0,-0.15625 v -0.0508 c 0,0 -0.0117,-0.10547 -0.0117,-0.10547 l -0.008,-0.21093 c 0.0117,-0.28516 -0.0352,-0.5586 -0.043,-0.83594 0.004,-0.13672 -0.0391,-0.26953 -0.0508,-0.40625 -0.0234,-0.13672 -0.0195,-0.27344 -0.0508,-0.40625 -0.0664,-0.26172 -0.082,-0.53906 -0.16016,-0.79688 -0.0976,-0.53125 -0.28906,-1.03125 -0.44922,-1.54297 -0.11718,-0.24609 -0.17968,-0.50781 -0.3125,-0.74609 -0.0625,-0.11719 -0.10156,-0.24609 -0.16406,-0.36719 -0.0664,-0.11718 -0.1289,-0.23828 -0.1914,-0.35937 -1.01172,-1.91016 -2.5625,-3.63281 -4.42579,-4.78516 -0.91406,-0.60547 -1.91406,-1.01953 -2.92578,-1.37109 -1.03125,-0.29688 -2.08593,-0.50781 -3.20703,-0.55078 l -39.22265,-0.0195 z m 0,0"
           fill-opacity="1"
           fill-rule="nonzero"
           id="path21" /></g><g
         clip-path="url(#36a2e99a7a)"
         id="g22"><path
           fill="#ffffff"
           d="m 578.55078,377.37109 v -2.34765 l 38.96875,0.0117 c 0.60547,0.0195 1.14453,0.14062 1.67578,0.28125 0.51172,0.19531 1.03906,0.38671 1.51563,0.71875 0.98828,0.59765 1.8164,1.53906 2.34765,2.53125 0.0274,0.0664 0.0586,0.125 0.0977,0.1875 0.0312,0.0625 0.0508,0.1289 0.082,0.1914 0.0781,0.11719 0.0937,0.25781 0.16406,0.37891 0.0703,0.26562 0.19141,0.51953 0.22657,0.79687 0.0547,0.12891 0.0469,0.27735 0.0859,0.41016 0.0234,0.0703 0.008,0.14453 0.0234,0.21484 0,0.0703 0.0391,0.14063 0.0273,0.21485 0,0.14843 0.0391,0.29297 0.0234,0.44922 l 0.004,0.11718 0.008,0.0586 v 0.0273 c 0,0 0.004,0.15234 0.004,0.15234 v 0.6875 c 0,0 0.0195,1.14454 0.0195,1.14454 0.17187,12.21093 3.70312,24.5664 10.04297,35.09375 6.33984,10.53515 15.375,19.36328 26.1289,25.35546 0.66407,0.38672 1.34766,0.7461 2.03125,1.09375 0.6875,0.35157 1.36719,0.70704 2.06641,1.03907 1.39844,0.64062 2.79297,1.29297 4.23437,1.84375 2.85938,1.16406 5.8086,2.08203 8.79297,2.86328 1.5,0.35156 3,0.72656 4.51563,0.98047 0.75781,0.14062 1.51562,0.27343 2.27734,0.39453 l 2.28516,0.29687 1.14453,0.13672 1.14453,0.0977 2.29297,0.16797 c 0.76172,0.0351 1.52344,0.0547 2.28516,0.0742 l 1.14453,0.0195 0.28515,0.008 c 0.0703,0 0.0312,0 0.0508,0 h 0.0117 c 0,0 0.0586,0.008 0.0586,0.008 0.62109,0.0195 1.17968,0.0703 1.70703,0.24219 0.27344,0.0508 0.51953,0.17969 0.78515,0.26562 0.2461,0.12891 0.50782,0.23047 0.75,0.38672 0.97657,0.58203 1.87891,1.46094 2.42188,2.46094 0.30469,0.48828 0.46875,1.01563 0.63672,1.53906 0.043,0.27344 0.13281,0.53907 0.14453,0.82813 0.0391,0.14062 0.0195,0.28906 0.0469,0.4375 0.0195,0.0742 -0.004,0.15625 0.004,0.23047 l 0.004,0.11718 c 0,0.0625 0.0117,-0.008 0.0117,0.27735 v 3.25781 c 0,0 0.0234,1.14453 0.0234,1.14453 l 0.0664,2.28906 c 0.19141,3.05079 0.5,6.11329 1.08203,9.14063 1.08594,6.0625 3.03906,11.98437 5.66797,17.55078 5.30859,11.125 13.47266,20.77344 23.58203,27.75781 0.62109,0.44922 1.26563,0.86328 1.91406,1.27735 0.64453,0.41406 1.28907,0.83593 1.94922,1.22656 1.33203,0.77344 2.65625,1.55469 4.03516,2.24219 2.72265,1.42968 5.57031,2.63281 8.46484,3.69531 5.8086,2.06641 11.89063,3.42578 18.00391,3.91016 l 2.29297,0.16406 2.28906,0.0703 1.14062,0.0234 h 0.73047 c 0,0 1.26172,0 1.26172,0 h 35.28125 c 0,0 0,2.35156 0,2.35156 h -20.16015 c 0,0 -10.08204,0 -10.08204,0 h -7.03515 c 0,0 -1.17969,-0.0273 -1.17969,-0.0273 l -2.36328,-0.0703 -2.37109,-0.16796 c -6.3125,-0.50391 -12.59766,-1.90625 -18.60157,-4.04297 -2.99218,-1.09375 -5.93359,-2.33985 -8.74609,-3.81641 -1.42578,-0.71094 -2.79297,-1.51562 -4.16797,-2.31641 -0.68359,-0.40625 -1.34766,-0.84375 -2.01562,-1.26562 -0.66797,-0.43359 -1.33594,-0.86328 -1.97657,-1.32422 -10.4414,-7.21484 -18.8789,-17.18359 -24.36328,-28.67578 -2.71484,-5.75391 -4.73047,-11.87109 -5.85547,-18.13672 -0.60156,-3.12891 -0.92187,-6.28906 -1.11718,-9.44922 l -0.0703,-2.35937 -0.0234,-1.1836 v -0.74218 c 0,0 0,-2.51954 0,-2.51954 0,-0.29296 -0.008,-0.19921 -0.0117,-0.2539 0,-0.0274 -0.004,-0.0547 -0.004,-0.0781 -0.008,-0.0508 0.0195,-0.10547 0,-0.15234 -0.0234,-0.0977 0,-0.19922 -0.0312,-0.28516 0,-0.1914 -0.0703,-0.35547 -0.0898,-0.52734 -0.11328,-0.32422 -0.20313,-0.66016 -0.40235,-0.96875 -0.33984,-0.64453 -0.94922,-1.22656 -1.57422,-1.60156 -0.15234,-0.10547 -0.32421,-0.16016 -0.48046,-0.2461 -0.16797,-0.043 -0.31641,-0.14062 -0.49219,-0.16406 -0.32813,-0.11328 -0.6836,-0.13672 -1.10547,-0.15625 l -0.0391,-0.004 h -0.008 c -0.0195,0 0.0234,-0.004 -0.0469,-0.004 l -0.29688,-0.004 -1.17968,-0.0234 c -0.78907,-0.0195 -1.57813,-0.0391 -2.36328,-0.0742 l -2.3711,-0.17579 -1.17969,-0.0976 -1.18359,-0.14063 -2.35937,-0.30468 c -0.78125,-0.125 -1.56641,-0.26563 -2.35157,-0.40625 -1.5664,-0.26563 -3.11718,-0.64844 -4.66797,-1.01563 -3.08203,-0.80859 -6.13281,-1.75781 -9.08203,-2.95703 -1.48828,-0.57031 -2.92968,-1.24609 -4.3789,-1.90625 -0.71875,-0.33984 -1.42578,-0.70703 -2.13282,-1.07031 -0.70703,-0.36328 -1.41406,-0.73047 -2.09765,-1.12891 -11.11328,-6.19531 -20.44922,-15.31641 -27,-26.19922 -6.54688,-10.875 -10.19922,-23.64453 -10.375,-36.26172 l -0.0195,-1.17968 v -0.69532 c 0,0 0,-0.14843 0,-0.14843 v -0.0195 c 0,0 -0.0117,-0.0391 -0.0117,-0.0391 0,-0.0234 -0.004,-0.0508 -0.004,-0.0781 0.0195,-0.10547 -0.0195,-0.19922 -0.0117,-0.29688 0.0117,-0.0508 -0.0234,-0.0937 -0.0195,-0.14062 -0.0117,-0.043 0.004,-0.0937 -0.0156,-0.13672 -0.0352,-0.0859 -0.0156,-0.17969 -0.0586,-0.26172 -0.0156,-0.17578 -0.10156,-0.32813 -0.13672,-0.49609 -0.0547,-0.0742 -0.0508,-0.16797 -0.10937,-0.23829 -0.0195,-0.0391 -0.0273,-0.0859 -0.0469,-0.125 -0.0273,-0.0351 -0.0508,-0.0781 -0.0664,-0.11718 -0.33985,-0.62891 -0.89063,-1.26563 -1.52735,-1.64453 -0.30468,-0.21875 -0.64062,-0.32813 -0.96093,-0.45704 -0.33594,-0.082 -0.66407,-0.16796 -1.07422,-0.17968 l -38.86719,-0.0117 z m 0,0"
           fill-opacity="1"
           fill-rule="nonzero"
           id="path22" /></g><g
         clip-path="url(#c6a79e12cf)"
         id="g28"><g
           clip-path="url(#938aa423c7)"
           id="g27"><g
             transform="translate(811,276)"
             id="g26"><g
               clip-path="url(#3579663817)"
               id="g25"><g
                 clip-path="url(#fa9e561bfc)"
                 id="g24"><g
                   clip-path="url(#666c0f91a1)"
                   id="g23"><path
                     id="rect22"
                     d="M -1127.7999,-454.19931 V 712.2001 H 945.80064 V -454.19931 Z M 11.95836,-14.492771 c 0.03882,-0.0014 0.07765,-6.45e-4 0.115723,0.0015 1.16297,0.06447 1.991508,1.752272 3.046875,5.5898436 0.32451,1.1800857 -0.931657,2.2650403 -1.417969,3.3881836 -0.06734,0.1555391 -0.360418,0.8167675 -0.764648,1.7270508 1.020931,-0.075313 2.043274,-0.1391104 3.065918,-0.1831055 1.930875,-0.083072 3.86415,-0.098366 5.796386,0.00293 1.480224,0.1098482 2.26879,0.1404481 3.726563,0.3544922 0.93429,0.1371817 1.861145,0.3175649 2.781738,0.5273437 0.108277,-0.08828 0.216581,-0.1758324 0.325195,-0.2636719 0.674079,-0.5451505 2.24234,-1.8117245 3.065918,-2.3422851 0.331824,-0.213772 0.731819,-0.8072433 1.041504,-0.5625 4.603549,3.6383527 4.96162,3.5332335 3.407227,5.48876949 2.26791,0.80924167 4.495219,1.72857187 6.65039,2.81103511 0.38092,0.091052 0.761923,0.1843101 1.141114,0.2827149 1.159285,0.2786258 2.284169,0.6587409 3.361816,1.1674804 0.427039,0.2036438 0.796657,0.4998901 1.193848,0.7514649 0.649212,0.3941837 1.03313,0.8923546 1.041503,1.5571289 2.141517,0.2264187 3.438474,0.7799492 2.969239,3.2680664 -0.236381,0.9475425 -0.665138,1.8111945 -1.237793,2.6030265 -0.01514,0.02191 -0.03022,0.04405 -0.04541,0.06592 -0.629178,1.327581 -1.361652,2.606117 -2.104981,3.873047 -0.609569,0.98594 -1.258352,1.945111 -1.940918,2.879883 0.997887,0.2971 1.851822,1.239661 2.979492,3.561035 0.371112,0.763943 -0.404978,1.66988 -0.811523,2.415528 -0.343191,0.629461 -0.901058,1.117471 -1.397461,1.634765 -1.144431,1.192536 -3.641728,3.385388 -4.762207,4.391602 -0.621836,0.544308 -1.244479,1.088803 -1.867676,1.631836 0.411251,-0.136177 0.752874,-0.24688 0.956543,-0.306153 0.454309,-0.132179 1.032422,-0.641721 1.382813,-0.32373 5.116705,4.643886 4.21478,3.927553 0.914062,7.051758 -2.092195,1.356661 -4.201383,2.686053 -6.322265,3.997558 1.776132,-0.420123 3.911513,-0.586109 4.82373,1.40625 0.290523,0.634507 0.439121,1.183383 0.479004,1.669922 0.541134,-0.19817 1.081941,-0.396358 1.623047,-0.594727 0.814223,-0.300727 1.627614,-0.601757 2.441894,-0.902343 0.309884,-0.114407 4.571569,-1.819119 4.917481,-1.27002 3.306104,5.248006 2.962952,4.686888 0.256347,6.899414 -0.259625,0.182778 -0.520021,0.363183 -0.782226,0.541992 -0.10355,2.118331 -3.037758,3.397125 -5.299805,4.59961 -0.876217,0.436535 -1.951873,0.993319 -2.862304,1.366699 -0.44127,0.180964 -0.890192,0.630895 -1.344727,0.486328 -1.535528,-0.488041 -3.440359,-0.883115 -4.281738,-2.25293 -1.203364,0.314022 -2.393582,0.632087 -3.534668,0.938965 -4.68241,1.259348 -9.352825,2.564569 -14.030274,3.842285 -3.784733,0.92829 -11.4697317,3.972978 -11.7495112,-3.276855 -0.089178,-2.311172 4.3353282,-6.59521 5.5107422,-7.902832 0.126454,-0.127871 0.252572,-0.256315 0.379394,-0.383789 -1.144714,0.0733 -2.349443,0.249266 -2.973632,-0.568359 -0.688989,-0.902467 -0.977669,-1.685173 -0.996094,-2.371583 -0.656391,0.399345 -1.31338,0.800098 -1.96875,1.201172 -0.7001859,0.437981 -1.4000033,0.876664 -2.100586,1.313965 -0.7899873,0.493115 -1.9328302,1.226833 -2.793457,1.688965 -0.2594551,0.139436 -0.5840406,0.58004 -0.7983398,0.37793 -4.9628693,-4.677477 -5.07239,-3.575092 -2.2470703,-6.246094 2.3029512,-1.624989 4.6707463,-3.149831 7.0825195,-4.604004 -0.6716126,-0.139663 -1.340535,-0.306068 -2.0141602,-0.410156 -0.00232,-0.604063 -0.045256,-1.211484 -0.079101,-1.817871 -0.011821,-0.0059 -0.023733,-0.0127 -0.035156,-0.02197 -1.0370834,0.646498 -2.0673715,1.303847 -3.0908203,1.97461 -0.7331244,0.480472 -1.4555572,0.977136 -2.17382808,1.479492 -0.41981102,0.293641 -0.77589745,1.123636 -1.24072265,0.908203 -1.55565357,-0.720879 -2.79609647,-1.964983 -4.11035157,-3.086426 -0.3429354,0.553635 -0.5752215,0.944417 -0.7807617,1.190918 -0.022705,0.103776 -0.051329,0.184402 -0.1186523,0.143555 -0.00295,-0.0018 -0.00584,-0.0041 -0.00879,-0.0059 -0.7094267,0.664214 -1.3173673,-0.473838 -5.7187496,-2.594238 -0.125547,-0.06049 0.115591,-0.253867 0.172851,-0.380859 0.179207,-0.396794 0.3627,-0.792169 0.537598,-1.190918 0.246076,-0.561374 0.487338,-1.123803 0.7280272,-1.6875 -1.1847402,-0.831884 -2.2404652,-1.888757 -3.3969722,-2.77002 -0.03716,0.151087 -0.0616,0.282634 -0.07617,0.304688 v 0.0015 h -0.0015 l -0.0015,0.0015 h -0.0015 l -0.0015,-0.0015 -0.0015,-0.0015 v -0.0015 c -0.0024,-0.0072 -0.0057,-0.02246 -0.0073,-0.04395 -0.0082,-0.101509 0.01002,-0.198935 0.04248,-0.294434 -0.04762,-0.036 -0.09556,-0.07159 -0.143555,-0.106934 0.123704,-0.384293 0.251033,-0.768075 0.38086,-1.149902 -1.026624,2.25978 -2.043217,4.524186 -3.068848,6.785156 -0.27326,0.602447 -0.188088,1.790134 -0.849609,1.792969 -2.031393,0.01142 -3.890662,-1.169614 -5.835938,-1.754883 0.184876,-5.274255 0.626747,-10.542656 0.786621,-15.818847 0.279184,-5.849402 0.601346,-11.701797 0.624024,-17.559082 h -0.0015 c 0.02517,-6.2277732 6.314181,-6.2277817 6.291504,0 -0.0214,5.792485 -0.329974,11.579434 -0.607911,17.364257 2.16618,-4.506046 4.359394,-8.998788 6.5566409,-13.4897453 0.8744599,-1.6636507 2.2572672,-5.1129618 5.0053711,-4.2246094 1.1185043,0.3615627 1.7836968,0.8128855 2.1811523,1.3403321 0.157739,-0.4136955 0.419276,-0.8093348 0.6930562,-1.1982025 C -0.73129472,1.3636205 -0.03578848,0.60492861 0.77134852,-0.05380619 1.0253523,-0.25933874 1.2815457,-0.46251135 1.5418563,-0.6602515 3.8826855,-4.6534765 6.3091733,-8.598254 9.0565047,-12.324802 9.3343,-12.660087 9.5655756,-13.040746 9.8900008,-13.33115 10.708584,-14.063881 11.376106,-14.47243 11.95836,-14.492771 Z M 2.3973251,30.91592 c -0.017093,0.01565 -0.03463,0.03226 -0.05127,0.0498 0.00848,0.0048 0.016427,0.0098 0.024902,0.01465 0.011424,-0.01125 0.023591,-0.02258 0.035156,-0.03369 -0.00309,-0.01037 -0.00573,-0.02036 -0.00879,-0.03076 z M 52.874376,48.96133 c -0.0052,9.36e-4 -0.01673,0.0052 -0.03516,0.01318 -0.204151,0.08895 -0.419884,0.14503 -0.635742,0.202148 0.185811,0.05734 0.633708,-0.178301 0.670899,-0.212402 l 0.0015,-0.0015 h 0.0015 v -0.0015 h -0.0015 z m -40.158692,5.233887 v 0.0015 h -0.0015 v 0.0015 l -0.0015,0.0015 v 0.0015 0.0015 c 0.0073,0.05185 0.196763,0.300491 0.306152,0.295899 0.03424,-0.0011 0.06981,-0.0039 0.105469,-0.0059 -0.124781,-0.101622 -0.25229,-0.197931 -0.383789,-0.287109 -0.0065,-0.0044 -0.01218,-0.0072 -0.01611,-0.0088 l -0.0015,-0.0015 h -0.0015 -0.0015 -0.0015 -0.0015 z" /></g></g></g></g></g></g></g></g></svg>
