<?xml version="1.0" encoding="UTF-8" standalone="no"?>
<svg
   width="428.96582"
   zoomAndPan="magnify"
   viewBox="0 0 321.72437 321.6836"
   height="428.91147"
   preserveAspectRatio="xMidYMid"
   version="1.0"
   id="svg62"
   xmlns="http://www.w3.org/2000/svg"
   xmlns:svg="http://www.w3.org/2000/svg">
  <defs
     id="defs5">
    <clipPath
       id="507708818a">
      <path
         d="m 568,243.37891 h 323 v 321.75 H 568 Z m 0,0"
         clip-rule="nonzero"
         id="path1" />
    </clipPath>
    <clipPath
       id="c5350f5b59">
      <path
         d="m 623.14062,489.26562 h 24.84375 v 20.2461 h -24.84375 z m 0,0"
         clip-rule="nonzero"
         id="path2" />
    </clipPath>
    <clipPath
       id="4ee8c897b4">
      <path
         d="m 623.17578,501.67578 c 3.07422,-6.90234 5.25,-6.22656 5.84766,-6.82422 0.375,-0.45312 0.15234,-1.20312 0.22656,-1.65234 0.14844,-0.375 0.14844,-0.75 0.30078,-1.05078 0.14844,-0.375 0.375,-0.67188 0.59766,-0.97266 0.22656,-0.30078 0.45312,-0.60156 0.75,-0.82422 0.30078,-0.22656 0.60156,-0.45312 0.97656,-0.60156 0.30078,-0.14844 0.67578,-0.30078 1.05078,-0.375 0.375,-0.0742 0.75,-0.0742 1.125,-0.0742 0.375,0 0.75,0.0742 1.05078,0.14844 0.375,0.15234 0.75,0.30078 1.04688,0.44922 0.30078,0.22656 0.67578,0.45312 0.90234,0.67578 0.30078,0.30078 0.52344,0.60156 0.67578,0.90234 0.22266,0.29688 0.375,0.67188 0.52344,0.97266 0.0742,0.375 0.14844,0.75 0.22656,1.125 0,0.30078 -0.22656,0.75 -0.0781,1.05078 0.45312,0.52344 2.40234,0.30078 3.60156,0.82422 1.35156,0.67578 3.07422,1.57422 4.05078,2.92578 1.05078,1.5 2.09766,4.05078 1.875,5.77344 -0.0742,1.5 -1.05078,3.22656 -2.25,4.125 -1.19922,0.90234 -3.52734,1.35156 -5.25,1.20312 -1.72656,-0.15234 -3.90234,-1.35156 -5.17578,-2.10156 -0.82422,-0.52344 -1.27344,-1.57422 -1.80078,-1.64844 -0.44922,0 -0.67578,0.67188 -1.19922,0.75 -1.125,0.22266 -3.89844,0.0742 -5.39844,-0.67578 -1.5,-0.82422 -3.67578,-4.125 -3.67578,-4.125"
         clip-rule="nonzero"
         id="path3" />
    </clipPath>
    <clipPath
       id="8301ccea93">
      <path
         d="m 0.140625,0.265625 h 24.84375 V 20.511719 H 0.140625 Z m 0,0"
         clip-rule="nonzero"
         id="path4" />
    </clipPath>
    <clipPath
       id="0d75ac1755">
      <path
         d="M 0.175781,12.675781 C 3.25,5.773438 5.425781,6.449219 6.023438,5.851562 6.398438,5.398438 6.175781,4.648438 6.25,4.199219 c 0.148438,-0.375 0.148438,-0.75 0.300781,-1.050781 0.148438,-0.375 0.375,-0.671876 0.597657,-0.972657 C 7.375,1.875 7.601562,1.574219 7.898438,1.351562 8.199219,1.125 8.5,0.898438 8.875,0.75 9.175781,0.601562 9.550781,0.449219 9.925781,0.375 c 0.375,-0.074219 0.75,-0.074219 1.125,-0.074219 0.375,0 0.75,0.074219 1.050781,0.148438 0.375,0.152343 0.75,0.300781 1.046876,0.449219 0.300781,0.226562 0.675781,0.453124 0.902343,0.675781 0.300781,0.300781 0.523438,0.601562 0.675781,0.902343 0.222657,0.296876 0.375,0.671876 0.523438,0.972657 0.07422,0.375 0.148438,0.75 0.226562,1.125 0,0.300781 -0.226562,0.75 -0.07812,1.050781 C 15.851562,6.148438 17.800781,5.925781 19,6.449219 20.351562,7.125 22.074219,8.023438 23.050781,9.375 c 1.050781,1.5 2.097657,4.050781 1.875,5.773438 -0.07422,1.5 -1.050781,3.226562 -2.25,4.125 -1.199219,0.902343 -3.527343,1.351562 -5.25,1.203124 C 15.699219,20.324219 13.523438,19.125 12.25,18.375 c -0.824219,-0.523438 -1.273438,-1.574219 -1.800781,-1.648438 -0.449219,0 -0.675781,0.671876 -1.199219,0.75 -1.125,0.222657 -3.898438,0.07422 -5.398438,-0.675781 -1.5,-0.824219 -3.675781,-4.125 -3.675781,-4.125"
         clip-rule="nonzero"
         id="path5" />
    </clipPath>
    <clipPath
       id="5fd963760b">
      <rect
         x="0"
         width="25"
         y="0"
         height="21"
         id="rect5" />
    </clipPath>
  </defs>
  <path
     fill="#a45d3a"
     d="m 160.86726,200.01953 c 0.0625,0 0.11328,0.0156 0.14844,0.0391 0.0312,0.0195 0.0469,0.0508 0.0508,0.0859 0,0.0234 0.0586,0.0586 0.16797,0.125 0.0898,0.0547 0.19531,0.12109 0.28515,0.19531 0.0508,0.0391 0.0859,0.0742 0.11719,0.10547 0.0312,0.0391 0.0469,0.0781 0.0586,0.10937 0.004,0.0352 0,0.0664 -0.0274,0.0937 -0.0586,0.0703 -0.14062,0.13672 -0.23047,0.20703 -0.17187,0.14844 -0.35547,0.29688 -0.38281,0.51954 -0.0117,0.11328 -0.0391,0.16406 -0.082,0.16406 -0.0664,0 -0.17578,-0.13281 -0.30078,-0.29297 -0.14844,-0.18359 -0.33203,-0.41797 -0.52344,-0.51563 -0.0742,-0.0351 -0.10547,-0.0898 -0.0977,-0.16015 0.004,-0.0586 0.0352,-0.1211 0.0859,-0.19531 0.0469,-0.0625 0.11328,-0.13672 0.19141,-0.20313 0.1289,-0.12109 0.28906,-0.22656 0.36719,-0.25 0.0625,-0.0156 0.1289,-0.0312 0.17968,-0.0312 m 0,-0.004 c -0.0508,0 -0.10937,0.008 -0.17968,0.0312 -0.19141,0.0586 -0.91407,0.63672 -0.54688,0.82422 0.35156,0.17969 0.67578,0.80078 0.83203,0.80078 0.043,0 0.0703,-0.0469 0.082,-0.16796 0.043,-0.33204 0.4336,-0.50782 0.61328,-0.72657 0.1875,-0.23437 -0.59375,-0.57031 -0.59375,-0.63281 0,-0.0742 -0.0781,-0.13281 -0.20312,-0.13281 z m 0,0"
     fill-opacity="1"
     fill-rule="nonzero"
     id="path6"
     style="fill:#ffffff" />
  <path
     fill="#a45d3a"
     d="m 160.86726,199.90625 c 0.0664,0 0.125,0.0117 0.16406,0.0391 0.0352,0.0273 0.0586,0.0625 0.0586,0.10156 0,0.0234 0.0625,0.0625 0.18359,0.14063 0.0977,0.0586 0.21875,0.13281 0.31641,0.21484 0.0547,0.043 0.0976,0.082 0.125,0.12109 0.0351,0.043 0.0586,0.0781 0.0625,0.11719 0.004,0.043 0,0.0781 -0.0274,0.10938 -0.0625,0.0781 -0.15625,0.15625 -0.25,0.23437 -0.19531,0.16406 -0.39453,0.33203 -0.42578,0.57813 -0.0156,0.12109 -0.0469,0.18359 -0.0898,0.18359 -0.0781,0 -0.19922,-0.15234 -0.33985,-0.32813 -0.16796,-0.20312 -0.37109,-0.45703 -0.58203,-0.5664 -0.082,-0.0391 -0.11718,-0.10156 -0.10547,-0.17969 0.004,-0.0625 0.0391,-0.13672 0.0977,-0.21875 0.0469,-0.0703 0.125,-0.14453 0.20313,-0.22266 0.14843,-0.13281 0.32812,-0.2539 0.41796,-0.28125 0.0703,-0.0234 0.13672,-0.0312 0.19532,-0.0312 m 0,-0.004 c -0.0586,0 -0.125,0.008 -0.19922,0.0312 -0.21485,0.0664 -1.01953,0.70312 -0.61328,0.91015 0.39453,0.20313 0.75,0.89454 0.92578,0.89454 0.0469,0 0.0781,-0.0547 0.0977,-0.1875 0.043,-0.36719 0.48047,-0.5625 0.67969,-0.8086 0.20313,-0.25781 -0.66406,-0.6289 -0.66406,-0.70312 0,-0.082 -0.082,-0.14453 -0.22656,-0.14453 z m 0,0"
     fill-opacity="1"
     fill-rule="nonzero"
     id="path7"
     style="fill:#ffffff" />
  <path
     fill="#a45d3a"
     d="m 160.86726,199.78125 c 0.0742,0 0.13672,0.0156 0.18359,0.043 0.0391,0.0274 0.0625,0.0664 0.0625,0.11329 0,0.0273 0.0703,0.0703 0.20313,0.15234 0.10937,0.0664 0.24219,0.14453 0.35547,0.23437 0.0586,0.0508 0.10547,0.0937 0.14062,0.13282 0.043,0.0508 0.0625,0.0976 0.0742,0.13672 0.008,0.043 0,0.0781 -0.0312,0.11718 -0.0742,0.0859 -0.17578,0.17188 -0.28125,0.25782 -0.21875,0.17968 -0.44531,0.36718 -0.47656,0.63671 -0.0156,0.13672 -0.0469,0.20313 -0.10156,0.20313 -0.0859,0 -0.21875,-0.17188 -0.375,-0.36328 -0.1836,-0.22656 -0.41016,-0.50781 -0.64844,-0.63281 -0.0898,-0.0469 -0.12891,-0.11329 -0.12109,-0.20313 0.004,-0.0703 0.0469,-0.15234 0.11328,-0.23828 0.0586,-0.082 0.13672,-0.16797 0.23047,-0.25 0.16406,-0.14844 0.36328,-0.28125 0.46093,-0.3125 0.082,-0.0234 0.15235,-0.0391 0.21875,-0.0391 m 0,-0.004 c -0.0625,0 -0.13672,0.0156 -0.22265,0.0352 -0.24219,0.0742 -1.12891,0.78515 -0.67969,1.01562 0.4375,0.22656 0.83594,0.9961 1.02344,0.9961 0.0547,0 0.0898,-0.0586 0.10937,-0.20704 0.0469,-0.40625 0.53516,-0.625 0.75391,-0.89453 0.23047,-0.28906 -0.73438,-0.69922 -0.73438,-0.77734 0,-0.0937 -0.0937,-0.16797 -0.25,-0.16797 z m 0,0"
     fill-opacity="1"
     fill-rule="nonzero"
     id="path8"
     style="fill:#ffffff" />
  <path
     fill="#a45d3a"
     d="m 160.86726,199.63671 c 0.0859,0 0.15234,0.0195 0.19922,0.0508 0.0469,0.0312 0.0742,0.0742 0.0742,0.125 0,0.0273 0.0781,0.0742 0.22656,0.16796 0.12109,0.0781 0.26953,0.16407 0.39063,0.26563 0.0664,0.0508 0.11718,0.10156 0.15625,0.14453 0.043,0.0547 0.0703,0.10547 0.0742,0.14844 0.008,0.0508 0,0.0937 -0.0352,0.1289 -0.082,0.0977 -0.19141,0.19141 -0.3125,0.29297 -0.24219,0.19922 -0.49219,0.40625 -0.52735,0.70703 -0.0195,0.15235 -0.0547,0.22657 -0.11328,0.22657 -0.0937,0 -0.24609,-0.1875 -0.41797,-0.40235 -0.20312,-0.2539 -0.45703,-0.57031 -0.71875,-0.70312 -0.10156,-0.0469 -0.14453,-0.125 -0.13671,-0.22266 0.0117,-0.0742 0.0508,-0.17187 0.12109,-0.26953 0.0625,-0.0898 0.15234,-0.18359 0.25391,-0.27734 0.17968,-0.16407 0.40234,-0.3125 0.51171,-0.34375 0.0898,-0.0274 0.16797,-0.0391 0.2461,-0.0391 m 0,-0.004 c -0.0742,0 -0.15235,0.0117 -0.2461,0.0391 -0.26953,0.082 -1.25781,0.86719 -0.75781,1.125 0.48828,0.25 0.92969,1.10938 1.14063,1.10938 0.0586,0 0.0976,-0.0664 0.12109,-0.23047 0.0547,-0.45313 0.59766,-0.69922 0.83594,-0.9961 0.2539,-0.32031 -0.8125,-0.77734 -0.8125,-0.86328 0,-0.10547 -0.10547,-0.18359 -0.27735,-0.18359 z m 0,0"
     fill-opacity="1"
     fill-rule="nonzero"
     id="path9"
     style="fill:#ffffff" />
  <path
     fill="#a45d3a"
     d="m 160.86726,199.48046 c 0.0937,0 0.16797,0.0195 0.22266,0.0586 0.0508,0.0351 0.0781,0.0859 0.082,0.13672 0,0.0312 0.082,0.0859 0.2539,0.1875 0.13282,0.082 0.30079,0.18359 0.4336,0.29297 0.0703,0.0586 0.13281,0.11328 0.17578,0.16406 0.0469,0.0586 0.0742,0.11328 0.082,0.16015 0.0117,0.0547 0,0.10547 -0.0391,0.14844 -0.0898,0.11328 -0.21485,0.21485 -0.34375,0.32031 -0.26953,0.22657 -0.54688,0.45313 -0.58594,0.79297 -0.0195,0.16797 -0.0625,0.25 -0.125,0.25 -0.10547,0 -0.27344,-0.20703 -0.46484,-0.44922 -0.22657,-0.28125 -0.50391,-0.6289 -0.80078,-0.78125 -0.10547,-0.0586 -0.16016,-0.13671 -0.15235,-0.24609 0.0117,-0.082 0.0547,-0.1875 0.13672,-0.29687 0.0703,-0.0977 0.16797,-0.20704 0.28516,-0.3086 0.19922,-0.18359 0.44531,-0.34765 0.5664,-0.38672 0.0977,-0.0312 0.19141,-0.043 0.27344,-0.043 m 0,-0.008 c -0.082,0 -0.17187,0.0117 -0.27344,0.043 -0.29297,0.0898 -1.39453,0.96484 -0.83984,1.25 0.54297,0.27734 1.03125,1.23047 1.26562,1.23047 0.0664,0 0.10938,-0.0703 0.13282,-0.25391 0.0586,-0.5039 0.66015,-0.77343 0.92968,-1.10937 0.28516,-0.35156 -0.90625,-0.86328 -0.90625,-0.96094 0,-0.11719 -0.11328,-0.19922 -0.30859,-0.19922 z m 0,0"
     fill-opacity="1"
     fill-rule="nonzero"
     id="path10"
     style="fill:#ffffff" />
  <path
     fill="#a45d3a"
     d="m 160.86726,199.30468 c 0.10156,0 0.1875,0.0234 0.25,0.0625 0.0586,0.043 0.0859,0.0937 0.0898,0.15625 0,0.0391 0.0977,0.10157 0.28125,0.21094 0.14844,0.0898 0.33204,0.20703 0.48047,0.32813 0.082,0.0664 0.14844,0.125 0.19532,0.18359 0.0508,0.0664 0.082,0.125 0.0937,0.18359 0.008,0.0547 -0.004,0.10938 -0.0469,0.16016 -0.0977,0.12109 -0.23437,0.23437 -0.38281,0.35547 -0.30078,0.24609 -0.60938,0.5 -0.65235,0.875 -0.0234,0.1875 -0.0664,0.27734 -0.14062,0.27734 -0.11328,0 -0.30078,-0.23047 -0.51172,-0.49609 -0.25,-0.3125 -0.5625,-0.69922 -0.89062,-0.86719 -0.1211,-0.0625 -0.17969,-0.15625 -0.16407,-0.26953 0.008,-0.0937 0.0586,-0.21094 0.15235,-0.33594 0.0742,-0.10937 0.1875,-0.22656 0.3164,-0.34375 0.22266,-0.20312 0.4961,-0.38672 0.62891,-0.42969 0.10937,-0.0351 0.21094,-0.0508 0.30469,-0.0508 m 0,-0.008 c -0.0899,0 -0.1875,0.0156 -0.30469,0.0508 -0.32813,0.10156 -1.55078,1.07031 -0.92969,1.38672 0.60156,0.30859 1.14453,1.36719 1.41016,1.36719 0.0703,0 0.125,-0.0781 0.14453,-0.28516 0.0703,-0.55859 0.73828,-0.86328 1.03516,-1.23047 0.3164,-0.39453 -1.00782,-0.95703 -1.00782,-1.07031 0,-0.12891 -0.125,-0.22656 -0.34375,-0.22656 z m 0,0"
     fill-opacity="1"
     fill-rule="nonzero"
     id="path11"
     style="fill:#ffffff" />
  <path
     fill="#a45d3a"
     d="m 160.86726,199.11328 c 0.11719,0 0.21094,0.0234 0.27734,0.0742 0.0625,0.043 0.0977,0.10156 0.0977,0.17187 0,0.0391 0.10547,0.10938 0.3125,0.23438 0.16406,0.10156 0.36719,0.22656 0.53516,0.35937 0.0898,0.0742 0.16406,0.14063 0.21484,0.20703 0.0586,0.0703 0.0937,0.13672 0.10938,0.19922 0.0117,0.0664 -0.004,0.125 -0.0508,0.17969 -0.10546,0.14062 -0.26171,0.26562 -0.42578,0.39844 -0.32812,0.27343 -0.67187,0.55859 -0.72265,0.97265 -0.0234,0.20703 -0.0742,0.3086 -0.15625,0.3086 -0.12891,0 -0.33594,-0.25391 -0.57032,-0.55079 -0.27734,-0.34765 -0.625,-0.77734 -0.98828,-0.96484 -0.13281,-0.0703 -0.19531,-0.17187 -0.18359,-0.30078 0.008,-0.10938 0.0664,-0.23438 0.16406,-0.37109 0.0859,-0.1211 0.21094,-0.25 0.35547,-0.38282 0.24609,-0.22265 0.54688,-0.42578 0.69922,-0.47265 0.12109,-0.0352 0.23828,-0.0586 0.33594,-0.0586 m 0,-0.008 c -0.0977,0 -0.21094,0.0195 -0.33985,0.0586 -0.36718,0.11329 -1.71875,1.19141 -1.03515,1.54688 0.66406,0.34375 1.27343,1.51953 1.5625,1.51953 0.082,0 0.14062,-0.0898 0.16015,-0.32031 0.0742,-0.6211 0.82032,-0.95313 1.14844,-1.36719 0.35547,-0.4375 -1.11719,-1.0625 -1.11719,-1.18359 0,-0.14063 -0.13672,-0.25 -0.38281,-0.25 z m 0,0"
     fill-opacity="1"
     fill-rule="nonzero"
     id="path12"
     style="fill:#ffffff" />
  <path
     fill="#a45d3a"
     d="m 160.86726,198.89453 c 0.125,0 0.23047,0.0273 0.30859,0.0781 0.0703,0.0469 0.10547,0.11328 0.10547,0.19141 0,0.043 0.1211,0.12109 0.35157,0.25781 0.17968,0.11328 0.41015,0.25391 0.59375,0.40234 0.10156,0.082 0.18359,0.15625 0.23437,0.22657 0.0664,0.082 0.10938,0.15625 0.11719,0.22656 0.0117,0.0703 -0.004,0.13672 -0.0547,0.19922 -0.12109,0.15234 -0.29297,0.29687 -0.47266,0.4414 -0.37109,0.30469 -0.75,0.61719 -0.80468,1.08204 -0.0274,0.23437 -0.0859,0.34375 -0.16797,0.34375 -0.14453,0 -0.3711,-0.28516 -0.64063,-0.61329 -0.30859,-0.38281 -0.69531,-0.86328 -1.09375,-1.07031 -0.15234,-0.0742 -0.21875,-0.1914 -0.20703,-0.33984 0.0117,-0.11719 0.0742,-0.25391 0.1875,-0.41016 0.0977,-0.13281 0.23438,-0.28125 0.39063,-0.42578 0.27734,-0.25 0.61328,-0.47266 0.77734,-0.52734 0.13281,-0.0391 0.25781,-0.0625 0.375,-0.0625 m 0,-0.008 c -0.10937,0 -0.23437,0.0156 -0.375,0.0625 -0.40625,0.125 -1.91406,1.32032 -1.14844,1.71485 0.74219,0.38281 1.41407,1.68359 1.73828,1.68359 0.0898,0 0.15235,-0.10156 0.1836,-0.35156 0.0781,-0.69141 0.90625,-1.0625 1.27734,-1.51953 0.38672,-0.48828 -1.24219,-1.1836 -1.24219,-1.31641 0,-0.16406 -0.15625,-0.27734 -0.42578,-0.27734 z m 0,0"
     fill-opacity="1"
     fill-rule="nonzero"
     id="path13"
     style="fill:#ffffff" />
  <path
     fill="#a45d3a"
     d="m 160.86726,198.66015 c 0.14453,0 0.25781,0.0312 0.33984,0.082 0.0742,0.0547 0.1211,0.125 0.1211,0.21485 0,0.0508 0.13281,0.13672 0.38281,0.28515 0.20313,0.125 0.45703,0.28125 0.66016,0.44922 0.11328,0.0899 0.20312,0.17188 0.26562,0.25 0.0703,0.0899 0.11719,0.17188 0.12891,0.25 0.0156,0.0781 -0.004,0.15625 -0.0586,0.22266 -0.13281,0.17187 -0.32421,0.32812 -0.52734,0.49219 -0.41016,0.33984 -0.83594,0.6875 -0.89453,1.20312 -0.0312,0.25391 -0.0937,0.37891 -0.19141,0.37891 -0.16015,0 -0.41406,-0.31641 -0.70312,-0.67969 -0.34766,-0.42969 -0.77344,-0.96094 -1.21875,-1.1875 -0.16406,-0.0859 -0.23828,-0.21484 -0.22656,-0.375 0.0117,-0.13281 0.082,-0.28906 0.20703,-0.45703 0.10547,-0.14844 0.25781,-0.3086 0.43359,-0.46875 0.30859,-0.27735 0.67969,-0.52735 0.86719,-0.58594 0.14844,-0.043 0.28906,-0.0703 0.41406,-0.0703 m 0,-0.0117 c -0.12109,0 -0.25781,0.0234 -0.42187,0.0742 -0.44922,0.13672 -2.125,1.46875 -1.27735,1.90625 0.82422,0.42578 1.57422,1.87109 1.92969,1.87109 0.10156,0 0.17187,-0.10937 0.20312,-0.38672 0.0898,-0.76953 1.00782,-1.17968 1.41797,-1.6875 0.42969,-0.54297 -1.38281,-1.3164 -1.38281,-1.46484 0,-0.17578 -0.17578,-0.30469 -0.47266,-0.30469 z m 0,0"
     fill-opacity="1"
     fill-rule="nonzero"
     id="path14"
     style="fill:#ffffff" />
  <path
     fill="#a45d3a"
     d="m 160.87117,198.39062 c 0.15625,0 0.28515,0.0312 0.3789,0.0977 0.0859,0.0586 0.13672,0.14453 0.13672,0.23828 0,0.0508 0.14453,0.14453 0.42578,0.32031 0.22657,0.14063 0.50782,0.3125 0.73828,0.49609 0.125,0.0977 0.22266,0.19141 0.29688,0.28125 0.0781,0.0977 0.12891,0.19141 0.14062,0.27735 0.0156,0.0898 -0.008,0.17578 -0.0664,0.24609 -0.15235,0.1875 -0.36328,0.36328 -0.58594,0.54297 -0.45312,0.37891 -0.92578,0.76563 -0.99219,1.33594 -0.0312,0.28906 -0.10156,0.42578 -0.20703,0.42578 -0.17969,0 -0.46094,-0.35156 -0.78906,-0.75391 -0.38281,-0.47265 -0.85547,-1.07031 -1.35156,-1.32422 -0.1836,-0.0937 -0.27344,-0.23437 -0.25782,-0.41796 0.0156,-0.14844 0.0898,-0.31641 0.23047,-0.51172 0.1211,-0.16407 0.28516,-0.34375 0.48047,-0.51953 0.33985,-0.3086 0.75781,-0.58594 0.96094,-0.65235 0.16797,-0.0508 0.32422,-0.0781 0.46094,-0.0781 m 0,-0.0117 c -0.13282,0 -0.28907,0.0195 -0.46485,0.0742 -0.5,0.15234 -2.36328,1.63672 -1.42187,2.12109 0.91797,0.47656 1.75,2.08203 2.14453,2.08203 0.11328,0 0.1875,-0.125 0.22656,-0.43359 0.0977,-0.85156 1.1211,-1.3086 1.57422,-1.875 0.48438,-0.60156 -1.53125,-1.46094 -1.53125,-1.625 0,-0.19922 -0.19141,-0.34375 -0.52344,-0.34375 z m 0,0"
     fill-opacity="1"
     fill-rule="nonzero"
     id="path15"
     style="fill:#ffffff" />
  <path
     fill="#a45d3a"
     d="m 160.87117,198.09375 c 0.17578,0 0.3164,0.0391 0.42187,0.10937 0.0937,0.0664 0.14453,0.15625 0.14453,0.26172 0,0.0586 0.16797,0.16406 0.47657,0.35937 0.25,0.15625 0.5625,0.34766 0.8164,0.55079 0.13672,0.10937 0.25,0.21093 0.32422,0.30468 0.0898,0.11328 0.14453,0.21485 0.16406,0.3086 0.0156,0.10156 -0.0117,0.19531 -0.0781,0.27343 -0.16406,0.21094 -0.40235,0.40235 -0.64844,0.60938 -0.50391,0.41406 -1.02734,0.84766 -1.10156,1.48047 -0.0352,0.32031 -0.11328,0.47265 -0.23828,0.47265 -0.19532,0 -0.50782,-0.39062 -0.875,-0.83984 -0.42578,-0.52734 -0.95313,-1.19141 -1.5,-1.47266 -0.20703,-0.10546 -0.30078,-0.26171 -0.28125,-0.46484 0.0117,-0.16016 0.0976,-0.35156 0.2539,-0.5625 0.13282,-0.18359 0.31641,-0.38281 0.53516,-0.58203 0.37891,-0.33594 0.83594,-0.65234 1.06641,-0.72266 0.18359,-0.0586 0.35937,-0.0859 0.51562,-0.0859 m 0,-0.0117 c -0.14844,0 -0.32031,0.0273 -0.51953,0.0859 -0.55469,0.16797 -2.625,1.8125 -1.57813,2.35547 1.01954,0.51953 1.94141,2.3086 2.38282,2.3086 0.125,0 0.21093,-0.14063 0.25,-0.48438 0.11328,-0.94531 1.24609,-1.45703 1.7539,-2.08594 0.53516,-0.66406 -1.70312,-1.62109 -1.70703,-1.80468 0,-0.21875 -0.21484,-0.38282 -0.58203,-0.38282 z m 0,0"
     fill-opacity="1"
     fill-rule="nonzero"
     id="path16"
     style="fill:#ffffff" />
  <path
     fill="#a45d3a"
     d="m 160.87117,197.76562 c 0.1914,0 0.35156,0.0391 0.46875,0.12109 0.10937,0.0703 0.16797,0.17188 0.16797,0.28907 0,0.0664 0.17968,0.18359 0.52734,0.39453 0.27344,0.16797 0.625,0.38281 0.90625,0.60937 0.15234,0.1211 0.27734,0.23828 0.36719,0.34375 0.10156,0.1211 0.16015,0.23828 0.17578,0.33985 0.0195,0.11328 -0.008,0.21484 -0.082,0.30468 -0.1836,0.23438 -0.44922,0.44922 -0.72657,0.67579 -0.5625,0.46484 -1.14453,0.9414 -1.22265,1.64843 -0.043,0.35157 -0.125,0.52344 -0.26563,0.52344 -0.21875,0 -0.5664,-0.43359 -0.96875,-0.93359 -0.47265,-0.58594 -1.05859,-1.32032 -1.67187,-1.63282 -0.22656,-0.11718 -0.33594,-0.28906 -0.3125,-0.51562 0.0195,-0.17969 0.11328,-0.39453 0.28125,-0.63281 0.14844,-0.19922 0.35547,-0.42188 0.59375,-0.64063 0.42187,-0.38281 0.92969,-0.72656 1.1914,-0.80469 0.20313,-0.0625 0.39454,-0.0937 0.56641,-0.0937 m 0,-0.0156 c -0.16406,0 -0.35937,0.0312 -0.57031,0.0937 -0.61719,0.1875 -2.91797,2.01953 -1.75391,2.62109 1.13281,0.57813 2.16016,2.56641 2.64453,2.56641 0.14063,0 0.23438,-0.15234 0.27735,-0.53516 0.12109,-1.05078 1.38672,-1.61718 1.94531,-2.3164 0.59375,-0.73828 -1.89063,-1.79688 -1.89453,-2.00391 0,-0.24219 -0.23828,-0.42578 -0.64844,-0.42578 z m 0,0"
     fill-opacity="1"
     fill-rule="nonzero"
     id="path17"
     style="fill:#ffffff" />
  <path
     fill="#a45d3a"
     d="m 160.87117,197.39843 c 0.21484,0 0.39453,0.043 0.51953,0.13282 0.11719,0.082 0.18359,0.19531 0.18359,0.32812 0,0.0703 0.19922,0.19922 0.58594,0.4375 0.30469,0.19141 0.69141,0.42969 1.00781,0.67969 0.17188,0.13281 0.3086,0.26172 0.40625,0.38281 0.11328,0.13281 0.17969,0.26563 0.20313,0.37891 0.0195,0.12109 -0.0117,0.23828 -0.0937,0.33984 -0.20703,0.25391 -0.4961,0.49609 -0.80469,0.75 -0.625,0.51563 -1.26953,1.04688 -1.36328,1.83203 -0.0469,0.39063 -0.14063,0.58203 -0.29297,0.58203 -0.24219,0 -0.62891,-0.48047 -1.07422,-1.03515 -0.52344,-0.65235 -1.17578,-1.46485 -1.85547,-1.81641 -0.2539,-0.12891 -0.37109,-0.32031 -0.34765,-0.57031 0.0156,-0.20313 0.125,-0.4336 0.3125,-0.69531 0.16406,-0.23047 0.39453,-0.47657 0.66015,-0.71485 0.46485,-0.42187 1.03125,-0.80469 1.32031,-0.89453 0.22657,-0.0742 0.44141,-0.10937 0.63282,-0.10937 m 0,-0.0156 c -0.1836,0 -0.39844,0.0312 -0.63672,0.10547 -0.69141,0.21094 -3.24219,2.24219 -1.94922,2.91016 1.25391,0.64843 2.39453,2.85546 2.9375,2.85546 0.15234,0 0.26172,-0.17187 0.30859,-0.59375 0.13672,-1.17187 1.54297,-1.80078 2.16407,-2.57421 0.66015,-0.82813 -2.10157,-2.00391 -2.10547,-2.23047 0,-0.26953 -0.26172,-0.47266 -0.71875,-0.47266 z m 0,0"
     fill-opacity="1"
     fill-rule="nonzero"
     id="path18"
     style="fill:#ffffff" />
  <path
     fill="#a45d3a"
     d="m 160.87117,196.99609 c 0.23828,0 0.4375,0.0508 0.57812,0.14844 0.12891,0.0898 0.19922,0.21484 0.20313,0.35937 0,0.082 0.22265,0.22656 0.65234,0.48828 0.34375,0.21094 0.76953,0.47266 1.12109,0.75391 0.1875,0.15234 0.33985,0.29687 0.45313,0.42578 0.125,0.15234 0.19922,0.28906 0.22266,0.42188 0.0234,0.13281 -0.008,0.26171 -0.10157,0.375 -0.23047,0.28515 -0.55078,0.54687 -0.89453,0.82812 -0.6914,0.57422 -1.41015,1.16406 -1.51562,2.03906 -0.0469,0.4336 -0.15625,0.64453 -0.32032,0.64453 -0.27343,0 -0.70312,-0.53906 -1.19921,-1.15234 -0.57813,-0.72656 -1.3086,-1.62891 -2.0586,-2.01562 -0.28125,-0.14844 -0.41015,-0.36329 -0.39062,-0.64063 0.0195,-0.22266 0.14062,-0.48047 0.35156,-0.77344 0.18359,-0.25 0.43359,-0.52734 0.73047,-0.79297 0.51953,-0.46875 1.14844,-0.89453 1.46484,-0.99218 0.25781,-0.0781 0.49219,-0.11719 0.70313,-0.11719 m 0,-0.0156 c -0.19922,0 -0.44141,0.0352 -0.71094,0.11329 -0.76172,0.23437 -3.60156,2.49218 -2.16016,3.23046 1.39063,0.71875 2.66016,3.17188 3.26563,3.17188 0.16797,0 0.28515,-0.19141 0.33984,-0.66016 0.15235,-1.30078 1.71094,-1.99609 2.39844,-2.85937 0.73437,-0.91406 -2.33594,-2.22656 -2.33594,-2.47656 0,-0.29688 -0.29687,-0.51954 -0.80078,-0.51954 z m 0,0"
     fill-opacity="1"
     fill-rule="nonzero"
     id="path19"
     style="fill:#ffffff" />
  <path
     fill="#a45d3a"
     d="m 160.87507,196.54687 c 0.26563,0 0.48828,0.0547 0.64453,0.16016 0.14844,0.0976 0.22266,0.23437 0.22657,0.40234 0,0.0898 0.25,0.25 0.72656,0.53906 0.37891,0.23828 0.85547,0.52735 1.24609,0.83985 0.21094,0.17187 0.37891,0.32812 0.5,0.47265 0.13672,0.16797 0.21875,0.32813 0.2461,0.46875 0.0273,0.15235 -0.0156,0.29297 -0.11328,0.42188 -0.25391,0.3164 -0.61329,0.61328 -0.99219,0.92578 -0.77344,0.63281 -1.56641,1.28906 -1.67969,2.26562 -0.0586,0.48047 -0.17187,0.71485 -0.35547,0.71485 -0.30469,0 -0.77734,-0.59766 -1.33203,-1.28516 -0.64844,-0.80469 -1.45312,-1.80859 -2.28906,-2.23828 -0.3125,-0.16016 -0.46094,-0.39453 -0.42969,-0.70312 0.0234,-0.2461 0.15234,-0.53907 0.39063,-0.86329 0.19921,-0.27734 0.48046,-0.58593 0.8125,-0.88671 0.57812,-0.51563 1.27734,-0.99219 1.625,-1.10157 0.28125,-0.0859 0.54687,-0.1289 0.78515,-0.1289 m 0,-0.0234 c -0.22656,0 -0.49219,0.0391 -0.78906,0.12891 -0.84766,0.25781 -4,2.76953 -2.40234,3.59375 1.55078,0.79687 2.95703,3.52343 3.63281,3.52343 0.1875,0 0.3164,-0.21093 0.3789,-0.73047 0.16797,-1.44531 1.89844,-2.22265 2.66797,-3.17968 0.81641,-1.01563 -2.59765,-2.46875 -2.59765,-2.75 0,-0.33594 -0.32422,-0.58203 -0.88672,-0.58203 z m 0,0"
     fill-opacity="1"
     fill-rule="nonzero"
     id="path20"
     style="fill:#ffffff" />
  <path
     fill="#a45d3a"
     d="m 160.87507,196.04296 c 0.29688,0 0.54297,0.0625 0.71485,0.17969 0.16015,0.11328 0.25,0.26563 0.25,0.44141 0,0.10547 0.27734,0.27734 0.80468,0.60547 0.42579,0.26172 0.95313,0.58593 1.38672,0.93359 0.23047,0.1875 0.41797,0.36328 0.55469,0.52734 0.15234,0.1875 0.24609,0.36329 0.26953,0.51954 0.0274,0.16796 -0.0117,0.32421 -0.125,0.46093 -0.28125,0.35547 -0.67578,0.67969 -1.09765,1.03125 -0.85938,0.70313 -1.74219,1.4336 -1.86719,2.51172 -0.0625,0.53906 -0.19141,0.79688 -0.39844,0.79688 -0.33594,0 -0.86719,-0.66016 -1.48047,-1.42578 -0.71875,-0.89454 -1.61328,-2.00782 -2.53906,-2.48829 -0.35156,-0.17968 -0.51172,-0.4414 -0.48047,-0.78515 0.0234,-0.27344 0.17188,-0.59375 0.42969,-0.95703 0.22265,-0.3086 0.53515,-0.64844 0.90625,-0.98438 0.64062,-0.57422 1.41797,-1.10156 1.80859,-1.22265 0.31641,-0.0977 0.60938,-0.14454 0.86719,-0.14454 m 0,-0.0195 c -0.25,0 -0.54297,0.043 -0.875,0.14453 -0.94141,0.29297 -4.44531,3.07422 -2.67188,3.99219 1.72266,0.88672 3.28516,3.91406 4.03516,3.91406 0.21094,0 0.35156,-0.23828 0.42188,-0.82031 0.1875,-1.60156 2.11328,-2.46484 2.96093,-3.52734 0.90625,-1.12891 -2.88281,-2.7461 -2.88672,-3.0625 0,-0.36719 -0.36328,-0.64453 -0.98828,-0.64453 z m 0,0"
     fill-opacity="1"
     fill-rule="nonzero"
     id="path21"
     style="fill:#ffffff" />
  <path
     fill="#a45d3a"
     d="m 160.87507,195.48437 c 0.32813,0 0.60157,0.0742 0.79297,0.20313 0.17578,0.125 0.27735,0.29296 0.27735,0.49218 0,0.10938 0.30859,0.3086 0.89062,0.66797 0.47266,0.29297 1.05469,0.65235 1.53906,1.03906 0.25782,0.20313 0.46875,0.40235 0.61719,0.58594 0.16797,0.20313 0.27344,0.39844 0.30469,0.57422 0.0312,0.1875 -0.0156,0.36328 -0.14063,0.51953 -0.3125,0.39063 -0.7539,0.75391 -1.22265,1.13672 -0.95313,0.78906 -1.9375,1.59766 -2.07422,2.79297 -0.0664,0.59375 -0.21485,0.88672 -0.44141,0.88672 -0.37109,0 -0.96094,-0.73438 -1.64453,-1.58203 -0.80078,-0.9961 -1.79297,-2.23438 -2.82812,-2.76563 -0.39063,-0.20312 -0.57032,-0.49219 -0.53516,-0.875 0.0273,-0.30469 0.19141,-0.66406 0.48047,-1.0664 0.25,-0.34375 0.59765,-0.71875 1.0039,-1.08985 0.71094,-0.64062 1.57813,-1.22656 2.01172,-1.35937 0.34766,-0.10938 0.67578,-0.16407 0.96485,-0.16407 m 0,-0.0273 c -0.27735,0 -0.60157,0.0508 -0.96875,0.16406 -1.04688,0.32032 -4.94141,3.41797 -2.96875,4.42969 1.91406,0.98828 3.65234,4.35156 4.48437,4.35156 0.23047,0 0.39063,-0.25781 0.46875,-0.90625 0.20313,-1.78125 2.34375,-2.74218 3.29297,-3.92187 1.00391,-1.25391 -3.20312,-3.05078 -3.21094,-3.40235 0,-0.41015 -0.39843,-0.71875 -1.09375,-0.71875 z m 0,0"
     fill-opacity="1"
     fill-rule="nonzero"
     id="path22"
     style="fill:#ffffff" />
  <path
     fill="#a45d3a"
     d="m 160.87898,194.87109 c 0.36328,0 0.66797,0.0742 0.88281,0.22266 0.19922,0.13671 0.3086,0.32421 0.3086,0.55078 0,0.125 0.34375,0.33593 0.99609,0.73828 0.52344,0.32422 1.17578,0.72656 1.70703,1.14844 0.28906,0.23046 0.51563,0.44921 0.68359,0.64843 0.1875,0.23047 0.30469,0.44922 0.33594,0.64453 0.0352,0.20704 -0.0195,0.40235 -0.15625,0.57422 -0.35156,0.4336 -0.84375,0.83985 -1.35937,1.26953 -1.0586,0.8711 -2.14844,1.77344 -2.3086,3.10547 -0.0742,0.66016 -0.23437,0.98438 -0.48828,0.98438 -0.41797,0 -1.07031,-0.8125 -1.82812,-1.76172 -0.89063,-1.10156 -1.99219,-2.48047 -3.14063,-3.07422 -0.42969,-0.22266 -0.63281,-0.54687 -0.58984,-0.96875 0.0312,-0.33984 0.20703,-0.73828 0.53125,-1.17969 0.27734,-0.38281 0.66015,-0.80078 1.11719,-1.21093 0.78906,-0.71485 1.75,-1.36329 2.23437,-1.50782 0.38672,-0.12109 0.74609,-0.17968 1.07031,-0.17968 m 0,-0.0274 c -0.30859,0 -0.66797,0.0547 -1.08203,0.17969 -1.16015,0.35547 -5.48437,3.79687 -3.29687,4.92578 2.1289,1.09375 4.05859,4.83594 4.98437,4.83594 0.25781,0 0.4375,-0.29297 0.51563,-1.00781 0.23047,-1.97657 2.60937,-3.04688 3.66015,-4.35938 1.11719,-1.39453 -3.55859,-3.39062 -3.5664,-3.77344 -0.004,-0.45703 -0.44532,-0.80078 -1.21875,-0.80078 z m 0,0"
     fill-opacity="1"
     fill-rule="nonzero"
     id="path23"
     style="fill:#ffffff" />
  <path
     fill="#a45d3a"
     d="m 160.87898,194.18359 c 0.40234,0 0.74219,0.082 0.98047,0.25 0.22265,0.14844 0.34375,0.35937 0.34375,0.60547 0,0.14062 0.3789,0.3789 1.10547,0.82812 0.57812,0.35547 1.30468,0.80469 1.89843,1.27735 0.32032,0.2539 0.57422,0.49609 0.75782,0.71875 0.21093,0.2539 0.33593,0.49609 0.375,0.71484 0.043,0.23047 -0.0156,0.44531 -0.17188,0.64063 -0.39062,0.48046 -0.93359,0.93359 -1.51172,1.40625 -1.17578,0.96875 -2.39062,1.96875 -2.55859,3.44921 -0.0859,0.73047 -0.26563,1.08985 -0.54688,1.08985 -0.46093,0 -1.1875,-0.90625 -2.02734,-1.95313 -0.98828,-1.22656 -2.21875,-2.75781 -3.49219,-3.41406 -0.47656,-0.24609 -0.69531,-0.60547 -0.65625,-1.07422 0.0352,-0.3789 0.23438,-0.82031 0.58985,-1.3164 0.30859,-0.42188 0.73828,-0.88672 1.24218,-1.34375 0.875,-0.78907 1.94532,-1.51563 2.48438,-1.67969 0.42969,-0.13281 0.83203,-0.19922 1.1875,-0.19922 m 0,-0.0352 c -0.34375,0 -0.74609,0.0664 -1.19531,0.20313 -1.29297,0.39844 -6.10157,4.21875 -3.66407,5.47265 2.36329,1.21875 4.50782,5.3711 5.53125,5.3711 0.28516,0 0.48438,-0.32031 0.57813,-1.1211 0.25391,-2.19921 2.89453,-3.38281 4.0625,-4.84375 1.24609,-1.55078 -3.95313,-3.76562 -3.95703,-4.19531 -0.004,-0.50781 -0.4961,-0.89062 -1.35547,-0.89062 z m 0,0"
     fill-opacity="1"
     fill-rule="nonzero"
     id="path24"
     style="fill:#ffffff" />
  <path
     fill="#a45d3a"
     d="m 160.88679,193.41796 c 0.44531,0 0.82031,0.0937 1.08203,0.27735 0.2461,0.16797 0.38282,0.40234 0.38672,0.67969 0,0.15234 0.41797,0.41796 1.22656,0.91406 0.64844,0.39844 1.44922,0.89453 2.10938,1.42187 0.35937,0.28516 0.64062,0.55469 0.84766,0.80078 0.23046,0.28125 0.375,0.54688 0.41406,0.78907 0.043,0.2539 -0.0234,0.49609 -0.19141,0.71093 -0.42969,0.53516 -1.03906,1.03516 -1.67969,1.5625 -1.30468,1.07813 -2.65625,2.19141 -2.84765,3.83594 -0.0937,0.81641 -0.29688,1.21485 -0.60938,1.21485 -0.50781,0 -1.3164,-1.00782 -2.2539,-2.17188 -1.09766,-1.36328 -2.46485,-3.0625 -3.87891,-3.79297 -0.53125,-0.27344 -0.77734,-0.67969 -0.73047,-1.19922 0.0352,-0.41406 0.26172,-0.90625 0.66016,-1.45703 0.33594,-0.47265 0.8164,-0.98437 1.3789,-1.49609 0.97266,-0.87891 2.16407,-1.6836 2.75782,-1.86719 0.47656,-0.14844 0.92578,-0.22266 1.32031,-0.22266 m 0,-0.0351 c -0.38281,0 -0.82813,0.0664 -1.33203,0.22265 -1.4336,0.44141 -6.77344,4.6875 -4.07031,6.08204 2.625,1.35156 5.01171,5.96875 6.14843,5.96875 0.32032,0 0.54297,-0.35938 0.64453,-1.24219 0.28516,-2.44531 3.21875,-3.76172 4.51954,-5.37891 1.3789,-1.72656 -4.39844,-4.1875 -4.40235,-4.66015 -0.004,-0.5625 -0.55469,-0.98829 -1.5,-0.98829 z m 0,0"
     fill-opacity="1"
     fill-rule="nonzero"
     id="path25"
     style="fill:#ffffff" />
  <path
     fill="#a45d3a"
     d="m 160.88679,192.57031 c 0.49219,0 0.91406,0.10547 1.20313,0.30859 0.27734,0.1875 0.42187,0.44922 0.42578,0.75 0,0.16797 0.46875,0.46875 1.36328,1.01563 0.71875,0.44531 1.60937,1 2.34766,1.57812 0.39453,0.31641 0.70703,0.61719 0.9375,0.89063 0.25781,0.3125 0.41406,0.61328 0.46484,0.8789 0.0469,0.28516 -0.0234,0.55078 -0.21484,0.78516 -0.48047,0.60156 -1.15235,1.15625 -1.86329,1.73828 -1.45312,1.19922 -2.94921,2.43359 -3.16406,4.25781 -0.10937,0.91016 -0.32812,1.35157 -0.67578,1.35157 -0.56641,0 -1.46484,-1.11719 -2.50781,-2.41407 -1.21875,-1.51562 -2.73438,-3.40234 -4.30469,-4.21093 -0.58984,-0.30469 -0.86328,-0.75391 -0.80859,-1.33204 0.0391,-0.46484 0.28515,-1.01171 0.72656,-1.62109 0.37891,-0.52344 0.91016,-1.10156 1.53125,-1.66406 1.08594,-0.97656 2.40234,-1.8711 3.06641,-2.07422 0.53125,-0.16016 1.02734,-0.24609 1.47265,-0.24609 m 0,-0.0352 c -0.42578,0 -0.92187,0.0781 -1.48047,0.24609 -1.59765,0.49219 -7.53125,5.21094 -4.52343,6.76172 2.91796,1.50391 5.5625,6.62891 6.83203,6.62891 0.35547,0 0.60156,-0.39844 0.71093,-1.37891 0.31641,-2.71875 3.57422,-4.17969 5.01954,-5.98047 1.53125,-1.91406 -4.88672,-4.64843 -4.89063,-5.17578 -0.004,-0.625 -0.60937,-1.09765 -1.66797,-1.09765 z m 0,0"
     fill-opacity="1"
     fill-rule="nonzero"
     id="path26"
     style="fill:#ffffff" />
  <path
     fill="#a45d3a"
     d="m 160.8907,191.625 c 0.55469,0 1.01562,0.11718 1.33984,0.33984 0.30469,0.21094 0.46875,0.5 0.47266,0.83594 0,0.1914 0.52344,0.51953 1.51562,1.13672 0.79688,0.48828 1.78516,1.10156 2.60547,1.75 0.4375,0.34765 0.78906,0.68359 1.04297,0.98828 0.29297,0.34765 0.46094,0.67968 0.51563,0.97656 0.0547,0.31641 -0.0274,0.61328 -0.23829,0.875 -0.53125,0.66406 -1.27734,1.28125 -2.07031,1.9375 -1.61328,1.32422 -3.28125,2.70312 -3.51953,4.73047 -0.11328,1.00781 -0.35937,1.49609 -0.75,1.49609 -0.62891,0 -1.62891,-1.24219 -2.78125,-2.67969 -1.35547,-1.68359 -3.03906,-3.78125 -4.78906,-4.68359 -0.65625,-0.33984 -0.95313,-0.83594 -0.89844,-1.47656 0.0469,-0.51563 0.32031,-1.125 0.80859,-1.80078 0.42188,-0.58203 1.01172,-1.22266 1.70313,-1.84766 1.20703,-1.08594 2.66797,-2.07812 3.40625,-2.30469 0.58984,-0.18359 1.14062,-0.27343 1.63281,-0.27343 m 0,-0.0391 c -0.47656,0 -1.02344,0.0859 -1.64453,0.27735 -1.77734,0.54297 -8.36719,5.78515 -5.02734,7.51172 3.23828,1.66796 6.18359,7.36718 7.58984,7.36718 0.39453,0 0.66797,-0.44531 0.79297,-1.53906 0.34766,-3.01562 3.97266,-4.64062 5.57422,-6.64453 1.70703,-2.125 -5.42188,-5.16797 -5.4336,-5.75391 -0.008,-0.69531 -0.68359,-1.21875 -1.85156,-1.21875 z m 0,0"
     fill-opacity="1"
     fill-rule="nonzero"
     id="path27"
     style="fill:#ffffff" />
  <path
     fill="#a45d3a"
     d="m 160.8907,190.57812 c 0.61719,0 1.1289,0.12891 1.49219,0.37891 0.33984,0.23047 0.52343,0.55468 0.52343,0.92968 0,0.20704 0.57813,0.57422 1.6836,1.25782 0.88281,0.54687 1.98828,1.23047 2.89453,1.94922 0.48828,0.38671 0.8789,0.75781 1.16406,1.09765 0.32031,0.39063 0.51172,0.75781 0.57031,1.08594 0.0625,0.35156 -0.0273,0.67969 -0.26562,0.97266 -0.58985,0.73828 -1.41797,1.42187 -2.30078,2.15234 -1.78907,1.47266 -3.64063,3 -3.90235,5.25781 -0.13281,1.1211 -0.40234,1.66406 -0.83203,1.66406 -0.70312,0 -1.8125,-1.3789 -3.09375,-2.97265 -1.5039,-1.875 -3.37109,-4.19922 -5.3164,-5.20703 -0.73047,-0.375 -1.0625,-0.92969 -1,-1.64453 0.0469,-0.57032 0.35156,-1.2461 0.90234,-2 0.46875,-0.64844 1.12109,-1.35938 1.89453,-2.05079 1.33594,-1.20703 2.96094,-2.30859 3.78516,-2.55859 0.65625,-0.20312 1.26172,-0.30469 1.8125,-0.30469 m 0,-0.0469 c -0.52344,0 -1.14063,0.0937 -1.82813,0.30469 -1.96875,0.60546 -9.29297,6.42968 -5.58594,8.34375 3.60157,1.85546 6.875,8.18359 8.4375,8.18359 0.4336,0 0.73829,-0.49219 0.87891,-1.70703 0.39063,-3.35156 4.41797,-5.16016 6.19922,-7.38281 1.89453,-2.36329 -6.02734,-5.73829 -6.03516,-6.39063 -0.0117,-0.77344 -0.76172,-1.35547 -2.0664,-1.35547 z m 0,0"
     fill-opacity="1"
     fill-rule="nonzero"
     id="path28"
     style="fill:#ffffff" />
  <path
     fill="#a45d3a"
     d="m 160.8946,189.41406 c 0.6836,0 1.25391,0.14844 1.65625,0.42187 0.375,0.25782 0.58204,0.61328 0.58594,1.03125 0,0.23438 0.64453,0.64453 1.8711,1.39844 0.98437,0.60547 2.20703,1.36328 3.21875,2.16016 0.54687,0.43359 0.97656,0.84765 1.29296,1.22265 0.35547,0.4336 0.57032,0.83985 0.63282,1.20313 0.0664,0.39062 -0.0312,0.75781 -0.29297,1.08203 -0.66016,0.82031 -1.57813,1.58203 -2.5586,2.38672 -1.98828,1.64062 -4.04687,3.33594 -4.33984,5.84375 -0.14062,1.24609 -0.44531,1.85156 -0.92187,1.85156 -0.77735,0 -2.01172,-1.53516 -3.4375,-3.3125 -1.67188,-2.07812 -3.75,-4.66797 -5.91016,-5.78125 -0.80859,-0.41406 -1.1875,-1.03125 -1.11328,-1.82812 0.0586,-0.63282 0.39062,-1.38282 1,-2.22266 0.52344,-0.71875 1.24609,-1.50781 2.10547,-2.28125 1.48828,-1.34375 3.29297,-2.5625 4.20312,-2.84375 0.73047,-0.22266 1.41016,-0.33594 2.01563,-0.33594 m 0,-0.0547 c -0.58203,0 -1.26563,0.10547 -2.03125,0.33985 -2.19141,0.67187 -10.32813,7.14453 -6.20703,9.26953 4,2.06641 7.63281,9.09766 9.37109,9.09766 0.48047,0 0.82031,-0.54297 0.97656,-1.89454 0.4336,-3.72656 4.90625,-5.73046 6.88672,-8.20312 2.10547,-2.625 -6.69922,-6.37891 -6.70703,-7.10156 -0.0117,-0.86328 -0.84375,-1.50782 -2.29297,-1.50782 z m 0,0"
     fill-opacity="1"
     fill-rule="nonzero"
     id="path29"
     style="fill:#ffffff" />
  <path
     fill="#a45d3a"
     d="m 160.89851,188.11718 c 0.75781,0 1.39453,0.16407 1.83984,0.46485 0.42188,0.28906 0.64454,0.68359 0.64844,1.14843 0,0.26172 0.71485,0.71094 2.07813,1.55469 1.09375,0.67578 2.45312,1.51563 3.57031,2.40625 0.60156,0.48047 1.08594,0.9375 1.43359,1.35547 0.39844,0.48047 0.63672,0.92969 0.70703,1.34375 0.0742,0.42969 -0.0352,0.83203 -0.32812,1.19922 -0.72656,0.90625 -1.75391,1.75781 -2.83984,2.64844 -2.21094,1.82422 -4.5,3.71093 -4.82032,6.49218 -0.16406,1.38672 -0.49609,2.05469 -1.02734,2.05469 -0.86719,0 -2.23438,-1.69922 -3.82422,-3.67578 -1.85547,-2.30859 -4.16797,-5.1875 -6.56641,-6.42578 -0.89843,-0.46484 -1.3125,-1.14844 -1.23437,-2.02734 0.0625,-0.70704 0.4375,-1.53516 1.11328,-2.46875 0.58203,-0.80079 1.38672,-1.67579 2.33594,-2.53516 1.65625,-1.49219 3.66015,-2.85156 4.67187,-3.15625 0.8086,-0.25391 1.5625,-0.37891 2.23828,-0.37891 m 0,-0.0547 c -0.64843,0 -1.40234,0.11328 -2.25781,0.375 -2.42969,0.74609 -11.47265,7.9375 -6.89453,10.29687 4.44531,2.29297 8.48047,10.10547 10.41016,10.10547 0.53906,0 0.91406,-0.60547 1.08593,-2.10547 0.48438,-4.13672 5.45313,-6.36328 7.65235,-9.11328 2.33594,-2.91797 -7.44531,-7.08984 -7.45313,-7.89453 -0.0117,-0.95703 -0.9414,-1.67188 -2.54687,-1.67188 z m 0,0"
     fill-opacity="1"
     fill-rule="nonzero"
     id="path30"
     style="fill:#ffffff" />
  <path
     fill="#a45d3a"
     d="m 160.90242,186.68359 c 0.84375,0 1.55078,0.17969 2.04687,0.51953 0.46485,0.32031 0.71485,0.75781 0.71875,1.27344 0,0.28906 0.79688,0.78906 2.3125,1.73047 1.21485,0.75 2.72266,1.68359 3.96485,2.67187 0.67187,0.53125 1.20703,1.03906 1.59375,1.50391 0.4414,0.53125 0.70312,1.03515 0.78125,1.49219 0.0859,0.48437 -0.0391,0.92968 -0.36329,1.33593 -0.80859,1.00782 -1.94921,1.94922 -3.16015,2.94532 -2.45703,2.02343 -5,4.11718 -5.35547,7.21093 -0.17969,1.53516 -0.55469,2.28125 -1.14453,2.28125 -0.96094,0 -2.48438,-1.89453 -4.2461,-4.08203 -2.0625,-2.57031 -4.6289,-5.76562 -7.29687,-7.14062 -0.99609,-0.51172 -1.46094,-1.27344 -1.37109,-2.25782 0.0703,-0.78515 0.48828,-1.71093 1.23828,-2.74218 0.64453,-0.88672 1.54297,-1.86328 2.59765,-2.8125 1.83594,-1.66016 4.06641,-3.16797 5.1875,-3.51172 0.89844,-0.27735 1.73828,-0.41797 2.48828,-0.41797 m 0,-0.0625 c -0.71875,0 -1.55859,0.12891 -2.50781,0.42187 -2.70312,0.83204 -12.7539,8.82032 -7.66406,11.44532 4.9375,2.54687 9.42578,11.22656 11.57031,11.22656 0.59766,0 1.01563,-0.67188 1.20703,-2.33984 0.53516,-4.59766 6.0586,-7.07813 8.50391,-10.125 2.59766,-3.24219 -8.27344,-7.875 -8.28125,-8.76954 -0.0156,-1.0625 -1.04297,-1.85937 -2.82813,-1.85937 z m 0,0"
     fill-opacity="1"
     fill-rule="nonzero"
     id="path31"
     style="fill:#ffffff" />
  <path
     fill="#a45d3a"
     d="m 160.90632,185.08593 c 0.9375,0 1.72657,0.19922 2.26953,0.57422 0.51954,0.35938 0.79688,0.84766 0.80079,1.41797 0,0.32031 0.88671,0.87891 2.57031,1.92188 1.34765,0.83593 3.02734,1.87109 4.41015,2.96484 0.7461,0.59375 1.33985,1.15625 1.76954,1.67578 0.49218,0.59375 0.78125,1.14844 0.87109,1.65625 0.0937,0.53906 -0.043,1.03516 -0.40234,1.48438 -0.89844,1.12109 -2.16797,2.16796 -3.50782,3.27734 -2.73047,2.25 -5.55468,4.57422 -5.95312,8.01172 -0.19531,1.70703 -0.60938,2.53906 -1.26953,2.53906 -1.06641,0 -2.75391,-2.10547 -4.71094,-4.53906 -2.29297,-2.85547 -5.14453,-6.40235 -8.10547,-7.92969 -1.10937,-0.57422 -1.625,-1.41797 -1.52734,-2.50781 0.0781,-0.8711 0.54297,-1.89844 1.375,-3.04688 0.71484,-0.98828 1.71093,-2.0664 2.88672,-3.125 2.03515,-1.84375 4.51562,-3.52343 5.76562,-3.90234 1.00391,-0.30859 1.93359,-0.46094 2.76953,-0.46094 m 0,-0.0703 c -0.80078,0 -1.73437,0.14453 -2.78906,0.46484 -3.00391,0.92188 -14.17188,9.79688 -8.51172,12.71485 5.48438,2.83203 10.47266,12.48047 12.85547,12.48047 0.66406,0 1.125,-0.7461 1.33984,-2.60157 0.59375,-5.11328 6.73047,-7.86328 9.44532,-11.25 2.88671,-3.60547 -9.1875,-8.7539 -9.19922,-9.74609 -0.0156,-1.17969 -1.16016,-2.0625 -3.14063,-2.0625 z m 0,0"
     fill-opacity="1"
     fill-rule="nonzero"
     id="path32"
     style="fill:#ffffff" />
  <path
     fill="#a45d3a"
     d="m 160.91023,183.3125 c 1.04297,0 1.91406,0.22265 2.52734,0.63671 0.57422,0.39454 0.87891,0.9375 0.88672,1.57422 0,0.35547 0.98047,0.97657 2.85156,2.12891 1.50391,0.92578 3.3711,2.07812 4.90235,3.30078 0.82812,0.66016 1.48828,1.28516 1.96484,1.85547 0.54688,0.66016 0.8711,1.27734 0.96485,1.84375 0.10546,0.59375 -0.0469,1.14844 -0.44532,1.64844 -1,1.24609 -2.41015,2.40625 -3.89453,3.63672 -3.03515,2.5 -6.17187,5.08203 -6.61328,8.90234 -0.21875,1.89844 -0.68359,2.82031 -1.41406,2.82031 -1.1875,0 -3.06641,-2.33594 -5.24219,-5.04297 -2.54687,-3.16797 -5.71484,-7.11328 -9.00781,-8.8125 -1.23438,-0.63281 -1.80078,-1.57031 -1.69141,-2.78125 0.082,-0.97265 0.59766,-2.10937 1.52344,-3.38672 0.79297,-1.09765 1.90234,-2.29687 3.20312,-3.47656 2.26563,-2.04687 5.02344,-3.91015 6.40625,-4.33594 1.11329,-0.33984 2.14454,-0.51171 3.07422,-0.51171 m 0,-0.082 c -0.88672,0 -1.92578,0.15625 -3.09765,0.51954 -3.33594,1.02343 -15.74219,10.88671 -9.45703,14.13281 6.09765,3.14453 11.63671,13.86328 14.28515,13.86328 0.73828,0 1.25,-0.83203 1.48828,-2.89063 0.66016,-5.67968 7.48047,-8.73437 10.4961,-12.5039 3.20703,-4 -10.21094,-9.72656 -10.22266,-10.82813 -0.0156,-1.30859 -1.28516,-2.29297 -3.49609,-2.29297 z m 0,0"
     fill-opacity="1"
     fill-rule="nonzero"
     id="path33"
     style="fill:#ffffff" />
  <path
     fill="#a45d3a"
     d="m 160.91804,181.33984 c 1.15625,0 2.125,0.24609 2.80469,0.71094 0.63672,0.4375 0.97656,1.04687 0.98828,1.74609 0,0.39844 1.08984,1.08594 3.16797,2.37109 1.66406,1.02735 3.73828,2.3086 5.44141,3.66016 0.92187,0.73438 1.65234,1.42969 2.18359,2.07031 0.60547,0.73438 0.96875,1.42188 1.07422,2.04688 0.11719,0.66015 -0.0547,1.27734 -0.4961,1.83203 -1.10937,1.38281 -2.67578,2.67578 -4.32812,4.03906 -3.37109,2.77735 -6.85547,5.65235 -7.35156,9.89453 -0.2461,2.10938 -0.76172,3.13282 -1.57032,3.13282 -1.3164,0 -3.40234,-2.59766 -5.82031,-5.60157 -2.82812,-3.52343 -6.35547,-7.90625 -10.01172,-9.78906 -1.36718,-0.70703 -2,-1.74609 -1.8789,-3.09766 0.0976,-1.07812 0.66406,-2.34375 1.6914,-3.76562 0.88282,-1.21875 2.11328,-2.55078 3.5625,-3.85938 2.51953,-2.27343 5.57813,-4.34375 7.11719,-4.8164 1.23438,-0.37891 2.38281,-0.57422 3.41406,-0.57422 m 0,-0.0898 c -0.98828,0 -2.14062,0.17578 -3.4414,0.57812 -3.70313,1.14063 -17.48828,12.09766 -10.50782,15.69922 6.77344,3.49609 12.92579,15.40625 15.8711,15.40625 0.8164,0 1.39062,-0.92578 1.65234,-3.20703 0.73438,-6.3086 8.3125,-9.70703 11.66406,-13.89063 3.56641,-4.44922 -11.34375,-10.80859 -11.35937,-12.03125 -0.0117,-1.45703 -1.42578,-2.54687 -3.87891,-2.54687 z m 0,0"
     fill-opacity="1"
     fill-rule="nonzero"
     id="path34"
     style="fill:#ffffff" />
  <path
     fill="#a45d3a"
     d="m 160.92195,179.15234 c 1.28515,0 2.36328,0.27344 3.11328,0.78906 0.71094,0.48828 1.08984,1.16016 1.09766,1.94531 0.008,0.44141 1.21093,1.20704 3.52343,2.63282 1.84766,1.14062 4.15625,2.5625 6.05078,4.07031 1.02344,0.8125 1.83985,1.58594 2.42579,2.29297 0.66796,0.8164 1.07031,1.57812 1.1914,2.26953 0.125,0.73437 -0.0586,1.42187 -0.54687,2.03516 -1.23438,1.53906 -2.97266,2.96875 -4.8125,4.48828 -3.7461,3.08984 -7.6211,6.27734 -8.16407,10.99609 -0.27343,2.33984 -0.83984,3.48047 -1.74609,3.48047 -1.46484,0 -3.78125,-2.88672 -6.46875,-6.22266 -3.14453,-3.91406 -7.05469,-8.78515 -11.12109,-10.8789 -1.51953,-0.78516 -2.22657,-1.94532 -2.08985,-3.44141 0.10547,-1.19531 0.73828,-2.60547 1.88282,-4.17969 0.98046,-1.35547 2.35156,-2.83984 3.96093,-4.28906 2.79688,-2.52734 6.19532,-4.83203 7.90625,-5.35547 1.375,-0.41797 2.65235,-0.63281 3.79688,-0.63281 m 0,-0.0977 c -1.09766,0 -2.37891,0.19532 -3.82031,0.63672 -4.1211,1.26563 -19.4336,13.44531 -11.67579,17.44531 7.52735,3.87891 14.36329,17.11329 17.62891,17.11329 0.91406,0 1.54688,-1.02735 1.84375,-3.5625 0.8125,-7.01172 9.23047,-10.78516 12.95703,-15.4336 3.96094,-4.9414 -12.60547,-12.0039 -12.61719,-13.36719 -0.0195,-1.61718 -1.58593,-2.82812 -4.3125,-2.82812 z m 0,0"
     fill-opacity="1"
     fill-rule="nonzero"
     id="path35"
     style="fill:#ffffff" />
  <path
     fill="#a45d3a"
     d="m 160.92585,176.71875 c 1.42969,0 2.625,0.30078 3.46094,0.8789 0.78906,0.53906 1.21094,1.28516 1.22266,2.15625 0.004,0.49219 1.34375,1.33985 3.91406,2.92578 2.05859,1.26953 4.62109,2.85157 6.71875,4.52735 1.13672,0.90234 2.04297,1.76562 2.69531,2.55078 0.7461,0.90234 1.19141,1.7539 1.32813,2.52344 0.14062,0.82031 -0.0664,1.57812 -0.61328,2.26171 -1.3711,1.71094 -3.30078,3.30079 -5.34766,4.98829 -4.16016,3.42968 -8.46484,6.97265 -9.07031,12.21484 -0.30469,2.59766 -0.9375,3.86719 -1.9375,3.86719 -1.62891,0 -4.20313,-3.20703 -7.1836,-6.91407 -3.49609,-4.34765 -7.84375,-9.75781 -12.35546,-12.08984 -1.69141,-0.87109 -2.47266,-2.16016 -2.32422,-3.82031 0.12109,-1.33203 0.82422,-2.89453 2.08984,-4.64844 1.09375,-1.50391 2.60938,-3.14844 4.39844,-4.76562 3.10937,-2.8086 6.88672,-5.36719 8.78906,-5.94922 1.52344,-0.46875 2.94531,-0.70313 4.21484,-0.70313 m 0,-0.10937 c -1.21484,0 -2.64062,0.21875 -4.25,0.71093 -4.57421,1.40235 -21.58984,14.9375 -12.97656,19.38282 8.36328,4.3164 15.96094,19.01953 19.59375,19.01953 1.01172,0 1.71485,-1.14063 2.04297,-3.96485 0.90234,-7.78515 10.25781,-11.98046 14.39844,-17.14843 4.39844,-5.48828 -14.00391,-13.33985 -14.02344,-14.85547 -0.0195,-1.79688 -1.76172,-3.14453 -4.78906,-3.14453 z m 0,0"
     fill-opacity="1"
     fill-rule="nonzero"
     id="path36"
     style="fill:#ffffff" />
  <path
     fill="#a45d3a"
     d="m 160.93367,174.01562 c 1.58593,0 2.91797,0.33984 3.84765,0.97266 0.875,0.60156 1.34375,1.42968 1.35547,2.39843 0.004,0.54688 1.4961,1.48829 4.34766,3.25391 2.28515,1.41016 5.13281,3.16797 7.46484,5.02734 1.26172,1.00391 2.26953,1.95313 2.9961,2.83594 0.82812,1.00391 1.32421,1.94531 1.47265,2.80469 0.15625,0.90625 -0.0703,1.75 -0.67969,2.51172 -1.52343,1.89844 -3.66796,3.66797 -5.9414,5.54297 -4.625,3.8125 -9.40625,7.7539 -10.08203,13.57422 -0.33594,2.89062 -1.03907,4.29687 -2.14844,4.29687 -1.80859,0 -4.67578,-3.55859 -7.98438,-7.68359 -3.88281,-4.82813 -8.71484,-10.84375 -13.73437,-13.42969 -1.875,-0.96875 -2.74609,-2.39453 -2.58203,-4.24609 0.13672,-1.47657 0.91797,-3.21485 2.32422,-5.16407 1.21093,-1.67187 2.89843,-3.5039 4.89062,-5.29297 3.45313,-3.12109 7.65235,-5.96093 9.76172,-6.60937 1.69531,-0.51953 3.26953,-0.78125 4.68359,-0.78125 m 0,-0.12109 c -1.35546,0 -2.9375,0.24218 -4.71875,0.78515 -5.08593,1.5625 -23.99218,16.60156 -14.41406,21.53516 9.29297,4.79687 17.73438,21.1289 21.76953,21.1289 1.125,0 1.90625,-1.26953 2.26953,-4.40625 1.00391,-8.65234 11.39844,-13.3125 15.9961,-19.05078 4.89062,-6.10156 -15.5625,-14.82422 -15.58203,-16.5039 -0.0195,-1.9961 -1.95703,-3.49219 -5.32032,-3.49219 z m 0,0"
     fill-opacity="1"
     fill-rule="nonzero"
     id="path37"
     style="fill:#ffffff" />
  <path
     fill="#a45d3a"
     d="m 160.94148,171.01171 c 1.76562,0 3.24609,0.375 4.27734,1.08594 0.97266,0.66797 1.49219,1.58985 1.50782,2.66406 0.004,0.60547 1.66015,1.65235 4.82812,3.60938 2.54297,1.56641 5.70313,3.51953 8.29688,5.58203 1.40625,1.11719 2.52734,2.17578 3.33203,3.15234 0.91797,1.11719 1.47265,2.16016 1.64062,3.11329 0.17188,1.0039 -0.082,1.94921 -0.75781,2.78906 -1.69141,2.11328 -4.07422,4.07812 -6.59766,6.15625 -5.14062,4.23437 -10.45312,8.61328 -11.20312,15.07812 -0.3711,3.21094 -1.15235,4.77735 -2.39063,4.77735 -2.01172,0 -5.1914,-3.96094 -8.875,-8.53907 -4.3125,-5.36718 -9.68359,-12.05078 -15.2539,-14.92187 -2.08985,-1.07813 -3.05469,-2.66406 -2.8711,-4.71875 0.14844,-1.64453 1.01563,-3.57422 2.58203,-5.73828 1.34766,-1.85547 3.22266,-3.89063 5.42969,-5.88281 3.83985,-3.46875 8.50391,-6.6211 10.85156,-7.33985 1.87891,-0.57812 3.63282,-0.87109 5.20313,-0.87109 m 0,-0.13281 c -1.5,0 -3.26172,0.26562 -5.23828,0.875 -5.64844,1.73046 -26.66016,18.4375 -16.01953,23.92968 10.32422,5.32422 19.70312,23.47657 24.1914,23.47657 1.25,0 2.11719,-1.40625 2.52344,-4.89063 1.11719,-9.61719 12.66406,-14.79297 17.77734,-21.16797 5.4336,-6.78515 -17.29296,-16.46875 -17.3125,-18.34375 -0.0234,-2.21875 -2.17578,-3.8789 -5.91406,-3.8789 z m 0,0"
     fill-opacity="1"
     fill-rule="nonzero"
     id="path38"
     style="fill:#ffffff" />
  <path
     fill="#a45d3a"
     d="m 160.9532,167.67578 c 1.96094,0 3.60156,0.41406 4.75,1.20312 1.07812,0.74219 1.66015,1.76563 1.66797,2.96485 0.0117,0.67187 1.84765,1.83984 5.36718,4.01171 2.82422,1.74219 6.33594,3.91016 9.22266,6.20313 1.5625,1.24219 2.80469,2.41797 3.70313,3.50391 1.02343,1.23828 1.63281,2.40625 1.8164,3.46484 0.19141,1.12109 -0.0898,2.16016 -0.83984,3.09766 -1.88281,2.34765 -4.53125,4.53125 -7.33594,6.83984 -5.70703,4.70703 -11.60937,9.57031 -12.44531,16.75781 -0.41406,3.56641 -1.28125,5.30078 -2.65625,5.30078 -2.23438,0 -5.76563,-4.39453 -9.85547,-9.48828 -4.79297,-5.96484 -10.75391,-13.38672 -16.94922,-16.58203 -2.32031,-1.19531 -3.39062,-2.95703 -3.1875,-5.23828 0.16797,-1.82813 1.13281,-3.97266 2.87109,-6.375 1.49219,-2.06641 3.57813,-4.32813 6.03125,-6.53906 4.26172,-3.85157 9.44532,-7.35547 12.05469,-8.15625 2.09375,-0.64453 4.03516,-0.96485 5.78516,-0.96485 m 0,-0.14843 c -1.67188,0 -3.625,0.30078 -5.82813,0.97265 -6.27734,1.92578 -29.62109,20.49219 -17.79687,26.58985 11.47265,5.91796 21.89453,26.08593 26.875,26.08593 1.39062,0 2.35547,-1.5625 2.80469,-5.4375 1.24218,-10.67968 14.07031,-16.4375 19.75,-23.52343 6.03515,-7.53125 -19.21485,-18.29688 -19.23438,-20.375 -0.0234,-2.46875 -2.41406,-4.3125 -6.57031,-4.3125 z m 0,0"
     fill-opacity="1"
     fill-rule="nonzero"
     id="path39"
     style="fill:#ffffff" />
  <path
     fill="#a45d3a"
     d="m 160.96101,163.96093 c 2.17578,0 4.00391,0.46485 5.27734,1.33985 1.20313,0.82812 1.84375,1.96093 1.85938,3.28906 0.008,0.74609 2.05078,2.04297 5.96484,4.46094 3.13672,1.93359 7.04297,4.34375 10.2461,6.89453 1.73047,1.3789 3.11328,2.6875 4.10937,3.89453 1.14063,1.375 1.82031,2.67187 2.01953,3.84375 0.21485,1.24219 -0.0976,2.40625 -0.93359,3.44531 -2.08984,2.60938 -5.03125,5.03516 -8.14844,7.60547 -6.33984,5.22656 -12.90234,10.63281 -13.83203,18.61719 -0.45703,3.96875 -1.42578,5.89453 -2.94922,5.89453 -2.48437,0 -6.40625,-4.89063 -10.95312,-10.54688 -5.32813,-6.625 -11.95313,-14.87109 -18.83594,-18.42187 -2.57813,-1.32813 -3.76563,-3.28906 -3.53906,-5.82422 0.18359,-2.02734 1.2539,-4.41016 3.1914,-7.08203 1.65625,-2.28906 3.97657,-4.80078 6.70313,-7.26172 4.73437,-4.28125 10.49609,-8.17578 13.39453,-9.06641 2.32422,-0.71484 4.48828,-1.07421 6.42578,-1.07421 m 0,-0.16407 c -1.85547,0 -4.02734,0.33203 -6.47656,1.08203 -6.97266,2.14063 -32.91016,22.76563 -19.77735,29.53907 12.75,6.57812 24.32813,28.98828 29.86329,28.98828 1.54296,0 2.61328,-1.73828 3.11718,-6.03906 1.37891,-11.8711 15.63282,-18.26563 21.94141,-26.13672 6.70703,-8.375 -21.34375,-20.33203 -21.37109,-22.64453 -0.0312,-2.74219 -2.6875,-4.79297 -7.30079,-4.79297 z m 0,0"
     fill-opacity="1"
     fill-rule="nonzero"
     id="path40"
     style="fill:#ffffff" />
  <path
     fill="#a45d3a"
     d="m 160.97273,159.84375 c 2.42187,0 4.44922,0.51171 5.86328,1.48437 1.33594,0.91797 2.05078,2.18359 2.06641,3.65625 0.008,0.83203 2.27734,2.26953 6.625,4.95313 3.48437,2.15234 7.82422,4.83203 11.38672,7.66406 1.92578,1.53125 3.45703,2.98437 4.5664,4.32422 1.26563,1.52734 2.01953,2.96875 2.2461,4.27734 0.23828,1.37891 -0.10938,2.66797 -1.03516,3.82422 -2.32031,2.89453 -5.59375,5.59375 -9.05859,8.44922 -7.04688,5.80859 -14.33204,11.8125 -15.36329,20.68359 -0.51171,4.40625 -1.58593,6.55078 -3.27734,6.55078 -2.75781,0 -7.125,-5.42968 -12.17187,-11.71484 -5.91797,-7.36328 -13.28125,-16.52734 -20.92579,-20.47266 -2.86328,-1.47265 -4.1875,-3.65234 -3.93359,-6.46875 0.20313,-2.25 1.39453,-4.89843 3.54297,-7.87109 1.84766,-2.54688 4.42187,-5.33984 7.44922,-8.07422 5.26562,-4.75391 11.66406,-9.08203 14.88672,-10.07031 2.58203,-0.78906 4.98047,-1.19141 7.14062,-1.19141 m 0,-0.18359 c -2.0625,0 -4.47656,0.36719 -7.19531,1.19922 -7.75,2.3789 -36.57031,25.29687 -21.97266,32.82812 14.16407,7.30469 27.03125,32.20313 33.1836,32.20313 1.71093,0 2.90234,-1.92969 3.46093,-6.71094 1.53516,-13.1875 17.375,-20.29297 24.38282,-29.03906 7.45312,-9.30469 -23.71875,-22.59375 -23.7461,-25.16016 -0.0312,-3.04687 -2.98437,-5.32422 -8.11328,-5.32422 z m 0,0"
     fill-opacity="1"
     fill-rule="nonzero"
     id="path41"
     style="fill:#ffffff" />
  <path
     fill="#a45d3a"
     d="m 160.98445,155.26171 c 2.6875,0 4.9414,0.57422 6.51562,1.65235 1.48047,1.01953 2.27735,2.42187 2.29297,4.0625 0.0117,0.92578 2.53516,2.52344 7.36719,5.5039 3.87109,2.39063 8.69141,5.36719 12.64844,8.51563 2.13672,1.70312 3.84375,3.31641 5.07031,4.80469 1.41016,1.69531 2.24609,3.29687 2.5,4.75 0.26172,1.53515 -0.12109,2.96484 -1.15234,4.24609 -2.57813,3.21875 -6.21485,6.21484 -10.0625,9.38672 -7.82813,6.45312 -15.92579,13.12891 -17.07422,22.98437 -0.57032,4.89454 -1.76172,7.27735 -3.64453,7.27735 -3.0625,0 -7.91016,-6.03125 -13.52344,-13.01563 -6.57422,-8.17968 -14.75391,-18.36328 -23.25,-22.74609 -3.17969,-1.63672 -4.65235,-4.05859 -4.3711,-7.1875 0.22266,-2.5 1.55079,-5.44531 3.9375,-8.74219 2.05079,-2.82812 4.91016,-5.92969 8.27735,-8.96875 5.84765,-5.28125 12.95703,-10.09375 16.53515,-11.1914 2.8711,-0.87891 5.53907,-1.32813 7.9336,-1.32813 m 0,-0.20312 c -2.29297,0 -4.97266,0.40625 -7.9961,1.33593 -8.60937,2.64063 -40.6289,28.10547 -24.41406,36.46875 15.73828,8.11719 30.03125,35.78516 36.86719,35.78516 1.90625,0 3.23047,-2.14453 3.84766,-7.45703 1.70312,-14.65625 19.30468,-22.55078 27.09375,-32.26953 8.28125,-10.33203 -26.35547,-25.10157 -26.38672,-27.94922 -0.0352,-3.38281 -3.31641,-5.91406 -9.01172,-5.91406 z m 0,0"
     fill-opacity="1"
     fill-rule="nonzero"
     id="path42"
     style="fill:#ffffff" />
  <path
     fill="#a45d3a"
     d="m 160.99617,150.17187 c 2.98828,0 5.49218,0.63672 7.23828,1.83984 1.64844,1.13282 2.53125,2.69141 2.55078,4.51172 0.0117,1.02735 2.8125,2.80078 8.18359,6.11719 4.30469,2.65234 9.65625,5.95703 14.05469,9.45703 2.375,1.89063 4.26953,3.6875 5.63672,5.33594 1.55859,1.88672 2.49609,3.66016 2.77734,5.27344 0.29297,1.70703 -0.13672,3.29687 -1.28125,4.72265 -2.86328,3.57813 -6.90234,6.90235 -11.17968,10.42969 -8.69922,7.17188 -17.69532,14.58203 -18.96875,25.53906 -0.62891,5.44141 -1.95704,8.08594 -4.04688,8.08594 -3.40625,0 -8.78906,-6.70312 -15.02734,-14.46484 -7.30469,-9.08985 -16.39453,-20.40235 -25.83594,-25.27344 -3.53516,-1.82031 -5.17188,-4.50781 -4.85938,-7.98828 0.25,-2.78125 1.72266,-6.05078 4.375,-9.71875 2.28125,-3.14453 5.45704,-6.58985 9.19922,-9.96485 6.5,-5.87109 14.39844,-11.21484 18.3711,-12.43359 3.1875,-0.98047 6.15234,-1.47656 8.8125,-1.47656 m 0,-0.22656 c -2.54688,0 -5.52344,0.45703 -8.87891,1.48437 -9.56641,2.93359 -45.14453,31.22656 -27.12891,40.51953 17.49219,9.02344 33.3711,39.76172 40.96875,39.76172 2.11329,0 3.58594,-2.38672 4.26954,-8.28906 1.89062,-16.28516 21.44921,-25.05078 30.10156,-35.84766 9.19922,-11.48437 -29.28125,-27.89453 -29.31641,-31.05859 -0.043,-3.76172 -3.68359,-6.57031 -10.01953,-6.57031 z m 0,0"
     fill-opacity="1"
     fill-rule="nonzero"
     id="path43"
     style="fill:#ffffff" />
  <path
     fill="#a45d3a"
     d="m 161.0157,144.52343 c 3.32031,0 6.09765,0.70313 8.04297,2.03907 1.83203,1.26171 2.80859,2.99609 2.83203,5.01562 0.0117,1.13672 3.125,3.11328 9.08984,6.79297 4.78125,2.94922 10.72656,6.62109 15.61719,10.51562 2.64062,2.09766 4.74609,4.09375 6.26562,5.92579 1.73047,2.10156 2.76954,4.07031 3.08204,5.86328 0.32421,1.89453 -0.15235,3.66406 -1.42188,5.25 -3.1875,3.97265 -7.67187,7.67187 -12.42187,11.58984 -9.66407,7.96484 -19.66016,16.20313 -21.07813,28.375 -0.70312,6.04297 -2.17187,8.98438 -4.49609,8.98438 -3.78516,0 -9.76563,-7.44922 -16.69922,-16.07032 -8.11328,-10.10156 -18.21485,-22.67187 -28.70313,-28.08203 -3.92968,-2.02344 -5.74218,-5.01172 -5.39843,-8.87109 0.27734,-3.09375 1.91406,-6.72656 4.86328,-10.79688 2.52734,-3.49218 6.0625,-7.32031 10.21484,-11.07031 7.21875,-6.52344 16,-12.46094 20.41406,-13.8125 3.53907,-1.08594 6.83594,-1.63672 9.79297,-1.63672 m 0,-0.25 c -2.83203,0 -6.14062,0.50391 -9.86719,1.64844 -10.63281,3.26172 -50.16406,34.69531 -30.14062,45.02734 19.43359,10.01953 37.07812,44.17578 45.51562,44.17578 2.35157,0 3.98438,-2.64843 4.7461,-9.20703 2.09765,-18.09375 23.82812,-27.83593 33.44531,-39.83593 10.22266,-12.75782 -32.53516,-30.99219 -32.57422,-34.50782 -0.0469,-4.17968 -4.09375,-7.30468 -11.13281,-7.30468 z m 0,0"
     fill-opacity="1"
     fill-rule="nonzero"
     id="path44"
     style="fill:#ffffff" />
  <path
     fill="#a45d3a"
     d="m 161.02742,138.23828 c 3.6875,0 6.77734,0.78515 8.9375,2.26562 2.03906,1.39844 3.125,3.32422 3.14843,5.57422 0.0156,1.26172 3.47266,3.45703 10.10157,7.55078 5.3125,3.27735 11.92187,7.35547 17.35156,11.67578 2.92969,2.33203 5.26953,4.55078 6.96094,6.58985 1.92578,2.33203 3.07812,4.52343 3.42187,6.51562 0.36328,2.10547 -0.16406,4.07031 -1.58203,5.83203 -3.53906,4.41407 -8.52734,8.52344 -13.80469,12.875 -10.74218,8.85157 -21.84375,18.00391 -23.41797,31.52735 -0.78125,6.71875 -2.41406,9.98437 -4.99609,9.98437 -4.20312,0 -10.85156,-8.27734 -18.55078,-17.85547 -9.01953,-11.22265 -20.24219,-25.1875 -31.89844,-31.19922 -4.35937,-2.25 -6.3789,-5.5664 -5.99609,-9.85937 0.30859,-3.4375 2.1289,-7.46875 5.40234,-11.99609 2.8125,-3.88282 6.73438,-8.13672 11.35156,-12.30469 8.02344,-7.2461 17.77344,-13.84375 22.6875,-15.35156 3.9336,-1.20704 7.59375,-1.81641 10.87891,-1.81641 m 0,-0.28125 c -3.14062,0 -6.82031,0.55859 -10.96094,1.83203 -11.80859,3.62109 -55.734372,38.55078 -33.49218,50.02734 21.59375,11.14063 41.19921,49.08985 50.57421,49.08985 2.60938,0 4.42969,-2.94531 5.27735,-10.23047 2.33203,-20.10547 26.48047,-30.93359 37.16015,-44.26563 11.35938,-14.17578 -36.14843,-34.43359 -36.19531,-38.33984 -0.0469,-4.64453 -4.54687,-8.11328 -12.36328,-8.11328 z m 0,0"
     fill-opacity="1"
     fill-rule="nonzero"
     id="path45"
     style="fill:#ffffff" />
  <path
     fill="#a45d3a"
     d="m 161.05085,131.26171 c 4.09766,0 7.53125,0.8711 9.92969,2.51954 2.25781,1.55468 3.46875,3.69531 3.4961,6.1875 0.0156,1.40625 3.85937,3.84765 11.22265,8.39062 5.90235,3.64063 13.2461,8.17578 19.27735,12.97656 3.25781,2.58985 5.85546,5.05469 7.73437,7.32032 2.14063,2.59375 3.42188,5.02734 3.80078,7.23828 0.40625,2.33984 -0.1875,4.52343 -1.7539,6.48047 -3.9336,4.90234 -9.47266,9.46875 -15.33594,14.30468 -11.9375,9.83203 -24.27735,20.00782 -26.01953,35.03125 -0.86719,7.46094 -2.6836,11.08985 -5.55078,11.08985 -4.67188,0 -12.0625,-9.19532 -20.61329,-19.83594 -10.01953,-12.47266 -22.48828,-27.99219 -35.4375,-34.66797 -4.85156,-2.5 -7.09375,-6.1875 -6.66406,-10.95312 0.33985,-3.81641 2.35938,-8.30079 6,-13.32813 3.125,-4.3125 7.48438,-9.03906 12.61719,-13.67187 8.91406,-8.05079 19.75,-15.38282 25.20312,-17.0586 4.3711,-1.33984 8.44141,-2.01953 12.09375,-2.01953 m 0,-0.3125 c -3.49218,0 -7.57812,0.62109 -12.17968,2.03125 -13.125,4.02734 -61.929692,42.83984 -37.21485,55.58984 23.99219,12.375 45.77344,54.54297 56.19532,54.54297 2.89843,0 4.91796,-3.26953 5.86328,-11.36718 2.59375,-22.33594 29.41797,-34.36329 41.28906,-49.17579 12.62109,-15.7539 -40.16797,-38.26171 -40.21875,-42.60156 -0.0508,-5.15625 -5.05469,-9.01562 -13.73828,-9.01562 z m 0,0"
     fill-opacity="1"
     fill-rule="nonzero"
     id="path46"
     style="fill:#ffffff" />
  <path
     fill="#a45d3a"
     d="m 161.06648,123.50781 c 4.55469,0 8.37109,0.97265 11.03516,2.80469 2.51171,1.72265 3.85546,4.10546 3.88671,6.875 0.0195,1.5625 4.28516,4.26953 12.46875,9.32421 6.5586,4.04688 14.71875,9.08594 21.41797,14.41797 3.6211,2.88282 6.51172,5.61719 8.59375,8.13672 2.38282,2.875 3.80469,5.58203 4.22657,8.03906 0.45312,2.60157 -0.20313,5.02344 -1.95313,7.19922 -4.36328,5.44922 -10.51953,10.52735 -17.03906,15.89453 -13.26563,10.92969 -26.97266,22.23047 -28.91406,38.92579 -0.96485,8.29296 -2.98047,12.32031 -6.16797,12.32031 -5.19532,0 -13.40235,-10.21094 -22.90625,-22.04297 -11.13672,-13.85547 -24.98828,-31.10156 -39.375,-38.51563 -5.38672,-2.78125 -7.878912,-6.875 -7.406252,-12.17578 0.3789,-4.23828 2.625002,-9.22265 6.671872,-14.8125 3.47266,-4.78906 8.31641,-10.04297 14.01172,-15.1875 9.90625,-8.94531 21.94922,-17.09375 28.01172,-18.95312 4.85547,-1.49219 9.37109,-2.2461 13.42969,-2.2461 m 0,-0.34765 c -3.87891,0 -8.41797,0.69531 -13.53516,2.26172 -14.57812,4.47265 -68.808592,47.60156 -41.34766,61.76562 26.65625,13.7461 50.86719,60.60156 62.4375,60.60156 3.22266,0 5.47266,-3.63281 6.51172,-12.63281 2.88282,-24.8164 32.69141,-38.1875 45.87891,-54.64062 14.02734,-17.50391 -44.63281,-42.51172 -44.68359,-47.33594 -0.0625,-5.73438 -5.61329,-10.01953 -15.26954,-10.01953 z m 0,0"
     fill-opacity="1"
     fill-rule="nonzero"
     id="path47"
     style="fill:#ffffff" />
  <path
     fill="#a45d3a"
     d="m 161.08992,114.89062 c 5.05859,0 9.30078,1.07813 12.26172,3.10938 2.79296,1.91796 4.28515,4.5625 4.3164,7.64062 0.0195,1.73828 4.76563,4.74609 13.85547,10.35547 7.28906,4.5 16.35547,10.09766 23.80078,16.02344 4.01953,3.19922 7.23438,6.24218 9.54297,9.03906 2.64844,3.19922 4.22266,6.20312 4.69922,8.93359 0.5,2.89063 -0.23047,5.58203 -2.16797,8 -4.85547,6.05469 -11.69531,11.69141 -18.93359,17.66016 -14.73438,12.14453 -29.96875,24.69922 -32.125,43.24609 -1.06641,9.21485 -3.3086,13.69532 -6.85157,13.69532 -5.76953,0 -14.89062,-11.34766 -25.44921,-24.49219 -12.36719,-15.39453 -27.76563,-34.55469 -43.75,-42.79688 -5.984382,-3.08593 -8.753912,-7.64062 -8.226572,-13.52734 0.41797,-4.71484 2.91407,-10.25 7.40625,-16.45703 3.859382,-5.32422 9.242192,-11.16016 15.574222,-16.875 11.00781,-9.94141 24.38281,-18.99219 31.11719,-21.05469 5.39844,-1.66016 10.42187,-2.5 14.92578,-2.5 m 0,-0.38281 c -4.3125,0 -9.35547,0.76953 -15.03516,2.51172 -16.20312,4.97265 -76.457032,52.88281 -45.9414,68.625 29.61719,15.27343 56.51172,67.33203 69.3789,67.33203 3.58204,0 6.07422,-4.03906 7.23438,-14.03125 3.20312,-27.58203 36.32422,-42.42578 50.97266,-60.71485 15.58203,-19.44531 -49.58985,-47.23437 -49.64844,-52.59375 -0.0664,-6.36718 -6.23828,-11.1289 -16.96094,-11.1289 z m 0,0"
     fill-opacity="1"
     fill-rule="nonzero"
     id="path48"
     style="fill:#ffffff" />
  <path
     fill="#a45d3a"
     d="m 161.11726,105.3164 c 5.62109,0 10.33203,1.19141 13.625,3.45313 3.10156,2.13281 4.76172,5.0664 4.79688,8.48828 0.0234,1.92969 5.29296,5.27344 15.39453,11.51172 8.09765,5 18.17578,11.21875 26.44531,17.79687 4.46875,3.5586 8.03906,6.9375 10.60937,10.04688 2.9375,3.55078 4.69532,6.89062 5.21875,9.92578 0.55469,3.21094 -0.25781,6.20312 -2.41015,8.88672 -5.39453,6.73047 -12.99219,12.99218 -21.03516,19.62109 -16.375,13.49609 -33.30078,27.44141 -35.69531,48.05859 -1.1875,10.23438 -3.68359,15.21094 -7.61328,15.21094 -6.41016,0 -16.54297,-12.61328 -28.27735,-27.21094 -13.74609,-17.10937 -30.85156,-38.39453 -48.613282,-47.55859 -6.64843,-3.42969 -9.72265,-8.48828 -9.13672,-15.02734 0.46875,-5.23828 3.23829,-11.39063 8.23438,-18.28516 4.28516,-5.91406 10.269532,-12.39453 17.300782,-18.75 12.23047,-11.04297 27.09766,-21.10156 34.57813,-23.39844 5.99609,-1.83984 11.57812,-2.77343 16.58203,-2.77343 m 0,-0.42969 c -4.78907,0 -10.39453,0.85547 -16.70703,2.79297 -18.00391,5.52343 -84.949222,58.76562 -51.042972,76.2539 32.910152,16.97266 62.796872,74.81641 77.085932,74.81641 3.98047,0 6.75,-4.48438 8.03907,-15.59375 3.55468,-30.64063 40.35937,-47.14063 56.63672,-67.45703 17.3164,-21.61328 -55.10157,-52.48438 -55.16407,-58.44141 -0.0742,-7.07422 -6.92968,-12.36719 -18.84765,-12.36719 z m 0,0"
     fill-opacity="1"
     fill-rule="nonzero"
     id="path49"
     style="fill:#ffffff" />
  <path
     fill="#a45d3a"
     d="m 161.1446,94.679684 c 6.2461,0 11.48047,1.32813 15.13282,3.83594 3.44531,2.367186 5.29297,5.628906 5.33203,9.433586 0.0234,2.14454 5.8789,5.85938 17.10547,12.78516 8.99609,5.55469 20.1914,12.46484 29.38281,19.78125 4.96484,3.95313 8.93359,7.70703 11.78906,11.15625 3.26563,3.94922 5.21485,7.65625 5.80078,11.03125 0.61719,3.5625 -0.28515,6.88672 -2.67578,9.87109 -5.99219,7.48047 -14.4375,14.4375 -23.375,21.80469 -18.1914,14.98828 -37,30.49219 -39.66015,53.39453 -1.32032,11.375 -4.08594,16.90235 -8.46094,16.90235 -7.11719,0 -18.37891,-14.01172 -31.41797,-30.23828 -15.27344,-19.00782 -34.27734,-42.66016 -54.015632,-52.83594 -7.39062,-3.8125 -10.80468,-9.4336 -10.15625,-16.70313 0.52344,-5.8164 3.59766,-12.65234 9.14844,-20.3125 4.75781,-6.57422 11.40625,-13.78125 19.222662,-20.83984 13.58984,-12.26953 30.10937,-23.44531 38.41797,-25.996086 6.66406,-2.04688 12.86718,-3.08594 18.42968,-3.08594 m 0,-0.47266 c -5.32421,0 -11.55078,0.94922 -18.5664,3.10156 -20,6.136716 -94.390632,65.292966 -56.714852,84.722656 36.566412,18.85938 69.769542,83.12891 85.652352,83.12891 4.42187,0 7.5039,-4.98828 8.93359,-17.32032 3.95313,-34.04687 44.84375,-52.38281 62.9336,-74.95703 19.23437,-24.01172 -61.22266,-58.3164 -61.29688,-64.93359 -0.082,-7.86328 -7.69922,-13.742186 -20.94141,-13.742186 z m 0,0"
     fill-opacity="1"
     fill-rule="nonzero"
     id="path50"
     style="fill:#ffffff" />
  <path
     fill="#a45d3a"
     d="m 161.17585,82.863284 c 6.9375,0 12.75782,1.47265 16.82032,4.26562 3.82812,2.63281 5.8789,6.25391 5.92187,10.48047 0.0274,2.38281 6.53516,6.511716 19.00781,14.207026 9.99219,6.17188 22.4336,13.84766 32.64454,21.97656 5.51953,4.39454 9.92578,8.5625 13.09765,12.39844 3.62891,4.39063 5.79297,8.51172 6.44141,12.25781 0.68359,3.96094 -0.31641,7.65235 -2.96875,10.97266 -6.66016,8.30859 -16.04297,16.03906 -25.97266,24.22656 -20.21094,16.65625 -41.10937,33.88282 -44.0625,59.32813 -1.46484,12.64062 -4.54297,18.78515 -9.40234,18.78515 -7.91016,0 -20.42188,-15.57031 -34.90625,-33.59765 -16.97266,-21.1211 -38.089852,-47.39844 -60.015632,-58.71094 -8.20703,-4.23828 -12.00781,-10.48047 -11.28515,-18.55859 0.57812,-6.46485 4,-14.05469 10.16797,-22.57032 5.28906,-7.30468 12.67578,-15.30468 21.35937,-23.15234 15.097662,-13.63672 33.449222,-26.050776 42.687502,-28.882806 7.40234,-2.26953 14.28906,-3.42188 20.47266,-3.42188 m 0,-0.52734 c -5.91016,0 -12.83203,1.05469 -20.625,3.44531 -22.22657,6.81641 -104.878912,72.546876 -63.019532,94.136716 40.628902,20.95313 77.523432,92.36719 95.164062,92.36719 4.91797,0 8.33594,-5.54297 9.92578,-19.25 4.39062,-37.82813 49.82812,-58.19531 69.92578,-83.28125 21.37891,-26.67969 -68.02344,-64.79688 -68.10156,-72.148436 -0.0937,-8.73437 -8.5586,-15.26953 -23.26953,-15.26953 z m 0,0"
     fill-opacity="1"
     fill-rule="nonzero"
     id="path51"
     style="fill:#ffffff" />
  <path
     fill="#a45d3a"
     d="m 161.21101,69.730464 c 7.71094,0 14.17578,1.64063 18.6875,4.74219 4.25391,2.92188 6.53125,6.94922 6.58203,11.64453 0.0274,2.65235 7.26172,7.23438 21.11719,15.789066 11.10547,6.85546 24.92969,15.39062 36.27344,24.41796 6.13281,4.87891 11.03125,9.51172 14.55078,13.77344 4.03125,4.875 6.4375,9.45313 7.16015,13.61719 0.75782,4.40625 -0.35156,8.50781 -3.30468,12.19531 -7.39453,9.23047 -17.82032,17.82031 -28.85547,26.91797 -22.46094,18.50391 -45.67578,37.64453 -48.96094,65.91797 -1.63281,14.04297 -5.05078,20.87109 -10.44922,20.87109 -8.78906,0 -22.6875,-17.30078 -38.78515,-37.33593 -18.85547,-23.46485 -42.320322,-52.66407 -66.683602,-65.23438 -9.12109,-4.70312 -13.33594,-11.64062 -12.53515,-20.61328 0.64062,-7.17969 4.4414,-15.62109 11.29296,-25.08203 5.87891,-8.11328 14.08594,-17.01172 23.73438,-25.72266 16.777342,-15.148436 37.167972,-28.945306 47.429692,-32.097646 8.22656,-2.52344 15.88281,-3.80079 22.75,-3.80079 m 0,-0.58593 c -6.56641,0 -14.25782,1.17187 -22.91797,3.82812 -24.69141,7.57813 -116.531252,80.609376 -70.019532,104.597656 45.140622,23.28125 86.136722,102.6289 105.742182,102.6289 5.45704,0 9.25782,-6.15234 11.02735,-21.38671 4.8789,-42.03125 55.36328,-64.66797 77.6914,-92.53516 23.75,-29.64453 -75.58203,-71.996086 -75.66796,-80.167966 -0.10157,-9.70312 -9.50782,-16.96484 -25.85547,-16.96484 z m 0,0"
     fill-opacity="1"
     fill-rule="nonzero"
     id="path52"
     style="fill:#ffffff" />
  <path
     fill="#a45d3a"
     d="m 161.25007,55.140624 c 8.57032,0 15.7461,1.82031 20.76563,5.26563 4.72656,3.25 7.25781,7.72656 7.3164,12.9375 0.0312,2.94531 8.0625,8.03906 23.46094,17.54296 12.34375,7.61719 27.69531,17.093746 40.3086,27.132816 6.80859,5.41797 12.25,10.57031 16.16406,15.30468 4.48047,5.41797 7.15625,10.50391 7.95312,15.13282 0.84766,4.89453 -0.38672,9.44922 -3.67187,13.54687 -8.21485,10.25781 -19.80078,19.80078 -32.06641,29.90625 -24.94922,20.56641 -50.75,41.82813 -54.40234,73.24219 -1.8125,15.60156 -5.60547,23.1875 -11.60938,23.1875 -9.76562,0 -25.21093,-19.21875 -43.09765,-41.47656 -20.94922,-26.07032 -47.019532,-58.51953 -74.093752,-72.48438 -10.13672,-5.22656 -14.82422,-12.93359 -13.92969,-22.90625 0.71484,-7.97656 4.9375,-17.35156 12.54687,-27.86328 6.52735,-9.01562 15.64844,-18.89844 26.36719,-28.582026 18.644532,-16.83203 41.300782,-32.16406 52.703132,-35.66016 9.13672,-2.80859 17.64453,-4.22656 25.27734,-4.22656 m 0,-0.65234 c -7.30078,0 -15.84375,1.29687 -25.46484,4.25 -27.44141,8.41797 -129.4765719,89.566396 -77.800782,116.222646 50.160152,25.86719 95.707032,114.03125 117.488282,114.03125 6.07031,0 10.29297,-6.83593 12.2539,-23.76172 5.42188,-46.70312 61.51172,-71.85156 86.32422,-102.82421 26.39063,-32.9375 -83.98047,-79.996096 -84.07812,-89.070316 -0.11719,-10.78515 -10.5625,-18.84765 -28.72657,-18.84765 z m 0,0"
     fill-opacity="1"
     fill-rule="nonzero"
     id="path53"
     style="fill:#ffffff" />
  <path
     fill="#a45d3a"
     d="m 161.29304,38.925784 c 9.51953,0 17.4961,2.02343 23.07031,5.85156 5.25391,3.60937 8.0625,8.58203 8.1211,14.37891 0.0352,3.26953 8.96484,8.92968 26.07031,19.48828 13.70703,8.46093 30.77344,18.99609 44.78516,30.144526 7.57031,6.02344 13.61328,11.74609 17.96484,17.0039 4.97656,6.01954 7.94922,11.67579 8.83984,16.8125 0.9375,5.4375 -0.43359,10.5 -4.08203,15.05079 -9.13281,11.39843 -22,22.0039 -35.625,33.23437 -27.72265,22.84766 -56.39062,46.47266 -60.44531,81.37891 -2.01562,17.33593 -6.23437,25.76562 -12.89453,25.76562 -10.85547,0 -28.01563,-21.35547 -47.88672,-46.08594 -23.27344,-28.96875 -52.242192,-65.01953 -82.324222,-80.53125 -11.26172,-5.80859 -16.47265,-14.37109 -15.48047,-25.45312 0.79688,-8.86328 5.48438,-19.28125 13.94141,-30.96094 7.25781,-10.01953 17.38672,-20.999996 29.30078,-31.757806 20.71094,-18.70313 45.886722,-35.73828 58.558592,-39.625 10.15625,-3.11328 19.60157,-4.69531 28.08594,-4.69531 m 0,-0.72266 c -8.11328,0 -17.60547,1.44531 -28.30078,4.72656 -30.48437,9.35547 -143.859372,99.515626 -86.437502,129.132816 55.730472,28.74609 106.339842,126.70312 130.546882,126.70312 6.73828,0 11.42968,-7.59766 13.61328,-26.40625 6.02734,-51.89453 68.35156,-79.83594 95.92187,-114.24609 29.32031,-36.59766 -93.3125,-88.882816 -93.42187,-98.968746 -0.12891,-11.98047 -11.73828,-20.94141 -31.91797,-20.94141 z m 0,0"
     fill-opacity="1"
     fill-rule="nonzero"
     id="path54"
     style="fill:#ffffff" />
  <path
     fill="#a45d3a"
     d="m 161.33992,20.910154 c 10.57812,0 19.4414,2.2461 25.63281,6.5 5.83594,4.01172 8.95703,9.53516 9.02344,15.97656 0.043,3.63282 9.96093,9.92579 28.96484,21.65625 15.23438,9.40625 34.19531,21.10547 49.76172,33.4961 8.41016,6.691396 15.125,13.050776 19.96094,18.894526 5.52734,6.68359 8.83203,12.96875 9.82031,18.67969 1.04687,6.03906 -0.48047,11.66406 -4.53125,16.72265 -10.14844,12.66407 -24.44531,24.44922 -39.58594,36.92578 -30.80469,25.38672 -62.65625,51.64063 -67.16015,90.42579 -2.23829,19.26171 -6.92579,28.625 -14.32813,28.625 -12.05859,0 -31.12891,-23.73047 -53.20703,-51.21094 -25.863282,-32.1836 -58.054692,-72.24219 -91.472662,-89.48047 -12.51172,-6.45703 -18.30078,-15.96875 -17.19922,-28.28125 0.87891,-9.85156 6.09375,-21.42969 15.49219,-34.40234 8.0586,-11.128906 19.31641,-23.332036 32.55469,-35.285156 23.01562,-20.78125 50.988282,-39.71094 65.066412,-44.02734 11.28125,-3.46094 21.78515,-5.21875 31.20312,-5.21875 m 0,-0.80469 c -9.01172,0 -19.55859,1.60937 -31.44141,5.2539 -33.875002,10.39454 -159.847652,110.574216 -96.046872,143.480466 61.92187,31.94141 118.160162,140.78125 145.050782,140.78125 7.48828,0 12.70313,-8.4414 15.12891,-29.33593 6.69531,-57.65625 75.9414,-88.70313 106.57812,-126.94141 32.57813,-40.66016 -103.68359,-98.753906 -103.80469,-109.964836 -0.14062,-13.3125 -13.04296,-23.27344 -35.46484,-23.27344 z m 0,0"
     fill-opacity="1"
     fill-rule="nonzero"
     id="path55"
     style="fill:#ffffff" />
  <g
     clip-path="url(#507708818a)"
     id="g56"
     style="fill:#ffffff"
     transform="translate(-568.96477,-243.41016)">
    <path
       fill="#a45d3a"
       d="m 730.35937,244.30469 c 11.75,0 21.60157,2.49609 28.48047,7.22656 6.48828,4.45703 9.95703,10.58984 10.03125,17.75 0.0469,4.03516 11.06641,11.02734 32.1875,24.0625 16.92578,10.44922 37.9961,23.45312 55.29297,37.21875 9.34375,7.43359 16.80469,14.49609 22.17578,20.99219 6.14453,7.42578 9.8125,14.41406 10.91407,20.75781 1.16015,6.71094 -0.53125,12.96484 -5.03907,18.58203 -11.27343,14.07031 -27.16015,27.16406 -43.98047,41.02734 -34.23046,28.21094 -69.625,57.375 -74.625,100.47266 -2.48437,21.40234 -7.6914,31.80469 -15.91796,31.80469 -13.39844,0 -34.58594,-26.36719 -59.11719,-56.89453 -28.73828,-35.76563 -64.50391,-80.27344 -101.64063,-99.42969 -13.91015,-7.16797 -20.33984,-17.74219 -19.11718,-31.42188 0.98046,-10.94531 6.76953,-23.80468 17.21484,-38.22656 8.95703,-12.36719 21.46484,-25.92578 36.17187,-39.20312 25.56641,-23.08985 56.64844,-44.1211 72.29297,-48.91797 12.53907,-3.84766 24.20703,-5.80078 34.67188,-5.80078 m 0,-0.89453 c -10.01563,0 -21.73438,1.78906 -34.9336,5.83593 -37.63281,11.55078 -177.60937,122.85938 -106.71484,159.42578 68.79688,35.48829 131.28516,156.42188 161.16016,156.42188 8.32031,0 14.11718,-9.37891 16.8125,-32.59766 7.4375,-64.0625 84.3789,-98.55859 118.41797,-141.04297 36.19921,-45.17968 -115.20313,-109.73046 -115.33594,-122.18359 -0.15625,-14.79297 -14.49219,-25.85937 -39.40625,-25.85937 z m 0,0"
       fill-opacity="1"
       fill-rule="nonzero"
       id="path56"
       style="fill:#ffffff" />
  </g>
  <g
     clip-path="url(#c5350f5b59)"
     id="g62"
     style="fill:#ffffff"
     transform="translate(-568.96477,-243.41016)">
    <g
       clip-path="url(#4ee8c897b4)"
       id="g61"
       style="fill:#ffffff">
      <g
         transform="translate(623,489)"
         id="g60"
         style="fill:#ffffff">
        <g
           clip-path="url(#5fd963760b)"
           id="g59"
           style="fill:#ffffff">
          <g
             clip-path="url(#8301ccea93)"
             id="g58"
             style="fill:#ffffff">
            <g
               clip-path="url(#0d75ac1755)"
               id="g57"
               style="fill:#ffffff">
              <path
                 id="rect56"
                 d="M -939.80029,-667.19971 V 499.1997 H 1133.8003 V -667.19971 Z M 7.9301731,-3.5991232 c 0.82834,0.01104 1.7244843,0.3682694 2.9589839,1.1308594 0.16719,-0.02287 0.334472,-0.043968 0.499512,-0.062988 1.92426,-0.14545 3.958197,-0.076017 5.796387,0.5844727 0.59032,0.21211 1.161289,0.4755089 1.741699,0.7133789 2.34881,1.17252996 3.889272,3.1522059 5.274902,5.2880859 0.45626,0.75446 0.977302,1.4517036 1.485352,2.1694336 0.65435,0.90656 1.153614,1.8845048 1.552734,2.9077148 0.46992,0.45174 0.904507,0.9404879 1.293457,1.4721679 0.43394,0.59318 0.774581,1.248735 1.161621,1.873535 0.32001,1.02643 0.803243,2.015351 0.959473,3.079101 0.3983,2.71199 -0.341567,5.194604 -1.529297,7.561524 -1.35502,2.41839 -3.338142,4.2316 -5.882812,5.25293 -1.09293,0.72316 -2.285477,1.136552 -3.495117,1.237792 -0.78163,0.78375 -1.661478,1.46381 -2.645508,1.97461 -0.57262,0.29724 -1.168748,0.546077 -1.753418,0.818847 -2.93847,0.56456 -4.164271,1.145487 -6.883301,-0.01025 -0.07401,0.0405 -0.1477314,0.08023 -0.2211914,0.121582 -1.99817,-0.08347 -4.0775354,0.315771 -5.9956054,-0.250489 -1.54107003,-0.45495 -2.78499407,-1.638902 -3.9931641,-2.698242 -1.34001,-1.17492 -2.3940515,-3.698579 -2.7978515,-5.440429 -0.13791,-0.59491 -0.2148556,-1.202053 -0.3222656,-1.803223 -0.25712,-4.602 1.1218262,-7.668057 3.6914062,-11.088867 -0.13342,-1.03552 -0.1969706,-2.1465292 -0.1816406,-3.3354492 0.02365,-1.83413 0.2564554,-3.7479003 1.02685543,-5.4345703 0.27373,-0.59929 0.62306031,-1.1611392 0.93457031,-1.74169919 C 4.6185043,-1.972889 6.1078431,-3.6234332 7.9301731,-3.5991232 Z M -1.6293972,18.295896 c -0.18582,0.3164 -0.2477102,0.561176 -0.2329102,0.606446 2.5e-4,5.7e-4 0.00118,0.0039 0.00146,0.0044 h 0.00146 v 0.0015 h 0.00146 v 0.0015 h 0.00146 0.00146 0.00146 0.00146 0.00146 l 0.00146,-0.0015 c 0.02608,-0.01764 0.083444,-0.131505 0.1552735,-0.376465 0.02293,-0.0782 0.043773,-0.15703 0.064453,-0.23584 z"
                 style="fill:#ffffff" />
            </g>
          </g>
        </g>
      </g>
    </g>
  </g>
</svg>
